{"glyphs":{"0":{"ha":694,"x_min":38,"x_max":668,"o":"m 504 496 q 468 780 504 675 q 361 885 432 885 q 292 851 322 885 q 242 758 263 818 q 212 615 222 699 q 201 432 201 532 q 212 287 201 353 q 242 174 222 221 q 291 100 263 126 q 356 74 319 74 q 471 194 433 74 q 504 496 504 300 m 668 490 q 582 140 668 281 q 349 -7 493 -7 q 220 27 278 -7 q 122 122 163 61 q 60 265 82 182 q 38 447 38 349 q 46 560 38 500 q 71 677 54 619 q 114 788 88 735 q 176 881 140 840 q 260 946 213 922 q 367 969 308 969 q 485 933 429 969 q 581 834 540 897 q 644 683 621 771 q 668 490 668 594 z "},"1":{"ha":694,"x_min":157,"x_max":535,"o":"m 535 0 l 157 0 l 157 58 q 260 93 247 81 q 282 229 282 115 l 282 717 q 272 770 282 754 q 231 786 263 786 l 169 785 l 169 833 l 394 957 l 432 957 l 432 188 q 435 128 432 150 q 448 93 438 106 q 478 74 458 81 q 535 60 499 67 l 535 0 z "},"2":{"ha":694,"x_min":33,"x_max":664,"o":"m 664 254 l 600 0 l 33 0 l 35 51 l 167 199 q 219 256 193 226 q 274 314 246 285 q 341 395 313 357 q 389 465 369 433 q 443 625 443 554 q 431 697 443 663 q 396 756 418 731 q 344 797 374 782 q 279 813 314 813 q 177 774 215 813 q 106 672 139 736 l 56 694 q 136 879 94 825 q 325 968 203 968 q 431 947 381 968 q 517 890 481 926 q 576 805 554 854 q 597 700 597 756 q 536 508 597 615 q 476 419 513 467 q 393 317 440 371 q 353 274 392 315 q 235 144 314 232 l 458 150 q 524 158 497 151 q 564 185 551 165 q 588 222 576 204 q 610 254 599 239 l 664 254 z "},"3":{"ha":694,"x_min":71,"x_max":588,"o":"m 588 319 q 478 65 588 153 q 228 -11 385 -11 q 116 12 161 -11 q 71 90 71 35 q 90 135 71 117 q 143 153 110 153 q 171 143 149 153 q 222 121 193 133 q 279 99 250 108 q 328 89 308 89 q 416 128 379 89 q 453 236 453 168 q 371 401 453 347 q 201 453 311 440 l 199 513 q 339 558 297 533 q 404 679 404 599 q 394 734 404 708 q 367 778 385 760 q 327 808 350 797 q 278 818 304 818 q 197 790 228 818 q 132 711 167 763 l 82 733 q 199 918 119 854 q 344 969 263 969 q 426 953 388 969 q 492 909 464 938 q 538 842 521 881 q 554 757 554 803 q 549 699 554 725 q 532 650 543 674 q 502 603 521 626 q 458 556 483 581 q 558 460 529 517 q 588 319 588 404 z "},"4":{"ha":694,"x_min":31,"x_max":661,"o":"m 399 354 l 399 731 l 142 354 l 399 354 m 661 217 l 542 217 l 542 0 l 399 0 l 399 217 l 31 217 l 32 344 l 458 957 l 542 957 l 542 354 l 661 354 l 661 217 z "},"5":{"ha":694,"x_min":72,"x_max":611,"o":"m 611 958 l 550 796 l 281 796 l 250 731 q 463 622 376 699 q 582 354 582 515 q 481 101 582 207 q 218 -11 374 -11 q 162 -6 189 -11 q 115 12 135 0 q 84 42 96 24 q 72 86 72 60 q 92 134 72 115 q 143 153 113 153 q 167 146 146 153 q 215 131 188 139 q 268 115 242 122 q 310 108 294 108 q 369 122 340 108 q 420 158 399 135 q 455 213 442 181 q 468 286 468 246 q 393 461 468 390 q 96 585 299 547 l 265 958 l 611 958 z "},"6":{"ha":694,"x_min":56,"x_max":658,"o":"m 496 254 q 454 441 496 376 q 353 506 413 506 q 313 501 329 506 q 281 488 296 497 q 253 462 267 478 q 219 422 239 446 q 249 186 219 271 q 383 71 289 71 q 466 114 436 71 q 496 254 496 157 m 658 324 q 635 190 658 251 q 573 84 613 129 q 479 14 533 39 q 363 -11 425 -11 q 242 19 297 -11 q 144 101 186 49 q 79 227 103 154 q 56 388 56 300 q 99 621 56 515 q 222 801 143 726 q 407 917 300 876 q 640 958 514 958 l 644 901 q 368 758 458 844 q 249 558 300 694 q 334 598 299 588 q 407 608 369 608 q 504 588 458 608 q 585 528 550 567 q 639 438 619 490 q 658 324 658 386 z "},"7":{"ha":694,"x_min":43,"x_max":636,"o":"m 636 957 l 349 0 l 235 0 l 481 797 l 253 797 q 151 776 178 797 q 104 703 140 768 l 43 703 l 118 957 l 636 957 z "},"8":{"ha":694,"x_min":81,"x_max":622,"o":"m 492 200 q 476 263 492 232 q 435 322 461 293 q 374 377 408 350 q 301 431 340 404 q 258 380 274 401 q 233 339 242 358 q 222 300 225 319 q 219 257 219 281 q 260 122 219 172 q 365 71 301 71 q 415 81 392 71 q 455 109 438 92 q 482 150 472 126 q 492 200 492 174 m 479 739 q 442 842 479 801 q 346 882 404 882 q 260 851 294 882 q 226 781 226 819 q 230 742 226 760 q 249 702 233 724 q 293 652 264 681 q 375 581 322 624 q 418 616 403 604 q 436 631 433 628 q 479 739 479 672 m 622 246 q 601 144 622 192 q 544 63 581 97 q 456 9 507 29 q 346 -11 406 -11 q 239 9 288 -11 q 155 63 190 29 q 100 142 119 97 q 81 236 81 186 q 91 310 81 278 q 121 371 101 342 q 170 427 140 400 q 239 485 200 454 q 186 531 208 508 q 149 576 164 554 q 100 731 100 646 q 119 824 100 781 q 172 900 138 868 q 256 951 207 932 q 364 969 304 969 q 463 952 418 969 q 540 906 508 935 q 590 837 572 876 q 607 754 607 797 q 597 685 607 714 q 565 631 586 656 q 513 581 544 606 q 442 529 482 557 q 533 449 497 485 q 588 381 568 413 q 615 316 607 349 q 622 246 622 283 z "},"9":{"ha":694,"x_min":54,"x_max":657,"o":"m 490 521 q 461 772 490 686 q 326 888 421 888 q 274 874 294 888 q 240 835 253 860 q 221 780 226 811 q 215 714 215 749 q 261 506 215 574 q 364 446 300 446 q 431 464 404 446 q 490 521 458 482 m 657 560 q 616 356 657 458 q 506 173 575 254 q 343 40 436 92 q 144 -11 250 -11 l 69 -11 l 69 44 q 340 183 251 97 q 463 396 408 251 q 386 356 422 368 q 303 343 350 343 q 205 364 250 343 q 126 424 160 385 q 74 516 93 463 q 54 635 54 569 q 76 767 54 706 q 137 874 97 829 q 231 944 176 918 q 353 969 286 969 q 563 860 475 969 q 657 560 657 740 z "},"":{"ha":697,"x_min":0,"x_max":693,"o":"m 0 0 l 693 0 l 693 694 l 0 694 l 0 0 m 13 14 l 13 681 l 679 681 l 679 14 l 13 14 z "},"‛":{"ha":697,"x_min":0,"x_max":693,"o":"m 0 0 l 693 0 l 693 694 l 0 694 l 0 0 m 13 14 l 13 681 l 679 681 l 679 14 l 13 14 z "},"‟":{"ha":697,"x_min":0,"x_max":693,"o":"m 0 0 l 693 0 l 693 694 l 0 694 l 0 0 m 13 14 l 13 681 l 679 681 l 679 14 l 13 14 z "}," ":{"ha":476,"x_min":0,"x_max":0,"o":""},"#":{"ha":672,"x_min":-14,"x_max":685,"o":"m 685 507 l 343 507 q 324 413 333 458 q 306 326 315 368 q 291 266 303 311 q 260 144 279 221 l 538 144 l 538 54 l 238 54 q 213 -35 225 7 q 190 -117 201 -78 q 161 -212 175 -165 q 133 -308 147 -260 l -14 -308 q 31 -154 7 -236 q 77 9 54 -72 q 120 166 100 90 q 156 303 140 242 q 190 457 175 382 q 218 604 206 532 l 685 604 l 685 507 z "},"$":{"ha":865,"x_min":89,"x_max":824,"o":"m 821 522 q 651 531 746 529 q 469 533 557 533 l 358 533 q 289 517 322 533 q 231 472 256 500 q 190 407 206 444 q 175 328 175 369 q 217 185 175 228 q 346 142 258 142 q 371 143 356 142 q 401 147 386 144 q 428 150 415 149 q 447 151 442 151 q 594 113 551 151 q 649 -44 649 67 q 590 -185 649 -121 q 432 -256 525 -256 q 377 -240 401 -256 q 353 -196 353 -224 q 375 -128 353 -147 q 450 -114 397 -108 l 494 -118 q 539 -102 521 -121 q 557 -57 557 -83 q 483 -1 557 -1 q 449 -3 471 -1 q 404 -8 426 -6 q 365 -13 382 -11 q 343 -15 347 -15 q 244 6 290 -15 q 164 67 199 28 q 109 158 129 106 q 89 271 89 210 q 115 432 89 357 q 188 563 142 507 q 297 651 235 619 q 433 683 360 683 q 544 681 488 683 q 653 673 601 678 q 750 662 706 668 q 824 650 794 656 l 821 522 z "},"%":{"ha":772,"x_min":58,"x_max":714,"o":"m 556 557 q 517 769 556 683 q 378 885 468 885 q 250 817 293 885 q 211 669 211 761 q 254 469 211 554 q 408 360 308 360 q 471 378 443 360 q 517 424 499 396 q 546 488 536 453 q 556 557 556 524 m 413 0 l 296 0 l 324 276 q 216 314 265 286 q 132 385 167 342 q 78 488 97 429 q 58 615 58 546 q 83 755 58 690 q 153 867 108 819 q 260 943 199 915 q 394 971 321 971 q 633 864 543 971 q 714 635 714 771 q 632 394 714 501 q 444 278 557 299 l 413 0 z "},"&":{"ha":722,"x_min":57,"x_max":663,"o":"m 663 982 q 608 867 639 897 q 489 831 568 831 q 464 832 482 831 q 424 835 446 833 q 381 839 403 838 q 347 840 360 840 q 185 788 243 840 q 128 650 128 735 q 207 517 128 551 q 436 486 272 486 l 631 486 l 575 0 l 458 0 l 493 351 l 379 351 q 126 428 203 351 q 57 638 57 497 q 138 879 57 790 q 335 963 214 963 q 373 961 347 963 q 429 958 399 960 q 490 954 460 956 q 543 953 521 953 q 589 958 574 953 q 614 982 604 964 l 663 982 z "},"'":{"ha":278,"x_min":58,"x_max":231,"o":"m 231 878 q 195 797 231 826 q 108 767 160 767 q 83 769 92 767 q 74 781 74 771 l 74 826 l 101 825 q 142 834 124 824 q 161 864 161 844 q 145 890 161 883 q 110 901 129 897 q 74 912 90 906 q 58 938 58 918 q 76 977 58 964 q 119 990 93 990 q 198 958 165 990 q 231 878 231 925 z "},"(":{"ha":463,"x_min":72,"x_max":450,"o":"m 422 -262 q 349 -217 383 -240 q 288 -169 315 -194 q 142 24 197 -87 q 72 349 72 171 q 133 665 72 522 q 192 769 157 719 q 272 863 228 818 q 340 922 304 894 q 417 972 376 949 l 447 918 q 299 731 353 849 q 238 407 238 592 q 242 208 238 293 q 268 53 247 124 q 331 -79 289 -17 q 450 -211 374 -142 l 422 -262 z "},")":{"ha":463,"x_min":22,"x_max":403,"o":"m 403 358 q 335 29 403 171 q 189 -169 282 -85 q 54 -265 126 -222 l 24 -212 q 174 -24 125 -136 q 236 356 236 119 q 168 743 236 606 q 22 915 121 842 l 56 969 q 190 874 128 926 q 335 681 282 790 q 403 358 403 540 z "},"*":{"ha":694,"x_min":103,"x_max":592,"o":"m 592 786 q 568 742 592 760 q 513 713 544 725 q 451 695 482 701 q 407 685 421 689 l 507 661 q 565 632 542 653 q 589 596 589 611 q 522 514 589 514 q 487 528 507 514 q 447 562 467 543 q 409 600 426 581 q 383 628 392 619 q 393 593 389 608 q 400 567 397 578 q 419 483 419 496 q 399 428 419 449 q 349 407 379 407 q 299 431 317 407 q 281 486 281 454 q 288 515 281 493 q 303 562 294 536 q 318 613 311 588 q 325 653 325 638 l 328 643 l 231 546 q 169 514 201 514 q 122 536 142 514 q 103 588 103 558 q 122 626 103 610 q 171 653 142 642 q 234 672 200 664 q 297 689 268 681 q 306 682 307 690 q 248 692 282 686 q 182 708 214 697 q 127 738 150 719 q 104 788 104 757 q 124 835 104 814 q 171 857 144 857 q 215 838 190 857 q 262 796 239 819 q 301 752 285 772 q 322 729 318 732 q 316 733 322 715 q 301 781 310 751 q 287 842 293 811 q 281 888 281 874 q 300 940 281 919 q 349 961 319 961 q 396 942 378 961 q 414 883 414 924 q 408 848 414 872 q 394 798 401 824 q 379 751 386 772 q 371 721 372 729 l 371 731 q 383 745 375 738 q 394 756 392 753 l 458 824 q 485 843 469 835 q 521 851 500 851 q 571 833 550 851 q 592 786 592 815 z "},"+":{"ha":724,"x_min":61,"x_max":683,"o":"m 303 56 q 322 108 303 86 q 372 129 342 129 q 424 108 404 129 q 443 56 443 86 q 424 2 443 22 q 372 -18 404 -18 q 322 2 342 -18 q 303 56 303 22 m 303 508 q 322 561 303 540 q 372 582 342 582 q 424 561 404 582 q 443 508 443 540 q 424 457 443 478 q 372 436 404 436 q 322 457 342 436 q 303 508 303 478 m 61 282 q 81 335 61 315 q 132 356 101 356 q 183 335 163 356 q 203 282 203 315 q 183 231 203 253 q 132 210 163 210 q 81 231 101 210 q 61 282 61 253 m 675 282 q 655 231 675 253 q 603 210 635 210 q 553 231 572 210 q 533 282 533 253 q 553 335 533 315 q 603 356 572 356 q 655 335 635 356 q 675 282 675 315 m 286 267 q 296 282 296 272 q 285 301 296 290 l 81 496 q 66 516 71 507 q 61 536 61 525 q 69 569 61 556 q 96 582 76 582 q 121 576 111 582 q 139 563 131 569 l 356 354 q 371 349 361 349 q 383 354 378 349 l 596 563 q 614 576 604 569 q 639 582 624 582 q 666 569 657 582 q 675 536 675 556 q 669 516 675 525 q 653 496 664 507 l 447 297 q 439 282 439 290 q 447 267 439 275 l 661 69 q 678 49 672 58 q 683 28 683 40 q 675 -4 683 10 q 647 -18 667 -18 q 622 -11 632 -18 q 604 3 613 -4 l 388 204 q 371 213 379 213 q 356 206 363 213 l 139 3 q 121 -11 131 -4 q 96 -18 111 -18 q 69 -4 76 -18 q 61 28 61 10 q 66 49 61 40 q 81 69 71 58 l 286 267 z "},",":{"ha":463,"x_min":128,"x_max":344,"o":"m 344 22 q 319 -86 344 -37 q 247 -171 293 -135 q 160 -215 217 -197 l 128 -150 q 189 -114 183 -119 q 240 -36 240 -79 q 224 -22 240 -28 q 186 -6 207 -17 q 149 23 165 4 q 132 76 132 42 q 159 142 132 114 q 224 171 186 171 q 308 131 272 171 q 344 22 344 90 z "},"-":{"ha":463,"x_min":58,"x_max":408,"o":"m 408 267 l 58 267 l 58 369 l 408 369 l 408 267 z "},".":{"ha":463,"x_min":144,"x_max":331,"o":"m 331 72 q 303 8 331 35 q 238 -19 276 -19 q 169 9 194 -19 q 144 71 144 38 q 172 135 144 106 q 239 164 200 164 q 303 136 275 164 q 331 72 331 108 z "},"/":{"ha":250,"x_min":61,"x_max":210,"o":"m 207 874 q 190 824 203 857 q 163 750 178 790 q 132 669 147 710 q 106 599 117 629 l 61 599 q 65 655 64 621 q 67 727 65 689 q 74 803 69 765 q 90 871 79 840 q 118 920 100 901 q 164 939 136 939 q 196 926 182 939 q 210 893 210 914 q 209 885 210 890 q 207 874 208 881 z "},":":{"ha":361,"x_min":90,"x_max":268,"o":"m 268 515 q 243 453 268 478 q 179 428 218 428 q 117 453 143 428 q 90 515 90 478 q 116 578 90 553 q 179 604 142 604 q 242 578 217 604 q 268 515 268 553 z "},";":{"ha":463,"x_min":125,"x_max":343,"o":"m 343 32 q 317 -81 343 -32 q 243 -169 292 -131 q 205 -194 226 -183 q 157 -214 183 -204 l 125 -146 q 171 -119 150 -132 q 206 -94 192 -107 q 229 -67 221 -82 q 238 -32 238 -51 q 221 -12 238 -22 q 184 10 204 -3 q 147 42 164 24 q 131 90 131 61 q 158 160 131 133 q 224 188 185 188 q 307 145 271 188 q 343 32 343 103 m 329 569 q 301 493 329 524 q 233 463 274 463 q 166 492 193 463 q 139 567 139 522 q 167 642 139 611 q 235 672 194 672 q 302 642 275 672 q 329 569 329 613 z "},";":{"ha":463,"x_min":125,"x_max":343,"o":"m 343 32 q 317 -81 343 -32 q 243 -169 292 -131 q 205 -194 226 -183 q 157 -214 183 -204 l 125 -146 q 171 -119 150 -132 q 206 -94 192 -107 q 229 -67 221 -82 q 238 -32 238 -51 q 221 -12 238 -22 q 184 10 204 -3 q 147 42 164 24 q 131 90 131 61 q 158 160 131 133 q 224 188 185 188 q 307 145 271 188 q 343 32 343 103 m 329 569 q 301 493 329 524 q 233 463 274 463 q 166 492 193 463 q 139 567 139 522 q 167 642 139 611 q 235 672 194 672 q 302 642 275 672 q 329 569 329 613 z "},"<":{"ha":783,"x_min":38,"x_max":743,"o":"m 743 -11 l 38 303 l 38 400 l 743 714 l 743 597 l 194 351 l 743 106 l 743 -11 z "},"=":{"ha":1389,"x_min":296,"x_max":1088,"o":"m 1088 210 l 296 210 l 296 304 l 1088 304 l 1088 210 m 1088 438 l 296 438 l 296 529 l 1088 529 l 1088 438 z "},">":{"ha":783,"x_min":38,"x_max":743,"o":"m 743 303 l 38 -11 l 38 106 l 588 351 l 38 597 l 38 714 l 743 400 l 743 303 z "},"?":{"ha":642,"x_min":56,"x_max":588,"o":"m 272 331 l 272 357 q 290 469 272 426 q 327 551 307 513 q 365 633 347 589 q 382 747 382 676 q 376 808 382 776 q 357 865 371 839 q 319 907 343 890 q 260 924 296 924 q 237 920 250 924 q 211 910 224 917 q 190 895 199 904 q 182 874 182 886 q 189 851 182 863 q 203 825 196 839 q 218 793 211 811 q 225 753 225 775 q 202 695 225 718 q 146 672 179 672 q 79 701 103 672 q 56 771 56 731 q 80 860 56 822 q 142 923 104 899 q 226 959 179 947 q 317 971 272 971 q 452 949 400 971 q 535 893 504 926 q 576 819 565 860 q 588 744 588 779 q 573 674 588 707 q 534 614 558 642 q 478 562 510 586 q 415 517 447 538 q 364 478 385 496 q 329 441 343 461 q 308 394 315 421 q 300 331 301 368 l 272 331 m 388 72 q 360 8 388 35 q 294 -19 333 -19 q 226 9 251 -19 q 201 71 201 38 q 229 135 201 106 q 296 164 257 164 q 360 136 332 164 q 388 72 388 108 z "},"@":{"ha":386,"x_min":0,"x_max":389,"o":"m 154 844 q 132 789 154 813 q 76 765 110 765 q 22 788 44 765 q 0 843 0 810 q 22 901 0 878 q 76 925 44 925 q 131 901 107 925 q 154 844 154 878 m 389 847 q 367 790 389 814 q 313 767 344 767 q 258 790 281 767 q 236 847 236 814 q 258 903 236 879 q 313 926 281 926 q 367 904 344 926 q 389 847 389 882 z "},"A":{"ha":1081,"x_min":17,"x_max":1063,"o":"m 625 379 l 481 690 l 344 379 l 625 379 m 1063 0 l 632 0 l 632 58 l 707 67 q 753 104 753 72 q 744 135 753 117 q 732 161 736 153 l 665 294 l 310 294 l 250 157 q 241 131 244 144 q 233 104 238 118 q 244 79 233 88 q 269 67 254 71 q 301 61 285 63 q 331 58 318 60 l 331 0 l 17 0 l 17 58 q 71 69 51 63 q 103 89 90 76 q 124 122 115 101 q 147 174 133 142 l 500 957 l 558 957 l 938 167 q 965 115 954 133 q 987 85 975 96 q 1016 69 999 75 q 1063 57 1033 64 l 1063 0 z "},"B":{"ha":926,"x_min":54,"x_max":865,"o":"m 674 274 q 603 407 674 367 q 438 440 544 440 l 354 440 l 354 89 l 438 89 q 626 140 575 89 q 674 274 674 186 m 639 682 q 578 822 639 774 q 438 864 525 864 l 354 864 l 354 525 l 438 525 q 581 554 535 525 q 639 682 639 589 m 865 254 q 754 49 865 111 q 521 0 668 0 l 54 0 l 54 58 q 125 69 100 63 q 163 92 150 76 q 178 137 175 108 q 181 214 181 165 l 181 799 q 149 872 181 856 q 54 888 117 888 l 54 944 l 438 944 q 697 897 604 944 q 825 686 825 832 q 788 560 825 607 q 679 486 750 513 q 826 388 778 453 q 865 254 865 332 z "},"C":{"ha":1081,"x_min":29,"x_max":1051,"o":"m 1051 0 l 647 0 l 647 57 q 697 67 674 61 q 719 93 719 72 q 713 119 719 107 q 694 147 707 131 l 511 393 l 306 158 q 280 125 290 140 q 269 92 269 110 q 278 75 269 81 q 298 66 286 69 q 324 61 310 63 q 349 58 338 60 l 349 0 l 29 0 l 29 57 q 111 88 74 68 q 174 135 149 107 q 214 182 197 160 q 244 219 231 204 l 456 464 l 219 761 q 188 800 204 781 q 157 839 172 819 q 114 869 142 857 q 50 888 86 881 l 50 944 l 472 944 l 472 888 q 448 883 461 885 q 424 878 435 882 q 405 865 413 874 q 397 842 397 857 q 400 825 397 832 q 419 797 403 818 l 571 599 l 747 800 q 769 828 761 818 q 776 856 776 838 q 767 874 776 868 q 744 883 757 881 q 719 887 732 886 q 700 888 706 888 l 700 944 l 1026 944 l 1026 888 q 965 876 986 882 q 926 859 943 871 q 892 826 910 847 q 840 767 874 804 l 626 524 l 874 214 q 909 169 892 192 q 944 125 926 147 q 1051 56 985 79 l 1051 0 z "},"D":{"ha":1054,"x_min":64,"x_max":982,"o":"m 736 97 l 465 692 l 208 97 l 736 97 m 982 0 l 64 0 l 483 957 l 540 961 l 982 0 z "},"E":{"ha":926,"x_min":31,"x_max":885,"o":"m 885 264 l 815 0 l 31 0 l 31 60 q 101 71 76 65 q 139 89 126 76 q 154 124 151 101 q 157 185 157 146 l 157 774 q 151 828 157 808 q 131 860 146 849 q 92 878 117 872 q 31 888 68 883 l 31 944 l 800 944 l 819 704 l 758 704 q 726 810 740 789 q 619 854 697 854 l 336 854 l 336 542 l 554 542 q 615 547 592 542 q 651 567 638 553 q 670 607 665 582 q 675 672 675 632 l 740 672 l 740 318 l 676 318 q 666 383 671 357 q 649 424 661 408 q 615 445 638 439 q 554 451 593 451 l 336 451 l 336 185 q 339 138 336 156 q 350 110 342 119 q 376 97 358 100 q 422 94 393 94 l 631 94 q 769 146 731 94 q 814 264 790 175 l 885 264 z "},"F":{"ha":1081,"x_min":65,"x_max":1013,"o":"m 457 731 q 321 658 368 710 q 254 469 254 589 q 324 288 254 353 q 457 217 365 247 l 457 731 m 828 492 q 764 658 828 594 q 624 731 707 715 l 624 217 q 768 304 715 239 q 828 492 828 376 m 1013 479 q 935 257 1013 339 q 624 138 840 157 q 627 97 624 111 q 643 74 631 82 q 681 65 656 67 q 751 64 707 64 l 751 0 l 325 0 l 325 64 q 384 65 361 64 q 414 67 407 65 q 457 138 457 75 q 214 213 313 156 q 65 449 65 299 q 193 728 65 632 q 457 808 299 808 q 444 858 457 842 q 410 879 431 874 q 367 885 390 885 q 325 886 344 885 l 325 947 l 751 947 l 751 885 q 682 883 707 885 q 644 874 657 882 q 627 851 631 867 q 624 808 624 836 q 876 725 771 796 q 1013 479 1013 635 z "},"G":{"ha":849,"x_min":33,"x_max":819,"o":"m 819 700 l 758 700 q 721 824 735 807 q 579 858 692 858 l 344 858 l 344 203 q 374 89 344 110 q 482 67 390 76 l 482 0 l 40 0 l 40 67 q 108 76 82 71 q 147 97 133 82 q 164 138 160 111 q 168 214 168 165 l 168 696 q 169 792 168 757 q 158 845 169 826 q 119 872 147 864 q 33 886 90 879 l 33 947 l 800 947 l 819 700 z "},"H":{"ha":1157,"x_min":64,"x_max":1101,"o":"m 1101 0 l 676 0 l 676 58 q 748 70 722 64 q 786 90 774 76 q 801 130 799 104 q 804 200 804 156 l 804 421 l 361 421 l 361 200 q 363 128 361 154 q 378 90 365 103 q 416 70 390 76 q 489 58 442 64 l 489 0 l 64 0 l 64 58 q 135 70 110 64 q 173 90 161 76 q 188 130 185 104 q 190 200 190 156 l 190 746 q 188 817 190 792 q 174 856 186 843 q 135 876 161 869 q 64 888 110 882 l 64 944 l 489 944 l 489 888 q 417 876 443 882 q 379 856 392 869 q 364 816 367 842 q 361 746 361 790 l 361 519 l 804 519 l 804 746 q 801 816 804 790 q 786 856 799 842 q 748 876 774 869 q 676 888 722 882 l 676 944 l 1101 944 l 1101 888 q 1030 876 1056 882 q 992 856 1004 869 q 978 816 981 842 q 975 746 975 790 l 975 200 q 977 128 975 154 q 992 90 979 103 q 1030 70 1004 76 q 1101 58 1056 64 l 1101 0 z "},"I":{"ha":540,"x_min":65,"x_max":474,"o":"m 474 0 l 65 0 l 65 58 q 133 70 108 64 q 170 90 158 76 q 185 130 182 104 q 188 200 188 156 l 188 746 q 185 816 188 790 q 170 856 182 842 q 133 876 158 869 q 65 888 108 882 l 65 944 l 474 944 l 474 888 q 405 876 429 882 q 369 856 381 869 q 355 816 357 842 q 353 746 353 790 l 353 200 q 355 128 353 154 q 368 90 357 103 q 403 70 379 76 q 474 58 428 64 l 474 0 z "},"J":{"ha":1003,"x_min":36,"x_max":942,"o":"m 556 -304 q 536 -340 558 -329 q 490 -350 514 -350 q 448 -339 468 -350 q 428 -304 428 -328 q 428 -285 428 -293 q 431 -269 429 -276 l 461 -87 l 521 -87 l 553 -271 l 556 -304 m 942 315 q 868 55 942 147 q 664 -37 794 -37 q 566 -3 606 -37 q 489 90 526 32 q 408 -10 453 19 q 290 -40 363 -40 q 185 -12 232 -40 q 106 65 139 15 q 54 180 72 114 q 36 322 36 246 q 154 610 36 521 q 410 681 247 681 l 410 615 q 269 550 311 592 q 201 351 201 486 q 232 129 201 204 q 329 54 263 54 q 405 95 379 54 q 444 194 431 136 q 430 250 436 226 q 421 288 424 274 q 408 381 408 343 q 431 499 408 457 q 485 542 453 542 q 545 500 522 542 q 568 383 568 458 q 566 350 568 368 q 561 313 564 332 q 553 281 560 310 q 531 196 546 251 q 575 92 549 132 q 658 53 601 53 q 707 72 685 53 q 745 126 729 92 q 769 209 761 161 q 778 315 778 257 q 722 531 778 463 q 567 615 675 589 l 567 681 q 817 611 722 681 q 942 315 942 519 z "},"K":{"ha":1003,"x_min":38,"x_max":975,"o":"m 975 0 l 544 0 l 544 58 q 600 65 574 61 q 626 88 626 69 q 612 118 626 103 q 590 140 597 133 l 324 447 l 335 443 l 335 188 q 338 122 335 146 q 353 85 340 97 q 390 67 365 72 q 460 58 415 63 l 460 0 l 38 0 l 38 58 q 107 70 82 64 q 144 89 132 76 q 158 124 156 101 q 161 188 161 147 l 161 775 q 158 834 161 814 q 141 864 154 854 q 103 878 128 874 q 38 888 79 882 l 38 944 l 460 944 l 460 888 q 390 874 415 879 q 353 858 365 868 q 338 828 340 847 q 335 775 335 810 l 335 529 l 364 529 l 632 796 q 657 827 647 810 q 667 857 667 844 q 656 873 667 867 q 633 883 646 879 q 606 887 619 886 q 588 888 593 888 l 588 944 l 936 944 l 936 888 q 779 824 829 865 l 703 747 l 479 524 l 810 151 q 851 107 835 124 q 883 81 867 90 q 921 67 900 72 q 975 58 942 63 l 975 0 z "},"L":{"ha":1081,"x_min":31,"x_max":1057,"o":"m 1054 0 l 621 0 l 621 60 q 664 63 643 61 q 707 67 685 64 q 743 103 743 74 q 736 133 743 117 q 722 164 729 149 l 483 683 l 274 192 q 253 136 261 163 q 246 86 246 110 q 256 71 246 76 q 280 63 265 65 q 311 59 294 60 q 343 58 328 58 l 343 0 l 31 0 l 35 61 q 128 100 110 71 q 138 121 129 103 q 161 174 146 139 l 501 956 l 561 956 l 910 200 q 939 136 928 160 q 963 99 950 113 q 997 78 976 85 q 1057 63 1018 71 l 1054 0 z "},"M":{"ha":1311,"x_min":39,"x_max":1260,"o":"m 1260 0 l 846 0 l 846 58 q 912 70 889 64 q 946 90 935 76 q 960 128 957 103 q 964 196 963 153 l 975 765 l 632 0 l 589 0 l 244 718 l 244 196 q 247 128 244 153 q 260 90 250 104 q 293 70 271 76 q 353 58 315 64 l 353 0 l 39 0 l 39 58 q 101 69 78 63 q 135 90 124 75 q 149 129 146 104 q 153 196 153 154 l 153 768 q 149 832 153 808 q 132 868 144 856 q 97 884 119 881 q 39 888 75 888 l 39 944 l 319 944 l 658 269 l 963 944 l 1260 944 l 1260 888 q 1199 883 1222 888 q 1164 867 1176 879 q 1147 831 1151 854 q 1143 768 1143 807 l 1143 196 q 1161 86 1143 104 q 1260 58 1172 74 l 1260 0 z "},"N":{"ha":1081,"x_min":32,"x_max":1050,"o":"m 1050 888 q 986 876 1008 881 q 953 860 964 871 q 941 827 943 849 q 939 767 939 806 l 939 67 q 942 38 939 56 q 947 -8 944 19 l 890 -8 l 267 701 l 267 179 q 271 119 267 142 q 288 85 275 97 q 327 67 301 72 q 396 58 353 63 l 396 0 l 42 0 l 42 58 q 110 63 85 58 q 147 79 135 67 q 163 115 160 92 q 167 179 167 139 l 167 767 q 161 827 167 804 q 140 864 156 850 q 99 883 125 878 q 32 888 74 888 l 32 944 l 279 944 l 838 315 l 838 767 l 839 822 q 833 857 839 844 q 813 875 826 869 q 778 883 800 881 q 722 888 756 885 l 722 944 l 1050 944 l 1050 888 z "},"O":{"ha":1081,"x_min":56,"x_max":1018,"o":"m 828 472 q 756 751 828 642 q 535 874 675 874 q 319 744 400 874 q 249 472 249 629 q 319 190 249 303 q 535 67 397 67 q 760 197 681 67 q 828 472 828 307 m 1018 472 q 981 281 1018 369 q 880 125 944 192 q 726 20 815 58 q 535 -18 638 -18 q 341 19 429 -18 q 190 123 253 57 q 91 278 126 189 q 56 472 56 368 q 93 660 56 571 q 196 817 131 750 q 348 925 261 885 q 535 965 435 965 q 725 926 636 965 q 878 820 814 888 q 981 663 943 753 q 1018 472 1018 574 z "},"P":{"ha":1157,"x_min":50,"x_max":1099,"o":"m 1099 0 l 665 0 l 665 64 q 774 86 760 72 q 794 214 794 107 l 794 854 l 354 854 l 354 194 q 358 125 354 150 q 375 86 361 100 q 415 69 389 72 q 486 65 440 65 l 486 0 l 50 0 l 50 64 q 156 92 136 76 q 179 210 179 115 l 179 751 q 176 817 179 793 q 159 855 172 842 q 120 874 146 868 q 50 885 94 879 l 50 944 l 1099 944 l 1099 885 q 1029 872 1054 879 q 992 851 1004 865 q 976 810 979 836 q 972 740 972 783 l 972 189 q 976 123 972 147 q 994 85 981 99 q 1033 68 1008 72 q 1099 64 1058 64 l 1099 0 z "},"Q":{"ha":1081,"x_min":56,"x_max":1022,"o":"m 713 301 l 653 301 q 646 358 649 338 q 642 382 643 378 q 615 400 636 400 l 481 400 q 459 398 468 400 q 445 386 450 396 q 437 356 440 376 q 431 301 433 336 l 369 301 l 369 640 l 431 640 q 436 590 433 608 q 440 568 439 572 q 490 536 451 536 l 606 536 q 631 548 622 536 q 644 576 640 560 q 650 611 649 593 q 653 640 651 629 l 713 640 l 713 301 m 838 471 q 814 634 838 560 q 750 762 790 708 q 654 845 710 815 q 536 875 599 875 q 328 756 418 875 q 243 519 243 646 q 301 229 243 347 q 542 69 378 69 q 758 188 675 69 q 838 471 838 300 m 1022 474 q 888 128 1022 267 q 536 -19 749 -19 q 168 147 299 -19 q 56 483 56 289 q 194 819 56 676 q 542 969 338 969 q 730 929 642 969 q 883 822 818 889 q 985 664 947 754 q 1022 474 1022 574 z "},"R":{"ha":926,"x_min":47,"x_max":853,"o":"m 664 681 q 592 828 664 786 q 449 857 539 857 l 350 857 l 350 513 q 408 501 378 507 q 467 496 439 496 q 610 544 556 496 q 664 681 664 593 m 853 679 q 746 469 853 547 q 531 404 651 404 q 440 409 485 404 q 350 424 394 414 l 350 183 q 353 122 350 144 q 371 88 357 100 q 410 69 385 75 q 482 58 436 64 l 482 0 l 47 0 l 47 58 q 117 69 92 64 q 156 88 143 75 q 172 122 168 100 q 175 183 175 144 l 175 753 q 171 819 175 794 q 153 858 167 844 q 114 878 139 872 q 47 888 89 883 l 47 944 l 476 944 q 735 889 638 944 q 853 679 853 821 z "},"S":{"ha":926,"x_min":65,"x_max":894,"o":"m 894 288 l 828 3 l 65 0 l 414 453 l 68 949 l 807 949 l 829 703 l 765 708 q 749 773 756 749 q 739 808 743 797 q 613 865 714 865 l 329 864 l 574 513 l 304 164 l 638 164 l 719 163 q 763 168 747 163 q 788 188 778 174 q 807 227 799 203 q 829 288 815 251 l 894 288 z "},"T":{"ha":926,"x_min":33,"x_max":890,"o":"m 890 686 l 829 686 q 792 811 806 792 q 657 846 763 846 l 547 846 l 547 268 l 547 175 q 552 127 547 147 q 570 93 557 107 q 608 72 583 79 q 669 60 632 64 l 669 0 l 253 0 l 253 60 q 360 106 340 69 q 375 268 375 139 l 375 846 l 267 846 q 131 813 160 846 q 92 686 114 793 l 33 686 l 54 944 l 868 944 l 890 686 z "},"U":{"ha":1003,"x_min":38,"x_max":964,"o":"m 964 888 q 906 881 926 883 q 872 869 885 878 q 847 843 858 861 q 817 792 836 825 l 590 404 l 590 154 q 596 102 590 119 q 616 77 601 85 q 657 67 631 69 q 724 58 683 64 l 724 0 l 278 0 l 278 58 q 340 67 318 64 q 365 72 363 71 q 413 154 413 86 l 413 392 l 190 788 q 160 836 174 818 q 131 865 147 854 q 94 879 115 875 q 38 888 72 883 l 38 944 l 457 944 l 457 888 q 430 887 446 888 q 399 883 414 886 q 373 875 383 881 q 363 860 363 869 q 367 834 363 846 q 381 807 371 822 l 546 511 l 718 813 q 728 833 722 821 q 733 861 733 844 q 716 883 733 878 q 663 888 699 888 l 644 888 l 644 944 l 964 944 l 964 888 z "},"V":{"ha":772,"x_min":15,"x_max":683,"o":"m 279 -303 q 260 -338 282 -328 q 215 -349 238 -349 q 174 -337 196 -349 q 153 -303 153 -326 q 153 -285 153 -293 q 156 -269 154 -276 l 186 -86 l 244 -86 l 276 -271 l 279 -303 m 539 -251 q 523 -176 529 -206 q 513 -122 517 -146 q 507 -75 508 -97 q 506 -21 506 -53 l 506 83 l 506 450 q 433 558 506 558 q 363 542 393 558 q 296 490 333 526 l 296 -8 l 150 -8 l 150 456 q 146 533 150 517 q 111 565 138 565 q 91 556 99 565 q 80 535 83 547 q 75 509 76 522 q 72 488 74 496 l 22 485 q 17 511 19 503 q 15 521 15 519 q 53 639 15 600 q 161 678 90 678 q 248 656 222 678 q 282 574 274 633 q 364 644 325 621 q 479 678 418 678 q 651 444 651 678 l 651 56 q 653 -62 651 -15 q 660 -136 654 -110 q 672 -197 667 -168 q 683 -251 678 -225 l 539 -251 z "},"W":{"ha":1081,"x_min":72,"x_max":1017,"o":"m 1017 0 l 603 0 l 617 218 q 754 319 713 269 q 825 542 825 404 q 740 786 825 689 q 553 878 661 878 q 443 853 494 878 q 353 783 392 828 q 292 676 314 738 q 269 540 269 614 q 335 326 269 408 q 388 278 353 306 q 475 215 422 250 l 488 0 l 72 0 l 72 278 l 133 278 q 141 215 138 242 q 151 172 144 189 q 169 147 157 156 q 203 139 181 139 l 385 139 l 385 178 q 189 279 265 207 q 85 532 85 376 q 228 851 85 725 q 547 971 364 971 q 860 861 729 971 q 1008 542 1008 738 q 947 331 1008 417 q 706 178 874 226 l 706 139 l 896 139 q 923 146 913 139 q 940 169 933 153 q 950 213 946 186 q 960 278 954 239 l 1017 278 l 1017 0 z "},"X":{"ha":951,"x_min":57,"x_max":897,"o":"m 897 274 l 871 0 l 75 0 l 57 274 l 125 274 q 128 218 125 240 q 141 183 132 196 q 168 165 150 171 q 215 160 186 160 l 717 160 q 778 163 756 160 q 811 177 800 165 q 827 211 822 189 q 836 274 832 233 l 897 274 m 729 311 l 672 311 q 667 355 669 338 q 656 383 664 372 q 634 398 649 393 q 593 403 619 403 l 353 403 q 318 399 331 403 q 298 384 306 394 q 288 356 290 374 q 282 311 285 338 l 222 311 l 222 654 l 282 654 q 290 585 289 590 q 340 556 300 556 l 619 556 q 647 562 638 556 q 662 580 657 568 q 668 610 667 592 q 672 654 669 629 l 729 654 l 729 311 m 850 682 l 790 682 q 778 747 785 724 q 760 781 771 769 q 734 794 750 792 q 696 796 718 796 l 290 796 q 238 794 258 796 q 201 781 217 792 q 176 747 186 771 q 158 682 167 724 l 97 682 l 122 954 l 831 954 l 850 682 z "},"Y":{"ha":1081,"x_min":42,"x_max":1043,"o":"m 1043 901 q 1019 892 1028 896 q 1004 883 1010 889 q 997 869 999 878 q 994 847 994 861 q 996 819 994 836 q 999 783 997 801 q 1001 747 1000 764 q 1003 718 1003 729 q 894 467 1003 558 q 665 386 801 386 l 622 386 l 622 181 q 628 122 622 143 q 650 90 635 100 q 691 76 665 79 q 757 74 717 74 l 757 1 l 324 1 l 324 65 q 433 92 417 79 q 458 201 458 113 l 458 386 l 400 386 q 163 485 244 386 q 81 756 81 585 q 81 776 81 763 q 83 802 82 789 q 85 826 85 815 q 86 839 86 836 q 70 884 86 872 q 42 904 54 896 l 42 947 l 88 953 q 185 917 143 958 q 242 806 228 876 q 261 699 253 753 q 279 593 269 646 q 347 500 303 533 q 458 456 392 467 l 458 761 q 456 824 458 801 q 440 860 453 847 q 401 878 426 872 q 329 889 375 883 l 329 949 l 757 949 l 757 889 q 647 863 665 876 q 622 765 622 842 l 622 458 q 794 632 761 506 q 822 739 810 685 q 847 847 833 793 q 877 895 860 874 q 915 931 894 917 q 957 951 935 944 q 1000 953 979 957 l 1040 947 l 1043 901 z "},"Z":{"ha":926,"x_min":39,"x_max":879,"o":"m 879 283 l 836 0 l 56 0 l 39 42 l 622 854 l 365 854 q 197 790 228 854 q 160 671 186 771 l 103 671 l 129 944 l 839 944 l 850 903 l 275 90 l 592 90 q 763 146 715 90 q 818 283 790 178 l 879 283 z "},"[":{"ha":463,"x_min":150,"x_max":422,"o":"m 422 -237 l 150 -237 l 150 951 l 422 951 l 422 853 l 292 853 l 292 -140 l 422 -140 l 422 -237 z "},"\\":{"ha":250,"x_min":44,"x_max":193,"o":"m 47 874 q 45 885 46 881 q 44 893 44 890 q 58 926 44 914 q 90 939 72 939 q 136 920 118 939 q 165 871 154 901 q 180 803 175 840 q 187 727 185 765 q 190 655 189 689 q 193 599 190 621 l 149 599 q 122 669 138 629 q 92 750 107 710 q 64 824 76 790 q 47 874 51 857 z "},"]":{"ha":463,"x_min":50,"x_max":324,"o":"m 324 -239 l 50 -239 l 50 -140 l 179 -140 l 179 856 l 50 856 l 50 950 l 324 950 l 324 -239 z "},"^":{"ha":386,"x_min":19,"x_max":376,"o":"m 376 942 q 339 839 365 878 q 267 792 313 800 q 230 796 253 792 q 184 804 207 800 q 144 813 161 808 q 125 817 126 817 l 106 814 q 94 806 99 813 q 85 792 89 800 q 80 776 82 783 q 76 764 78 768 l 19 764 q 64 874 43 843 q 150 918 96 918 q 185 914 163 918 q 228 904 207 910 q 265 894 250 899 q 279 890 281 890 q 304 902 296 890 q 324 942 313 914 l 376 942 z "},"_":{"ha":694,"x_min":-1,"x_max":693,"o":"m 693 -172 l -1 -172 l -1 -103 l 693 -103 l 693 -172 z "},"`":{"ha":278,"x_min":58,"x_max":231,"o":"m 231 938 q 215 912 231 918 q 178 901 199 906 q 142 890 158 897 q 126 864 126 883 q 145 835 126 844 q 188 825 164 825 l 214 826 l 214 781 q 203 769 214 772 q 179 767 192 767 q 94 797 129 767 q 58 878 58 826 q 90 958 58 925 q 168 990 121 990 q 213 978 196 990 q 231 938 231 965 z "},"a":{"ha":849,"x_min":79,"x_max":792,"o":"m 501 371 q 484 438 494 407 q 461 494 474 468 q 353 585 417 585 q 298 556 319 585 q 264 483 276 526 q 247 390 251 439 q 242 301 242 340 q 261 144 242 207 q 350 63 289 63 q 450 151 419 63 q 501 371 454 161 m 792 163 q 778 96 786 129 q 756 36 769 63 q 722 -7 742 10 q 676 -24 703 -24 q 638 -12 654 -24 q 608 16 621 -1 q 587 56 596 33 q 571 104 578 79 q 469 -1 522 25 q 347 -28 415 -28 q 157 64 229 -28 q 79 331 79 163 q 142 567 79 468 q 338 676 213 676 q 452 635 410 676 q 533 514 494 593 l 565 657 l 717 660 l 646 322 q 633 270 639 289 q 626 228 626 251 q 641 128 626 164 q 686 92 656 92 q 708 101 699 92 q 723 121 717 110 q 733 144 729 132 q 740 163 738 156 l 792 163 z "},"b":{"ha":772,"x_min":81,"x_max":692,"o":"m 525 289 q 504 426 525 364 q 431 518 483 488 l 360 506 q 310 521 331 506 q 289 554 289 536 q 308 588 289 574 q 365 601 328 601 q 388 601 379 601 q 428 596 397 600 q 458 658 447 624 q 468 753 468 692 q 435 864 468 824 q 347 904 401 904 q 295 891 315 904 q 263 856 275 878 q 247 803 251 833 q 242 740 242 774 l 243 136 q 275 107 261 118 q 299 89 289 96 q 386 63 338 63 q 485 122 444 63 q 525 289 525 181 m 692 293 q 669 165 692 224 q 607 63 647 106 q 510 -3 567 21 q 383 -28 453 -28 q 310 -12 343 -28 q 243 32 278 4 l 243 -57 q 242 -99 243 -82 q 239 -136 242 -117 q 232 -183 236 -156 q 222 -253 228 -210 l 81 -253 q 81 -222 81 -237 q 83 -190 82 -206 q 92 -21 92 -97 l 93 731 q 113 833 93 785 q 166 915 132 881 q 247 970 200 950 q 347 990 293 990 q 456 972 406 990 q 542 923 506 954 q 599 849 578 892 q 619 756 619 806 q 595 646 619 688 q 517 568 571 604 q 628 475 592 521 q 692 293 692 399 z "},"c":{"ha":772,"x_min":72,"x_max":728,"o":"m 725 -37 q 719 -123 728 -85 q 697 -187 710 -161 q 586 -256 663 -256 q 522 -241 549 -256 q 476 -200 494 -226 q 444 -138 457 -174 q 421 -62 431 -103 l 394 39 l 256 -254 l 100 -254 l 339 239 q 313 344 325 292 q 286 449 301 396 q 247 506 275 488 q 186 525 219 525 q 153 501 165 525 q 133 401 142 476 l 76 401 l 74 482 q 83 560 72 525 q 115 621 94 596 q 160 659 135 646 q 213 672 186 672 q 340 569 292 672 q 403 371 358 533 l 540 657 l 689 657 l 456 168 l 497 21 q 512 -29 506 -8 q 524 -61 518 -50 q 592 -115 546 -115 q 643 -77 629 -115 q 665 24 657 -39 l 722 28 l 725 -37 z "},"d":{"ha":772,"x_min":64,"x_max":701,"o":"m 547 269 q 512 410 547 351 q 408 528 476 469 q 285 463 333 517 q 229 293 229 399 q 240 200 229 243 q 271 126 251 157 q 317 77 290 94 q 376 60 344 60 q 501 117 456 60 q 547 269 547 174 m 701 286 q 611 78 701 172 q 369 -22 513 -22 q 247 3 303 -22 q 151 70 192 28 q 87 171 110 113 q 64 296 64 229 q 149 499 64 422 q 338 582 219 561 q 224 679 261 632 q 165 836 165 750 q 179 895 165 867 q 218 944 193 924 q 276 978 243 965 q 350 990 310 990 q 538 954 453 990 q 629 847 629 913 q 607 792 629 814 q 536 769 585 769 q 494 788 519 769 q 440 830 468 807 q 382 872 411 853 q 331 890 353 890 q 278 877 299 890 q 257 842 257 864 q 293 788 257 821 q 378 718 329 754 q 474 648 426 682 q 546 592 522 614 q 619 515 589 550 q 667 446 649 481 q 693 373 685 411 q 701 286 701 335 z "},"e":{"ha":617,"x_min":38,"x_max":586,"o":"m 586 151 q 501 18 586 64 q 310 -24 424 -24 q 119 26 192 -24 q 38 185 38 83 q 71 283 38 243 q 160 346 104 322 q 92 403 118 371 q 56 496 56 447 q 126 632 56 586 q 313 678 197 678 q 481 646 417 678 q 544 568 544 614 q 528 501 544 522 q 465 481 511 481 q 429 498 449 481 q 388 537 410 515 q 345 576 367 558 q 303 593 324 593 q 265 584 282 593 q 235 561 247 575 q 215 529 222 547 q 208 493 208 511 q 226 408 208 435 q 258 385 239 390 q 296 381 276 379 q 332 385 315 382 q 356 389 349 389 q 417 380 393 389 q 442 342 442 371 q 365 290 442 290 q 318 294 346 290 q 265 301 290 297 q 208 256 226 283 q 190 183 190 229 q 201 133 190 156 q 228 93 211 110 q 267 67 244 76 q 313 58 289 58 q 376 83 353 58 q 419 139 400 108 q 456 194 438 169 q 507 219 475 219 q 535 213 521 219 q 560 197 549 207 q 579 176 572 188 q 586 151 586 164 z "},"f":{"ha":849,"x_min":53,"x_max":785,"o":"m 642 326 q 631 422 642 376 q 601 502 619 468 q 560 557 583 536 q 514 578 538 578 q 478 555 486 578 q 471 469 471 532 l 471 31 q 585 114 550 69 q 642 326 642 188 m 785 335 q 685 68 785 164 q 471 -35 608 -4 l 471 -251 l 351 -251 l 351 -36 q 158 50 232 -15 q 53 325 53 143 q 140 575 53 481 q 318 678 206 646 l 342 622 q 277 570 301 592 q 243 535 253 549 q 199 322 199 465 q 249 119 199 200 q 351 29 286 57 l 351 421 q 400 619 351 554 q 518 675 442 675 q 623 648 574 675 q 708 574 672 621 q 764 466 743 528 q 785 335 785 404 z "},"g":{"ha":694,"x_min":17,"x_max":671,"o":"m 671 651 l 397 81 q 401 13 400 49 q 403 -62 403 -22 q 374 -217 403 -174 q 303 -254 350 -254 q 258 -220 269 -254 q 246 -140 246 -186 q 263 -47 246 -97 q 311 82 281 3 q 273 294 288 221 q 256 378 258 367 q 146 525 217 525 q 113 515 125 525 q 91 487 100 504 q 76 447 82 469 q 65 401 71 425 l 17 401 q 42 586 17 521 q 153 671 75 671 q 261 599 214 671 q 295 527 279 569 q 325 436 311 485 q 349 336 339 388 q 367 238 360 285 q 395 347 378 289 q 432 460 413 404 q 469 566 451 517 q 500 651 488 615 l 671 651 z "},"h":{"ha":772,"x_min":15,"x_max":683,"o":"m 539 -249 q 522 -167 528 -199 q 512 -109 515 -135 q 507 -57 508 -83 q 506 10 506 -31 l 506 85 l 506 450 q 433 558 506 558 q 363 542 393 558 q 296 490 333 526 l 296 -7 l 150 -7 l 150 456 q 146 533 150 517 q 111 565 138 565 q 91 556 99 565 q 80 535 83 547 q 75 509 76 522 q 72 488 74 496 l 22 485 q 17 511 19 503 q 15 521 15 519 q 53 639 15 600 q 161 678 90 678 q 248 656 222 678 q 282 574 274 633 q 364 644 325 621 q 479 678 418 678 q 651 446 651 678 l 651 57 q 660 -133 651 -82 q 672 -194 667 -165 q 683 -249 678 -222 l 539 -249 z "},"i":{"ha":386,"x_min":17,"x_max":367,"o":"m 367 167 q 361 92 367 126 q 342 31 356 57 q 304 -9 328 6 q 244 -24 281 -24 q 139 20 169 -24 q 108 157 108 64 l 107 485 q 103 519 107 507 q 89 539 99 532 q 61 549 79 546 q 17 558 43 553 l 17 613 q 69 624 51 621 q 104 632 88 628 q 144 643 121 636 q 215 664 168 650 l 246 664 l 246 122 q 249 90 246 104 q 271 76 251 76 q 288 80 282 76 q 297 92 293 83 q 303 119 300 101 q 311 167 306 138 l 367 167 z "},"j":{"ha":694,"x_min":89,"x_max":649,"o":"m 649 -44 q 590 -185 649 -121 q 432 -256 525 -256 q 377 -240 401 -256 q 353 -196 353 -224 q 375 -128 353 -147 q 450 -114 397 -108 l 494 -118 q 539 -102 521 -121 q 557 -57 557 -83 q 483 -1 557 -1 q 449 -3 471 -1 q 404 -8 426 -6 q 365 -13 382 -11 q 343 -15 347 -15 q 244 6 290 -15 q 164 67 199 28 q 109 158 129 106 q 89 271 89 210 q 115 432 89 357 q 188 563 142 507 q 297 651 235 619 q 433 683 360 683 q 550 658 513 683 q 588 565 588 632 q 560 523 588 539 q 501 507 532 507 q 469 511 482 507 q 442 520 456 515 q 408 529 428 525 q 358 533 389 533 q 289 517 322 533 q 231 472 256 500 q 190 407 206 444 q 175 328 175 369 q 217 185 175 228 q 346 142 258 142 q 371 143 356 142 q 401 147 386 144 q 428 150 415 149 q 447 151 442 151 q 594 113 551 151 q 649 -44 649 67 z "},"k":{"ha":875,"x_min":78,"x_max":803,"o":"m 803 594 q 781 541 803 563 q 717 519 758 519 q 700 523 711 519 q 678 530 689 526 q 658 537 667 533 q 647 540 649 540 q 599 528 614 540 q 568 500 585 517 l 457 399 l 594 226 q 637 169 617 199 q 681 113 657 140 q 783 65 708 81 l 792 44 l 793 0 l 496 -1 l 496 57 q 506 58 499 57 q 520 60 513 58 q 533 63 528 61 q 539 67 539 64 q 535 79 539 74 q 518 99 532 85 l 354 307 l 315 275 l 315 -1 l 175 -1 l 174 425 q 156 533 174 515 q 82 561 146 546 l 78 600 l 96 617 q 199 640 157 629 q 290 664 242 651 l 317 661 l 317 365 l 489 529 q 585 621 578 614 q 710 681 649 681 q 775 657 747 681 q 803 594 803 633 z "},"l":{"ha":772,"x_min":44,"x_max":740,"o":"m 740 247 q 711 60 740 128 q 607 -19 678 -19 q 503 32 544 -19 q 443 164 461 83 l 389 397 l 199 0 l 44 0 l 335 626 q 318 714 325 679 q 304 767 311 749 q 222 846 276 846 q 191 836 204 846 q 167 810 178 826 q 149 772 157 793 q 132 725 140 750 l 88 725 q 114 904 88 842 q 226 992 149 992 q 296 969 267 992 q 346 907 325 946 q 381 819 367 868 q 408 715 396 769 l 479 392 q 517 229 506 264 q 621 129 547 129 q 665 163 650 129 q 696 246 679 197 l 740 247 z "},"m":{"ha":849,"x_min":101,"x_max":768,"o":"m 768 122 q 728 10 768 54 q 631 -35 689 -35 q 547 -5 578 -35 q 504 78 515 25 q 410 6 464 33 q 299 -22 357 -22 q 263 -17 283 -22 q 218 3 243 -12 l 217 -12 q 219 -47 215 -26 q 227 -90 222 -67 q 236 -137 232 -112 q 240 -183 240 -161 q 221 -231 240 -207 q 174 -254 201 -254 q 101 -174 101 -254 q 122 -72 113 -129 q 128 65 131 -14 l 124 165 l 122 657 l 269 657 l 268 247 q 288 126 268 157 q 343 94 307 94 q 426 110 393 94 q 492 164 458 125 l 492 657 l 640 657 l 640 124 q 667 75 640 75 q 684 80 678 75 q 694 97 690 85 q 699 131 697 110 q 706 186 701 153 l 767 186 l 768 122 z "},"n":{"ha":694,"x_min":21,"x_max":660,"o":"m 660 579 q 633 476 660 528 l 383 -24 l 314 -24 l 108 515 q 97 546 101 536 q 83 560 92 556 q 60 565 75 564 q 21 569 46 567 l 21 624 q 69 635 50 631 q 94 643 88 640 q 130 660 113 651 q 165 678 147 668 l 192 678 l 357 242 l 383 165 l 478 350 q 501 394 489 371 q 514 439 514 418 q 506 504 514 472 q 499 569 499 536 q 521 651 499 622 q 582 681 543 681 q 638 653 617 681 q 660 579 660 626 z "},"o":{"ha":772,"x_min":58,"x_max":714,"o":"m 556 261 q 517 474 556 388 q 378 589 468 589 q 250 521 293 589 q 211 374 211 465 q 254 174 211 258 q 408 64 308 64 q 471 82 443 64 q 517 128 499 100 q 546 192 536 157 q 556 261 556 228 m 714 339 q 632 99 714 206 q 378 -24 536 -24 q 250 1 308 -24 q 149 71 192 26 q 82 178 106 115 q 58 319 58 242 q 83 459 58 394 q 153 572 108 524 q 260 647 199 619 q 394 675 321 675 q 633 568 543 675 q 714 339 714 475 z "},"p":{"ha":849,"x_min":56,"x_max":761,"o":"m 761 517 l 615 517 q 600 419 607 474 q 593 319 593 364 l 593 268 q 602 162 593 197 q 646 126 611 126 q 681 144 672 126 q 706 201 690 161 l 758 201 q 742 118 751 153 q 724 60 733 83 q 622 -22 688 -22 q 506 76 538 -22 q 481 342 481 156 l 481 368 q 482 388 481 378 q 485 415 483 399 q 492 456 488 432 q 503 517 496 481 l 374 517 q 333 174 374 338 q 194 -26 281 -26 q 143 -6 165 -26 q 121 50 121 15 q 217 219 176 118 q 263 517 263 332 l 211 517 q 181 514 192 517 q 160 502 169 511 q 141 476 151 493 q 114 431 131 458 l 56 431 l 99 535 q 163 630 126 601 q 265 658 199 658 l 761 658 l 761 517 z "},"q":{"ha":694,"x_min":63,"x_max":629,"o":"m 213 438 q 233 210 213 299 q 349 65 267 65 q 465 200 436 65 q 476 296 472 236 q 481 443 481 356 l 213 438 m 481 532 q 454 769 481 678 q 343 900 419 900 q 280 868 306 900 q 240 788 254 836 q 219 685 225 740 q 213 586 213 631 l 213 526 l 481 532 m 629 457 q 563 135 629 272 q 358 -24 485 -24 q 126 157 206 -24 q 63 521 63 299 q 135 833 63 699 q 342 988 215 988 q 556 824 475 988 q 629 457 629 669 z "},"r":{"ha":772,"x_min":107,"x_max":701,"o":"m 556 324 q 540 418 556 374 q 499 496 524 463 q 443 549 474 529 q 383 568 413 568 q 324 565 349 568 q 285 551 300 561 q 264 521 271 540 q 257 469 257 501 l 260 196 q 295 90 261 125 q 392 54 329 54 q 513 124 471 54 q 556 324 556 193 m 701 344 q 608 71 701 172 q 390 -28 521 -28 q 316 -18 344 -28 q 261 11 288 -8 l 263 -64 q 254 -250 263 -149 l 107 -250 q 112 -210 110 -228 q 115 -175 114 -193 q 117 -137 117 -157 q 118 -93 118 -118 l 118 -11 l 114 314 q 178 568 111 475 q 406 679 253 679 q 528 654 474 679 q 622 585 583 629 q 681 478 661 540 q 701 344 701 417 z "},"s":{"ha":849,"x_min":75,"x_max":758,"o":"m 568 288 q 536 394 568 336 q 458 518 504 451 l 444 519 q 355 508 394 524 q 287 463 315 492 q 243 397 258 435 q 228 322 228 360 q 240 218 228 265 q 276 137 253 171 q 333 83 300 103 q 408 64 367 64 q 528 117 488 64 q 568 288 568 169 m 758 517 l 572 517 q 626 469 603 493 q 667 421 649 444 q 719 261 719 343 q 697 140 719 193 q 633 49 674 86 q 534 -7 592 13 q 407 -26 476 -26 q 272 -1 333 -26 q 167 72 211 25 q 99 184 124 118 q 75 329 75 250 q 192 571 75 481 q 467 654 300 654 l 758 654 l 758 517 z "},"t":{"ha":668,"x_min":31,"x_max":592,"o":"m 592 650 l 589 522 l 390 525 q 374 433 382 481 q 367 351 367 386 l 367 264 q 376 165 367 197 q 417 133 386 133 q 437 137 429 133 q 451 149 444 140 q 463 173 457 158 q 479 210 469 188 l 531 207 q 506 108 517 147 q 486 50 496 69 q 390 -17 453 -17 q 322 12 349 -17 q 278 85 294 40 q 257 185 263 131 q 251 290 251 239 q 255 349 251 317 q 263 415 258 382 q 271 476 267 447 q 278 525 275 506 l 200 525 q 160 521 175 525 q 133 506 144 517 q 113 478 122 496 q 89 435 103 461 l 31 438 q 89 572 78 551 q 156 644 114 618 q 254 668 199 671 l 592 650 z "},"u":{"ha":694,"x_min":33,"x_max":642,"o":"m 642 346 q 619 195 642 263 q 555 80 596 128 q 458 6 514 32 q 338 -21 403 -21 q 158 50 218 -21 q 90 288 90 126 q 92 303 90 290 q 95 331 93 315 q 99 363 97 347 q 100 390 100 379 q 94 453 100 425 q 78 504 88 481 q 56 550 68 528 q 33 596 44 572 q 53 669 33 644 q 121 693 74 693 q 183 667 160 693 q 220 599 207 640 q 238 505 233 557 q 242 401 242 453 q 240 378 242 393 q 238 348 239 364 q 235 317 236 332 q 233 292 233 301 q 268 114 233 165 q 349 71 297 71 q 479 153 431 71 q 522 351 522 229 q 517 437 522 397 q 497 510 511 476 q 458 576 483 544 q 394 640 433 608 l 418 686 q 565 588 508 656 q 642 346 642 494 z "},"v":{"ha":849,"x_min":79,"x_max":792,"o":"m 413 -303 q 394 -339 415 -328 q 349 -350 372 -350 q 306 -339 326 -350 q 286 -303 286 -328 q 287 -285 286 -293 q 289 -269 288 -276 l 319 -86 l 378 -86 l 410 -271 l 413 -303 m 501 372 q 442 531 481 474 q 353 589 403 589 q 298 559 319 589 q 264 485 276 529 q 247 392 251 442 q 242 301 242 342 q 261 140 242 206 q 350 57 288 57 q 450 149 418 57 q 465 212 453 156 q 501 372 478 268 m 792 160 q 778 92 786 126 q 756 31 769 58 q 722 -12 742 4 q 676 -29 703 -29 q 638 -18 654 -29 q 608 11 621 -7 q 587 53 596 29 q 571 101 578 76 q 467 -6 521 21 q 347 -33 414 -33 q 157 60 229 -33 q 79 331 79 158 q 142 571 79 472 q 338 683 213 683 q 453 640 411 683 q 533 517 496 597 l 565 663 l 717 665 l 646 322 q 633 269 639 289 q 626 226 626 249 q 641 124 626 160 q 686 88 656 88 q 708 97 699 88 q 723 117 717 106 q 733 141 729 129 q 740 160 738 153 l 792 160 z "},"w":{"ha":1003,"x_min":36,"x_max":942,"o":"m 942 319 q 868 61 942 151 q 664 -29 794 -29 q 568 5 608 -29 q 489 97 528 39 q 407 1 453 33 q 290 -32 361 -32 q 185 -4 232 -32 q 106 72 139 24 q 54 185 72 119 q 36 326 36 251 q 154 610 36 521 q 410 681 247 681 l 410 615 q 242 519 288 589 q 201 356 201 458 q 232 135 201 208 q 329 63 263 63 q 405 102 379 63 q 444 200 431 142 q 429 258 435 236 q 421 292 424 281 q 408 385 408 347 q 430 502 408 461 q 485 543 451 543 q 568 388 568 543 q 566 355 568 372 q 561 318 564 338 q 553 285 560 314 q 531 201 546 256 q 568 110 547 139 q 658 61 601 61 q 707 80 685 61 q 745 133 729 99 q 769 215 761 168 q 778 319 778 263 q 722 532 778 464 q 567 615 675 590 l 567 681 q 817 613 724 681 q 942 319 942 522 z "},"x":{"ha":721,"x_min":89,"x_max":669,"o":"m 669 -24 q 652 -110 669 -69 q 606 -183 635 -151 q 541 -232 578 -214 q 467 -250 504 -250 q 395 -228 424 -250 q 367 -179 367 -207 q 390 -120 367 -135 q 454 -106 414 -106 q 474 -113 457 -106 q 499 -121 492 -121 q 562 -105 543 -121 q 581 -53 581 -89 q 557 -6 581 -21 q 494 8 533 8 q 481 7 492 8 q 458 3 471 6 q 431 0 444 1 q 407 -1 417 -1 q 192 53 271 -1 q 89 285 89 124 q 121 401 89 340 q 236 550 153 463 q 182 608 199 579 q 165 663 165 638 q 176 736 165 700 q 188 760 179 746 q 208 797 196 775 q 149 842 168 821 q 131 900 131 863 q 139 944 131 926 q 163 974 147 961 q 200 994 178 986 q 251 1008 222 1001 l 276 958 q 238 936 254 944 q 221 913 221 928 q 222 893 221 900 q 225 881 222 886 q 235 872 228 876 q 257 858 243 867 q 328 919 299 896 q 381 956 358 943 q 424 972 404 968 q 468 976 444 976 q 504 961 489 976 q 519 924 519 946 q 502 872 519 893 q 456 834 485 850 q 388 808 426 818 q 306 789 349 797 q 283 765 292 775 q 268 744 274 754 q 251 674 251 715 q 268 632 251 651 q 307 597 285 613 q 388 630 344 613 q 465 647 431 647 q 541 637 515 647 q 567 596 567 626 q 553 554 567 571 q 517 528 540 538 q 465 515 494 519 q 401 511 435 511 q 359 514 378 511 q 329 518 340 517 q 242 425 269 463 q 192 290 192 356 q 230 186 192 224 q 331 149 268 149 q 362 150 343 149 q 401 153 381 151 q 441 156 422 154 q 472 157 460 157 q 614 119 565 157 q 669 -24 669 76 z "},"y":{"ha":978,"x_min":63,"x_max":915,"o":"m 915 625 q 874 580 890 614 q 847 501 858 546 q 827 403 835 456 q 813 303 819 351 q 799 215 806 254 q 782 154 792 175 q 654 3 735 51 q 547 -31 606 -25 l 547 -253 l 429 -253 l 429 -29 q 233 113 301 -3 q 190 210 210 154 q 163 336 171 265 q 153 426 157 381 q 142 517 149 472 q 134 565 138 547 q 123 592 131 582 q 101 609 115 603 q 63 624 88 615 l 63 678 l 96 685 q 288 429 253 685 q 303 310 296 369 q 321 192 310 251 q 342 126 328 156 q 374 76 357 96 q 429 40 401 49 l 429 656 l 547 656 l 547 40 q 646 190 617 65 l 688 536 q 750 651 707 611 q 864 683 793 690 l 915 678 l 915 625 z "},"z":{"ha":617,"x_min":60,"x_max":617,"o":"m 617 -24 q 550 -187 617 -119 q 418 -250 489 -250 q 335 -233 360 -250 q 311 -179 311 -217 q 330 -131 311 -151 q 389 -111 349 -111 q 417 -115 397 -111 q 447 -119 436 -119 q 506 -99 489 -119 q 524 -39 524 -79 q 503 -8 524 -21 q 447 6 483 6 q 410 3 432 6 q 367 -1 388 1 q 331 -5 346 -3 q 317 -7 317 -7 q 124 107 194 -7 q 60 350 60 208 q 103 568 60 464 q 203 763 131 633 q 126 806 150 778 q 101 886 101 835 q 137 954 101 925 q 224 996 172 983 l 249 946 q 214 917 229 931 q 199 883 199 903 q 214 845 199 858 q 254 826 229 832 q 347 924 321 901 q 472 982 414 982 q 510 965 493 982 q 526 926 526 949 q 506 865 526 893 q 453 815 485 836 q 381 778 421 793 q 304 758 342 764 q 210 603 240 674 q 153 351 153 474 q 161 256 153 294 q 190 194 169 218 q 242 160 210 171 q 321 150 274 150 q 344 151 329 150 q 374 155 358 153 q 403 159 389 157 q 425 161 417 161 q 567 113 518 161 q 617 -24 617 64 z "},"{":{"ha":694,"x_min":154,"x_max":563,"o":"m 563 -328 q 350 -249 425 -306 q 261 -75 261 -185 q 267 -12 261 -51 q 279 65 272 26 q 292 133 286 103 q 297 171 297 164 q 260 273 297 238 q 154 340 222 308 l 154 390 q 218 433 193 415 q 254 460 243 450 q 297 544 297 499 q 292 608 297 568 q 281 687 288 647 q 270 758 275 726 q 265 796 265 789 q 354 972 265 910 q 563 1053 413 1015 l 563 988 q 469 933 499 965 q 424 781 424 881 q 426 732 424 763 q 432 672 429 701 q 438 620 435 642 q 440 599 440 599 q 408 483 440 532 q 257 367 371 426 q 385 279 344 326 q 440 118 440 215 q 438 85 440 106 q 433 41 436 64 q 427 -1 429 18 q 425 -29 425 -21 q 427 -124 425 -87 q 442 -185 429 -160 q 483 -228 456 -210 q 563 -269 511 -246 l 563 -328 z "},"|":{"ha":361,"x_min":132,"x_max":226,"o":"m 226 0 l 132 0 l 132 974 l 226 974 l 226 0 z "},"}":{"ha":694,"x_min":136,"x_max":542,"o":"m 542 332 q 446 271 479 301 q 400 171 400 229 q 406 111 400 151 q 418 31 411 71 q 431 -40 425 -10 q 436 -71 436 -71 q 344 -249 436 -185 q 136 -325 271 -299 l 136 -265 q 238 -200 210 -235 q 274 -60 274 -151 q 272 -19 274 -46 q 266 35 269 7 q 260 87 263 63 q 258 122 258 111 q 310 269 258 214 q 442 357 349 313 q 308 449 351 396 q 256 606 256 514 q 258 643 256 615 q 265 703 261 671 q 272 767 269 736 q 275 815 275 799 q 243 924 275 882 q 136 994 211 965 l 136 1056 q 343 978 272 1032 q 435 797 435 911 q 429 735 435 776 q 417 652 424 693 q 404 581 410 611 q 399 554 399 551 q 408 498 399 522 q 435 454 417 474 q 479 418 453 435 q 542 385 506 401 l 542 332 z "},"~":{"ha":751,"x_min":56,"x_max":697,"o":"m 697 375 q 644 321 668 342 q 599 289 621 300 q 557 274 578 278 q 514 269 536 269 q 456 276 485 269 q 374 307 428 282 q 301 335 333 325 q 228 344 269 344 q 167 321 189 344 q 119 256 144 297 l 56 331 q 87 374 71 356 q 121 404 103 393 q 235 436 169 436 q 277 432 256 436 q 326 421 299 428 q 367 408 340 418 q 421 388 393 399 q 474 369 449 378 q 515 361 500 361 q 549 366 535 361 q 575 382 563 371 q 601 410 588 393 q 632 450 614 426 l 697 375 z "},"":{"ha":463,"x_min":0,"x_max":0,"o":""},"‚":{"ha":540,"x_min":175,"x_max":365,"o":"m 363 85 q 337 12 363 42 q 271 -18 311 -18 q 202 12 229 -18 q 175 88 175 42 q 203 159 175 131 q 269 188 232 188 q 336 157 310 188 q 363 85 363 126 m 365 836 q 356 687 365 758 q 335 545 347 615 q 315 404 324 475 q 306 258 306 333 l 238 258 q 232 377 238 310 q 218 520 226 444 q 199 677 210 596 q 179 840 189 758 q 206 940 179 907 q 274 974 232 974 q 338 937 310 974 q 365 836 365 900 z "},"ƒ":{"ha":386,"x_min":17,"x_max":367,"o":"m 367 171 q 361 95 367 131 q 342 33 356 60 q 304 -8 328 7 q 244 -22 281 -22 q 139 22 169 -22 q 108 160 108 67 l 107 493 q 103 528 107 515 q 89 547 99 540 q 61 558 79 554 q 17 567 43 561 l 17 621 q 50 628 29 622 q 97 640 71 633 q 154 656 124 647 q 215 674 185 665 l 246 674 l 246 125 q 249 93 246 107 q 271 79 251 79 q 291 90 283 79 q 303 117 299 101 q 308 147 307 132 q 311 171 310 163 l 367 171 m 253 933 q 235 906 253 913 q 198 894 218 899 q 160 883 178 890 q 143 854 143 875 q 163 822 143 833 q 207 811 183 810 l 236 813 l 236 764 q 199 749 236 749 q 106 781 144 749 q 68 869 68 814 q 102 956 68 921 q 186 992 136 992 q 233 977 214 992 q 253 933 253 963 z "},"„":{"ha":386,"x_min":17,"x_max":367,"o":"m 367 171 q 361 95 367 131 q 342 33 356 60 q 304 -8 328 7 q 244 -22 281 -22 q 139 22 169 -22 q 108 160 108 67 l 107 493 q 103 528 107 515 q 89 547 99 540 q 61 558 79 554 q 17 567 43 561 l 17 621 q 50 628 29 622 q 97 640 71 633 q 154 656 124 647 q 215 674 185 665 l 246 674 l 246 125 q 249 93 246 107 q 271 79 251 79 q 291 90 283 79 q 303 117 299 101 q 308 147 307 132 q 311 171 310 163 l 367 171 m 240 869 q 203 781 240 814 q 110 749 165 749 q 72 764 72 749 l 72 813 l 101 811 q 147 820 128 810 q 165 854 165 831 q 148 883 165 875 q 110 894 131 890 q 73 906 90 899 q 56 933 56 913 q 74 977 56 963 q 122 992 93 992 q 206 957 171 992 q 240 869 240 922 z "},"…":{"ha":386,"x_min":17,"x_max":367,"o":"m 367 171 q 361 95 367 131 q 342 33 356 60 q 304 -8 328 7 q 244 -22 281 -22 q 139 22 169 -22 q 108 160 108 67 l 107 493 q 103 528 107 515 q 89 547 99 540 q 61 558 79 554 q 17 567 43 561 l 17 621 q 50 628 29 622 q 97 640 71 633 q 154 656 124 647 q 215 674 185 665 l 246 674 l 246 125 q 249 93 246 107 q 271 79 251 79 q 291 90 283 79 q 303 117 299 101 q 308 147 307 132 q 311 171 310 163 l 367 171 m 286 943 q 269 899 286 917 l 164 749 l 110 749 l 167 935 q 191 979 178 967 q 231 992 204 992 q 286 943 286 992 z "},"†":{"ha":386,"x_min":0,"x_max":367,"o":"m 367 171 q 361 96 367 131 q 342 35 356 61 q 303 -7 328 8 q 243 -22 279 -22 q 140 23 172 -22 q 107 160 107 68 l 106 493 q 101 528 106 515 q 88 547 97 540 q 60 558 78 554 q 15 567 42 561 l 15 621 q 49 628 28 622 q 96 640 69 633 q 153 656 122 647 q 214 674 183 665 l 244 674 l 244 125 q 247 92 244 106 q 271 79 250 79 q 299 103 292 79 q 305 140 301 122 q 311 171 308 157 l 367 171 m 185 935 q 167 897 185 904 q 129 887 150 889 q 91 881 108 885 q 74 854 74 876 q 92 822 74 831 q 135 813 110 813 l 168 813 l 168 751 l 135 750 q 40 779 81 747 q 0 864 0 811 q 10 914 0 890 q 35 955 19 938 q 73 983 51 972 q 118 993 94 993 q 165 977 144 993 q 185 935 185 961 m 350 943 q 333 899 350 919 l 228 750 l 172 750 l 231 933 q 253 978 240 964 q 294 992 267 992 q 334 981 318 992 q 350 943 350 969 z "},"‡":{"ha":386,"x_min":14,"x_max":367,"o":"m 367 171 q 361 95 367 131 q 342 33 356 60 q 304 -8 328 7 q 244 -22 281 -22 q 141 23 174 -22 q 108 160 108 68 l 107 493 q 103 528 107 515 q 89 547 99 540 q 61 558 79 554 q 17 567 43 561 l 17 621 q 50 628 29 622 q 97 640 71 633 q 154 656 124 647 q 215 674 185 665 l 246 674 l 246 125 q 249 93 246 107 q 271 79 251 79 q 293 90 286 79 q 303 117 300 101 q 308 147 307 132 q 311 171 308 163 l 367 171 m 199 869 q 188 821 199 843 q 160 782 178 799 q 117 756 142 765 q 67 749 93 747 l 29 750 l 29 813 l 58 811 q 107 822 92 808 q 122 851 122 835 q 106 881 122 881 l 89 881 q 36 889 58 881 q 14 933 14 897 q 33 977 14 963 q 79 992 51 992 q 164 956 129 992 q 199 869 199 919 m 364 943 q 347 899 364 917 l 242 749 l 186 749 l 244 935 q 267 977 254 963 q 307 992 281 992 q 349 978 335 992 q 364 943 364 965 z "},"ˆ":{"ha":386,"x_min":17,"x_max":367,"o":"m 367 171 q 361 95 367 131 q 342 33 356 60 q 304 -8 328 7 q 244 -22 281 -22 q 139 22 169 -22 q 108 160 108 67 l 107 493 q 103 528 107 515 q 89 547 99 540 q 61 558 79 554 q 17 567 43 561 l 17 621 q 50 628 29 622 q 97 640 71 633 q 154 656 124 647 q 215 674 185 665 l 246 674 l 246 125 q 249 93 246 107 q 271 79 251 79 q 291 90 283 79 q 303 117 299 101 q 308 147 307 132 q 311 171 310 163 l 367 171 m 222 749 l 167 749 l 61 899 q 44 943 44 921 q 101 992 44 992 q 140 978 128 992 q 164 935 153 964 l 222 749 z "},"‰":{"ha":386,"x_min":-49,"x_max":367,"o":"m 249 932 q 182 992 239 992 q 126 940 126 992 q 131 920 126 929 q 142 900 135 911 l 222 750 l 279 750 l 249 932 m 138 933 q 120 906 138 913 q 83 894 103 899 q 45 883 63 890 q 28 857 28 876 q 45 824 28 838 q 83 811 63 811 l 122 814 l 122 751 l 88 750 q 35 757 60 749 q -8 781 11 765 q -37 818 -26 796 q -49 868 -49 840 q -39 916 -49 893 q -12 956 -29 939 q 26 983 4 972 q 71 993 47 993 l 89 990 q 124 971 110 988 q 138 933 138 954 m 311 171 q 307 147 308 163 q 302 117 306 132 q 291 90 299 101 q 269 79 283 79 q 247 93 250 79 q 244 125 244 107 l 244 674 l 213 674 q 90 640 146 654 q 13 621 35 626 l 13 567 q 57 558 39 561 q 85 547 75 554 q 99 528 94 540 q 103 493 103 515 l 104 160 q 136 22 104 67 q 243 -22 168 -22 q 303 -7 279 -22 q 342 35 328 8 q 361 96 356 61 q 367 171 367 131 l 311 171 z "},"‹":{"ha":386,"x_min":-4,"x_max":365,"o":"m 365 171 q 360 95 365 131 q 341 33 354 60 q 304 -8 328 7 q 244 -22 281 -22 q 141 22 172 -22 q 110 160 110 67 l 108 492 q 105 526 108 514 q 92 546 101 539 q 65 557 82 553 q 19 567 47 561 l 19 619 q 100 640 47 626 q 215 672 153 653 l 246 672 l 246 125 q 249 93 246 107 q 271 79 251 79 q 291 90 283 79 q 303 117 299 101 q 308 147 307 132 q 311 171 310 163 l 365 171 m 353 942 q 315 839 342 878 q 243 792 289 800 q 206 796 229 792 q 160 804 183 800 q 120 813 138 808 q 101 817 103 817 l 82 814 q 70 806 75 813 q 62 792 65 800 q 56 776 58 783 q 53 764 54 768 l -4 764 q 40 874 19 843 q 126 918 72 918 q 161 914 139 918 q 205 904 183 910 q 242 894 226 899 q 256 890 257 890 q 281 902 272 890 q 300 942 289 914 l 353 942 z "},"Œ":{"ha":386,"x_min":-15,"x_max":367,"o":"m 367 171 q 361 96 367 131 q 342 35 356 61 q 304 -7 328 8 q 244 -22 281 -22 q 139 22 169 -22 q 108 160 108 67 l 107 493 q 103 529 107 517 q 90 549 100 542 q 62 559 79 556 q 17 568 44 563 l 17 622 q 99 643 28 624 q 147 656 118 649 q 214 675 175 664 l 246 675 l 246 126 q 251 92 246 104 q 271 79 256 79 q 299 103 292 79 q 305 140 301 122 q 311 171 308 157 l 367 171 m 247 897 q 226 856 247 868 q 179 843 206 843 l 158 844 l 144 843 l 138 835 q 147 819 131 824 q 179 815 164 815 l 231 817 l 231 754 l 196 751 q 148 756 171 749 q 108 772 125 763 q 61 851 61 799 q 92 926 61 899 q 171 953 124 953 q 226 940 206 953 q 247 897 247 926 m 351 1101 q 309 996 340 1035 q 228 957 278 957 q 194 964 213 957 q 156 980 175 971 q 118 996 136 989 q 88 1003 100 1003 q 60 992 69 1003 q 39 953 50 982 l -15 953 q 26 1062 -4 1024 q 108 1100 56 1100 q 143 1092 121 1100 q 187 1075 165 1085 q 226 1058 208 1065 q 249 1050 244 1050 q 282 1069 272 1050 q 299 1101 292 1089 l 351 1101 z "},"‘":{"ha":386,"x_min":11,"x_max":374,"o":"m 271 908 q 251 868 271 878 q 204 858 231 858 l 169 858 l 163 850 q 172 835 156 839 q 204 831 189 831 l 256 832 l 256 774 l 221 771 q 173 775 196 768 q 133 790 150 782 q 88 865 88 815 q 119 935 88 910 q 196 961 150 961 q 250 948 229 961 q 271 908 271 935 m 374 1101 q 333 1002 364 1039 q 251 965 303 965 q 219 972 239 965 q 181 987 200 979 q 143 1001 161 994 q 114 1008 125 1008 q 86 997 96 1008 q 65 961 76 986 l 11 961 q 52 1064 22 1028 q 133 1100 82 1100 q 155 1092 138 1100 q 194 1076 172 1085 q 237 1060 215 1068 q 272 1053 258 1053 q 301 1064 292 1053 q 322 1101 310 1075 l 374 1101 z "},"’":{"ha":386,"x_min":-3,"x_max":360,"o":"m 268 867 q 229 794 268 821 q 139 771 190 768 l 100 774 l 100 832 l 153 831 q 182 834 171 831 q 193 849 193 838 q 169 858 193 858 l 157 858 q 106 871 128 858 q 83 910 83 883 q 106 952 83 938 q 158 967 129 967 q 235 938 201 967 q 268 867 268 910 m 360 1101 q 319 1000 350 1039 q 239 961 289 961 q 208 969 228 961 q 168 985 189 976 q 128 1001 147 993 q 97 1008 108 1008 q 70 994 79 1008 q 51 961 61 981 l -3 961 q 38 1064 8 1028 q 119 1100 68 1100 q 141 1092 124 1100 q 180 1076 158 1085 q 223 1060 201 1068 q 258 1053 244 1053 q 287 1064 278 1053 q 308 1101 296 1075 l 360 1101 z "},"“":{"ha":386,"x_min":14,"x_max":363,"o":"m 197 939 q 180 903 197 911 q 142 894 163 896 q 105 890 122 893 q 88 867 88 886 q 116 833 88 842 q 182 828 144 825 l 182 772 l 149 771 q 98 776 122 769 q 55 797 74 783 q 25 830 36 810 q 14 875 14 850 q 24 920 14 899 q 49 958 33 942 q 87 983 65 974 q 132 993 108 993 q 177 978 157 993 q 197 939 197 964 m 363 947 q 359 926 363 935 q 346 906 356 918 l 242 771 l 186 771 l 244 938 q 266 978 254 965 q 307 992 278 992 q 346 981 329 992 q 363 947 363 969 z "},"”":{"ha":386,"x_min":14,"x_max":364,"o":"m 197 879 q 187 835 197 856 q 158 799 176 814 q 117 776 140 785 q 67 769 93 768 l 29 771 l 29 828 l 58 826 q 103 835 85 825 q 122 864 122 844 q 106 889 122 889 l 89 889 q 37 897 60 889 q 14 938 14 906 q 33 977 14 964 q 79 990 51 990 q 163 958 128 990 q 197 879 197 926 m 364 946 q 347 906 361 924 l 242 769 l 186 769 l 244 939 q 267 977 254 964 q 307 990 281 990 q 364 946 364 990 z "},"•":{"ha":386,"x_min":35,"x_max":354,"o":"m 325 938 q 301 978 319 965 q 258 992 282 992 q 206 944 206 992 q 209 926 206 933 q 219 907 213 918 l 299 771 l 354 771 l 325 938 m 215 938 q 199 913 215 918 q 163 903 182 907 q 126 894 143 900 q 110 869 110 888 q 126 837 110 850 q 164 826 142 824 l 200 829 l 200 772 l 168 771 q 74 799 114 768 q 35 879 35 829 q 44 922 35 901 q 70 959 54 943 q 107 984 86 975 q 151 993 128 993 l 168 990 q 201 972 188 988 q 215 938 215 957 z "},"–":{"ha":386,"x_min":35,"x_max":354,"o":"m 215 879 q 205 833 215 854 q 177 798 194 813 q 135 776 160 783 q 83 769 111 768 l 47 771 l 47 828 l 79 826 q 122 836 103 826 q 140 865 140 846 q 124 892 140 886 q 88 902 107 899 q 51 911 68 906 q 35 936 35 917 q 53 976 35 963 q 97 990 71 990 q 181 958 146 990 q 215 879 215 926 m 354 769 l 299 769 l 219 907 q 209 925 213 918 q 206 943 206 932 q 258 990 206 990 q 325 936 314 990 l 354 769 z "},"—":{"ha":528,"x_min":0,"x_max":526,"o":"m 526 835 q 503 777 526 801 q 449 753 481 753 q 394 778 418 753 q 371 835 371 803 q 393 890 371 868 q 449 913 415 913 q 504 890 482 913 q 526 835 526 868 m 367 943 q 350 899 367 917 l 242 749 l 185 749 l 244 935 q 268 978 254 965 q 310 992 282 992 q 352 978 338 992 q 367 943 367 965 m 156 832 q 133 776 156 800 q 76 751 110 751 q 22 774 44 751 q 0 831 0 796 q 22 888 0 864 q 76 911 44 911 q 132 888 108 911 q 156 832 156 864 z "},"˜":{"ha":617,"x_min":38,"x_max":586,"o":"m 586 154 q 501 19 586 67 q 310 -22 426 -22 q 119 28 192 -22 q 38 189 38 85 q 72 288 38 249 q 160 350 106 326 q 78 425 101 386 q 56 503 56 464 q 74 583 56 549 q 127 640 93 617 q 208 676 161 664 q 313 688 256 688 q 406 678 363 688 q 479 655 449 669 q 527 619 510 640 q 544 576 544 599 q 528 508 544 529 q 465 488 511 488 q 429 506 449 488 q 389 544 410 524 q 346 583 368 565 q 303 601 324 601 q 265 592 282 601 q 235 569 247 583 q 215 536 222 554 q 208 500 208 518 q 226 414 208 440 q 258 390 239 396 q 296 386 276 385 q 332 391 315 388 q 356 394 349 394 q 417 385 393 394 q 442 346 442 376 q 365 294 442 294 q 318 298 346 294 q 265 306 290 301 q 208 260 226 288 q 190 188 190 233 q 225 97 190 135 q 313 60 260 60 q 376 85 353 60 q 419 142 400 111 q 456 198 438 172 q 507 224 475 224 q 561 201 536 224 q 586 154 586 179 m 392 933 q 374 906 392 913 q 335 894 356 899 q 296 883 314 890 q 278 854 278 875 q 299 822 278 833 q 344 811 319 810 l 375 813 l 375 764 q 363 752 375 756 q 336 749 350 749 q 241 781 281 749 q 201 869 201 814 q 236 957 201 922 q 324 992 271 992 q 372 977 353 992 q 392 933 392 963 z "},"™":{"ha":617,"x_min":38,"x_max":586,"o":"m 586 154 q 501 19 586 67 q 310 -22 426 -22 q 119 28 192 -22 q 38 189 38 85 q 72 288 38 249 q 160 350 106 326 q 78 425 101 386 q 56 503 56 464 q 74 583 56 549 q 127 640 93 617 q 208 676 161 664 q 313 688 256 688 q 406 678 363 688 q 479 655 449 669 q 527 619 510 640 q 544 576 544 599 q 528 508 544 529 q 465 488 511 488 q 429 506 449 488 q 389 544 410 524 q 346 583 368 565 q 303 601 324 601 q 265 592 282 601 q 235 569 247 583 q 215 536 222 554 q 208 500 208 518 q 226 414 208 440 q 258 390 239 396 q 296 386 276 385 q 332 391 315 388 q 356 394 349 394 q 417 385 393 394 q 442 346 442 376 q 365 294 442 294 q 318 298 346 294 q 265 306 290 301 q 208 260 226 288 q 190 188 190 233 q 225 97 190 135 q 313 60 260 60 q 376 85 353 60 q 419 142 400 111 q 456 198 438 172 q 507 224 475 224 q 561 201 536 224 q 586 154 586 179 m 406 869 q 367 781 406 814 q 271 749 329 749 q 232 764 232 749 l 232 813 l 263 811 q 308 821 288 811 q 329 854 329 831 q 311 883 329 875 q 272 894 293 890 q 233 906 251 899 q 215 933 215 913 q 234 977 215 963 q 283 992 253 992 q 369 957 333 992 q 406 869 406 922 z "},"›":{"ha":617,"x_min":38,"x_max":586,"o":"m 586 154 q 501 19 586 67 q 310 -22 426 -22 q 119 28 192 -22 q 38 189 38 85 q 72 288 38 249 q 160 350 106 326 q 78 425 101 386 q 56 503 56 464 q 74 583 56 549 q 127 640 93 617 q 208 676 161 664 q 313 688 256 688 q 406 678 363 688 q 479 655 449 669 q 527 619 510 640 q 544 576 544 599 q 528 508 544 529 q 465 488 511 488 q 429 506 449 488 q 389 544 410 524 q 346 583 368 565 q 303 601 324 601 q 265 592 282 601 q 235 569 247 583 q 215 536 222 554 q 208 500 208 518 q 226 414 208 440 q 258 390 239 396 q 296 386 276 385 q 332 391 315 388 q 356 394 349 394 q 417 385 393 394 q 442 346 442 376 q 365 294 442 294 q 318 298 346 294 q 265 306 290 301 q 208 260 226 288 q 190 188 190 233 q 225 97 190 135 q 313 60 260 60 q 376 85 353 60 q 419 142 400 111 q 456 198 438 172 q 507 224 475 224 q 561 201 536 224 q 586 154 586 179 m 361 935 q 343 895 361 903 q 304 886 325 888 q 265 881 283 885 q 247 854 247 876 q 255 831 247 839 q 276 818 263 822 q 308 813 290 814 q 346 813 326 813 l 346 751 l 311 750 q 258 756 283 749 q 215 779 233 764 q 184 816 196 794 q 172 864 172 838 q 182 913 172 889 q 208 954 192 936 q 247 983 225 972 q 294 993 269 993 q 341 977 321 993 q 361 935 361 961 m 531 943 q 514 899 531 919 l 407 750 l 350 750 l 410 933 q 432 976 419 961 q 474 992 444 992 q 515 981 499 992 q 531 943 531 969 z "},"œ":{"ha":617,"x_min":38,"x_max":586,"o":"m 586 154 q 501 19 586 67 q 310 -22 426 -22 q 119 28 192 -22 q 38 189 38 85 q 72 288 38 249 q 160 350 106 326 q 78 425 101 386 q 56 503 56 464 q 74 583 56 549 q 127 640 93 617 q 208 676 161 664 q 313 688 256 688 q 406 678 363 688 q 479 655 449 669 q 527 619 510 640 q 544 576 544 599 q 528 508 544 529 q 465 488 511 488 q 429 506 449 488 q 389 544 410 524 q 346 583 368 565 q 303 601 324 601 q 265 592 282 601 q 235 569 247 583 q 215 536 222 554 q 208 500 208 518 q 226 414 208 440 q 258 390 239 396 q 296 386 276 385 q 332 391 315 388 q 356 394 349 394 q 417 385 393 394 q 442 346 442 376 q 365 294 442 294 q 318 298 346 294 q 265 306 290 301 q 208 260 226 288 q 190 188 190 233 q 225 97 190 135 q 313 60 260 60 q 376 85 353 60 q 419 142 400 111 q 456 198 438 172 q 507 224 475 224 q 561 201 536 224 q 586 154 586 179 m 375 869 q 364 820 375 843 q 335 781 353 797 q 292 756 317 764 q 240 749 267 747 l 201 750 l 201 813 l 232 811 q 278 819 258 811 q 297 851 297 828 q 279 881 297 881 l 263 881 q 241 881 254 881 q 216 887 228 882 q 195 903 204 892 q 186 933 186 914 q 205 977 186 963 q 253 992 224 992 q 300 982 278 992 q 339 956 322 972 q 365 917 356 939 q 375 869 375 894 m 546 943 q 528 899 546 917 l 419 749 l 363 749 l 422 935 q 446 978 432 965 q 488 992 460 992 q 546 943 546 992 z "},"Ÿ":{"ha":617,"x_min":38,"x_max":586,"o":"m 586 154 q 501 19 586 67 q 310 -22 426 -22 q 119 28 192 -22 q 38 189 38 85 q 72 288 38 249 q 160 350 106 326 q 78 425 101 386 q 56 503 56 464 q 74 583 56 549 q 127 640 93 617 q 208 676 161 664 q 313 688 256 688 q 406 678 363 688 q 479 655 449 669 q 527 619 510 640 q 544 576 544 599 q 528 508 544 529 q 465 488 511 488 q 429 506 449 488 q 389 544 410 524 q 346 583 368 565 q 303 601 324 601 q 265 592 282 601 q 235 569 247 583 q 215 536 222 554 q 208 500 208 518 q 226 414 208 440 q 258 390 239 396 q 296 386 276 385 q 332 391 315 388 q 356 394 349 394 q 417 385 393 394 q 442 346 442 376 q 365 294 442 294 q 318 298 346 294 q 265 306 290 301 q 208 260 226 288 q 190 188 190 233 q 225 97 190 135 q 313 60 260 60 q 376 85 353 60 q 419 142 400 111 q 456 198 438 172 q 507 224 475 224 q 561 201 536 224 q 586 154 586 179 m 342 869 q 331 820 342 843 q 301 781 319 797 q 257 756 282 764 q 204 749 232 747 l 165 750 l 165 813 l 199 811 q 244 820 225 810 q 264 854 264 831 q 247 883 264 876 q 208 894 229 890 q 170 905 188 899 q 153 932 153 911 q 172 976 153 960 q 219 992 190 992 q 267 982 244 992 q 306 956 289 972 q 332 917 322 939 q 342 869 342 894 m 486 749 l 428 749 l 346 900 q 335 920 339 911 q 331 940 331 929 q 347 977 331 963 q 386 992 363 992 q 431 977 413 992 q 456 932 450 963 l 486 749 z "}," ":{"ha":463,"x_min":0,"x_max":0,"o":""},"¡":{"ha":849,"x_min":79,"x_max":792,"o":"m 501 376 q 442 535 481 478 q 353 593 403 593 q 298 563 319 593 q 264 490 276 533 q 247 396 251 446 q 242 306 242 346 q 274 113 242 174 q 350 64 301 64 q 417 98 388 64 q 463 200 447 132 q 485 300 476 256 q 501 376 494 344 m 792 165 q 777 97 786 131 q 755 38 768 64 q 722 -6 742 11 q 676 -22 703 -22 q 608 17 632 -22 q 571 107 585 56 q 521 41 546 67 q 469 0 496 15 q 412 -21 442 -15 q 347 -26 382 -26 q 157 65 229 -26 q 79 336 79 164 q 142 575 79 476 q 338 686 213 686 q 451 645 408 686 q 533 521 493 604 l 565 665 l 717 668 l 646 328 q 632 265 638 288 q 626 232 626 243 q 641 129 626 165 q 686 93 656 93 q 703 96 697 93 q 715 107 710 99 q 725 129 719 115 q 740 165 731 143 l 792 165 m 436 933 q 418 906 436 913 q 379 894 400 899 q 340 883 358 890 q 322 854 322 875 q 342 822 322 833 q 388 811 363 810 l 419 813 l 419 764 q 406 753 419 756 q 381 750 393 750 q 283 782 322 750 q 244 869 244 814 q 279 957 244 922 q 367 992 314 992 q 416 977 396 992 q 436 933 436 963 z "},"¢":{"ha":849,"x_min":79,"x_max":792,"o":"m 501 376 q 442 535 481 478 q 353 593 403 593 q 298 563 319 593 q 264 490 276 533 q 247 396 251 446 q 242 306 242 346 q 274 113 242 174 q 350 64 301 64 q 417 98 388 64 q 463 200 447 132 q 485 300 476 256 q 501 376 494 344 m 792 165 q 777 97 786 131 q 755 38 768 64 q 722 -6 742 11 q 676 -22 703 -22 q 608 17 632 -22 q 571 107 585 56 q 521 41 546 67 q 469 0 496 15 q 412 -21 442 -15 q 347 -26 382 -26 q 157 65 229 -26 q 79 336 79 164 q 142 575 79 476 q 338 686 213 686 q 451 645 408 686 q 533 521 493 604 l 565 665 l 717 668 l 646 328 q 632 265 638 288 q 626 232 626 243 q 641 129 626 165 q 686 93 656 93 q 703 96 697 93 q 715 107 710 99 q 725 129 719 115 q 740 165 731 143 l 792 165 m 476 869 q 438 782 476 814 q 340 750 399 750 q 311 752 321 750 q 301 764 301 754 l 301 813 l 332 811 q 378 821 357 811 q 399 854 399 831 q 381 883 399 875 q 342 894 363 890 q 303 906 321 899 q 285 933 285 913 q 304 977 285 963 q 354 992 324 992 q 440 957 404 992 q 476 869 476 922 z "},"£":{"ha":849,"x_min":79,"x_max":792,"o":"m 501 376 q 442 535 481 478 q 353 593 403 593 q 298 563 319 593 q 264 490 276 533 q 247 396 251 446 q 242 306 242 346 q 274 113 242 174 q 350 64 301 64 q 417 98 388 64 q 463 200 447 132 q 485 300 476 256 q 501 376 494 344 m 792 165 q 777 97 786 131 q 755 38 768 64 q 722 -6 742 11 q 676 -22 703 -22 q 608 17 632 -22 q 571 107 585 56 q 521 41 546 67 q 469 0 496 15 q 412 -21 442 -15 q 347 -26 382 -26 q 157 65 229 -26 q 79 336 79 164 q 142 575 79 476 q 338 686 213 686 q 451 645 408 686 q 533 521 493 604 l 565 665 l 717 668 l 646 328 q 632 265 638 288 q 626 232 626 243 q 641 129 626 165 q 686 93 656 93 q 703 96 697 93 q 715 107 710 99 q 725 129 719 115 q 740 165 731 143 l 792 165 m 497 943 q 481 899 497 919 l 371 750 l 314 750 l 374 935 q 397 978 383 965 q 439 992 411 992 q 483 978 468 992 q 497 943 497 965 z "},"¤":{"ha":849,"x_min":79,"x_max":792,"o":"m 501 376 q 442 535 481 478 q 353 593 403 593 q 298 563 319 593 q 264 490 276 533 q 247 396 251 446 q 242 306 242 346 q 274 113 242 174 q 350 64 301 64 q 417 98 388 64 q 463 200 447 132 q 485 300 476 256 q 501 376 494 344 m 792 165 q 777 97 786 131 q 755 38 768 64 q 722 -6 742 11 q 676 -22 703 -22 q 608 17 632 -22 q 571 107 585 56 q 521 41 546 67 q 469 0 496 15 q 412 -21 442 -15 q 347 -26 382 -26 q 157 65 229 -26 q 79 336 79 164 q 142 575 79 476 q 338 686 213 686 q 451 645 408 686 q 533 521 493 604 l 565 665 l 717 668 l 646 328 q 632 265 638 288 q 626 232 626 243 q 641 129 626 165 q 686 93 656 93 q 714 106 703 93 q 722 123 715 108 q 740 165 729 138 l 792 165 m 406 935 q 388 895 406 903 q 348 886 369 888 q 308 881 326 885 q 290 854 290 878 q 298 831 290 839 q 319 818 306 822 q 351 813 333 814 q 389 813 369 813 l 389 753 l 356 750 q 305 756 329 747 q 261 778 281 765 q 215 864 215 808 q 225 913 215 889 q 251 954 235 936 q 290 983 268 972 q 338 993 313 993 q 384 977 363 993 q 406 935 406 961 m 576 943 q 558 899 576 917 l 451 750 l 393 750 l 453 933 q 476 976 463 961 q 518 992 490 992 q 560 981 544 992 q 576 943 576 969 z "},"¥":{"ha":849,"x_min":79,"x_max":792,"o":"m 501 376 q 442 535 481 478 q 353 593 403 593 q 298 563 319 593 q 264 490 276 533 q 247 396 251 446 q 242 306 242 346 q 274 113 242 174 q 350 64 301 64 q 417 98 388 64 q 463 200 447 132 q 485 300 476 256 q 501 376 494 344 m 792 165 q 777 97 786 131 q 755 38 768 64 q 722 -6 742 11 q 676 -22 703 -22 q 608 17 632 -22 q 571 107 585 56 q 521 41 546 67 q 469 0 496 15 q 412 -21 442 -15 q 347 -26 382 -26 q 157 65 229 -26 q 79 336 79 164 q 142 575 79 476 q 338 686 213 686 q 451 645 408 686 q 533 521 493 604 l 565 665 l 717 668 l 646 328 q 632 265 638 288 q 626 232 626 243 q 641 129 626 165 q 686 93 656 93 q 703 96 697 93 q 715 107 710 99 q 725 129 719 115 q 740 165 731 143 l 792 165 m 419 869 q 381 782 419 817 q 283 750 342 747 l 244 751 l 244 813 l 275 811 q 319 821 299 810 q 340 853 340 832 q 324 881 340 881 l 307 881 q 285 881 299 881 q 260 887 272 882 q 238 903 247 892 q 228 933 228 914 q 247 977 228 963 q 296 992 265 992 q 344 982 321 992 q 383 956 367 972 q 410 917 400 939 q 419 869 419 894 m 590 943 q 574 899 590 919 l 464 750 l 407 750 l 467 935 q 490 978 476 965 q 532 992 504 992 q 576 978 561 992 q 590 943 590 965 z "},"§":{"ha":849,"x_min":79,"x_max":792,"o":"m 500 932 q 476 977 494 963 q 431 992 457 992 q 375 940 375 992 q 378 919 375 926 q 389 900 382 913 l 472 750 l 531 750 l 500 932 m 386 933 q 369 906 386 913 q 330 894 351 899 q 291 883 308 890 q 274 857 274 876 q 291 824 274 838 q 331 811 308 810 l 369 814 l 369 753 l 335 750 q 282 756 307 747 q 238 780 257 764 q 206 819 218 796 q 194 868 194 842 q 205 916 194 893 q 232 956 215 939 q 271 983 249 972 q 318 993 293 993 l 336 990 q 372 971 357 988 q 386 933 386 954 m 740 165 q 725 129 731 143 q 715 107 719 115 q 703 96 710 99 q 686 93 697 93 q 641 129 656 93 q 626 232 626 165 q 632 265 626 243 q 646 328 638 288 l 717 668 l 565 665 l 533 521 q 451 645 493 604 q 338 686 408 686 q 142 575 213 686 q 79 336 79 476 q 157 65 79 164 q 347 -26 229 -26 q 412 -21 382 -26 q 469 0 442 -15 q 521 41 496 15 q 571 107 546 67 q 608 17 585 56 q 676 -22 632 -22 q 722 -6 703 -22 q 755 38 742 11 q 777 97 768 64 q 792 165 786 131 l 740 165 m 501 376 q 485 300 494 344 q 463 200 476 256 q 417 98 447 132 q 350 64 388 64 q 274 113 301 64 q 242 306 242 174 q 247 396 242 346 q 264 490 251 446 q 298 563 276 533 q 353 593 319 593 q 442 535 403 593 q 501 376 481 478 z "},"¨":{"ha":849,"x_min":79,"x_max":792,"o":"m 501 376 q 442 535 481 478 q 353 593 403 593 q 298 563 319 593 q 264 490 276 533 q 247 396 251 446 q 242 306 242 346 q 274 113 242 174 q 350 64 301 64 q 417 98 388 64 q 463 200 447 132 q 485 300 476 256 q 501 376 494 344 m 792 165 q 777 97 786 131 q 755 38 768 64 q 722 -6 742 11 q 676 -22 703 -22 q 608 17 632 -22 q 571 107 585 56 q 521 41 546 67 q 469 0 496 15 q 412 -21 442 -15 q 347 -26 382 -26 q 157 65 229 -26 q 79 336 79 164 q 142 575 79 476 q 338 686 213 686 q 451 645 408 686 q 533 521 493 604 l 565 665 l 717 668 l 646 328 q 632 265 638 288 q 626 232 626 243 q 641 129 626 165 q 686 93 656 93 q 703 96 697 93 q 715 107 710 99 q 725 129 719 115 q 740 165 731 143 l 792 165 m 399 869 q 388 821 399 843 q 358 782 376 799 q 314 757 339 765 q 260 750 289 749 l 222 751 l 222 813 l 256 811 q 301 820 282 810 q 321 854 321 831 q 303 883 321 876 q 265 894 286 890 q 226 905 243 899 q 208 932 208 911 q 227 976 208 960 q 275 992 246 992 q 323 982 300 992 q 363 956 346 972 q 389 917 379 939 q 399 869 399 894 m 544 750 l 485 750 l 403 900 q 392 920 396 911 q 388 940 388 929 q 404 978 388 964 q 444 992 421 992 q 490 977 471 992 q 514 932 508 963 l 544 750 z "},"©":{"ha":849,"x_min":79,"x_max":792,"o":"m 501 376 q 442 536 481 481 q 353 592 403 592 q 300 563 321 592 q 266 492 279 535 q 247 399 253 449 q 242 306 242 349 q 274 113 242 174 q 350 64 301 64 q 417 98 388 64 q 463 200 447 132 q 485 300 476 256 q 501 376 494 344 m 792 165 q 777 97 786 131 q 755 38 768 64 q 722 -6 742 11 q 676 -22 703 -22 q 608 17 632 -22 q 571 107 585 56 q 521 41 546 67 q 469 0 496 15 q 412 -21 442 -15 q 347 -26 382 -26 q 157 65 229 -26 q 79 335 79 164 q 142 574 79 475 q 338 685 213 685 q 403 674 375 685 q 453 641 431 663 q 494 589 475 619 q 533 521 514 558 l 565 665 l 717 667 l 646 328 q 632 265 638 288 q 626 232 626 243 q 641 129 626 165 q 686 93 656 93 q 703 96 697 93 q 715 107 710 99 q 725 129 719 115 q 740 165 731 143 l 792 165 m 567 942 q 528 838 554 875 q 453 792 501 800 q 413 796 438 792 q 365 804 389 800 q 324 813 342 808 q 304 817 306 817 l 283 814 q 267 803 272 813 q 253 764 263 793 l 193 764 q 217 831 204 804 q 240 874 229 858 q 329 918 274 918 q 365 914 342 918 q 412 904 389 910 q 451 894 435 899 q 465 890 467 890 q 494 906 485 890 q 511 942 503 921 l 567 942 z "},"ª":{"ha":849,"x_min":79,"x_max":792,"o":"m 501 378 q 442 537 481 479 q 353 594 403 594 q 298 565 319 594 q 264 491 276 535 q 247 397 251 447 q 242 307 242 347 q 261 147 242 213 q 350 64 288 64 q 450 154 418 64 q 465 217 453 161 q 501 378 478 272 m 792 165 q 777 97 786 131 q 755 38 768 64 q 722 -6 742 11 q 676 -22 703 -22 q 608 17 632 -22 q 571 107 585 56 q 521 41 546 67 q 469 0 496 15 q 412 -21 442 -15 q 347 -26 382 -26 q 157 65 229 -26 q 79 336 79 164 q 142 576 79 478 q 338 688 213 688 q 451 647 408 688 q 533 522 493 606 l 565 667 l 717 669 l 646 328 q 633 275 639 293 q 626 232 626 257 q 641 130 626 165 q 686 94 656 94 q 708 103 699 94 q 723 124 717 113 q 733 147 729 135 q 740 165 738 158 l 792 165 m 429 897 q 408 856 429 868 q 360 843 386 843 l 338 844 l 324 843 l 317 835 q 316 826 313 829 q 326 820 319 822 q 343 817 333 818 q 360 815 353 815 l 414 817 l 414 754 l 378 751 q 328 756 351 749 q 286 772 304 763 q 238 851 238 800 q 270 926 238 899 q 351 953 303 953 q 408 940 388 953 q 429 897 429 926 m 538 1101 q 494 996 526 1035 q 410 957 463 957 q 372 964 394 957 q 326 980 349 971 q 286 996 304 989 q 264 1003 268 1003 q 239 994 250 1003 q 214 953 228 986 l 158 953 q 201 1062 169 1024 q 286 1100 232 1100 q 323 1092 300 1100 q 369 1075 346 1085 q 409 1058 392 1065 q 431 1050 426 1050 q 450 1056 442 1050 q 465 1069 458 1061 q 476 1087 471 1078 q 483 1101 481 1096 l 538 1101 z "},"«":{"ha":849,"x_min":79,"x_max":792,"o":"m 501 378 q 442 537 481 479 q 353 594 403 594 q 298 565 319 594 q 264 491 276 535 q 247 397 251 447 q 242 307 242 347 q 261 147 242 213 q 350 64 288 64 q 450 154 418 64 q 465 217 453 161 q 501 378 478 272 m 792 165 q 777 97 786 131 q 755 38 768 64 q 722 -6 742 11 q 676 -22 703 -22 q 608 17 632 -22 q 571 107 585 56 q 521 41 546 67 q 469 0 496 15 q 412 -21 442 -15 q 347 -26 382 -26 q 157 65 229 -26 q 79 336 79 164 q 142 576 79 478 q 338 688 213 688 q 451 647 408 688 q 533 522 493 606 l 565 667 l 717 669 l 646 328 q 633 275 639 293 q 626 232 626 257 q 641 130 626 165 q 686 94 656 94 q 708 103 699 94 q 723 124 717 113 q 733 147 729 135 q 740 165 738 158 l 792 165 m 442 853 q 429 808 442 828 q 397 775 417 789 q 353 755 378 761 q 306 751 329 749 l 265 754 l 265 817 l 297 815 q 314 814 304 814 l 326 814 q 363 833 363 814 q 338 844 363 844 l 324 843 q 272 856 294 840 q 249 899 249 872 q 272 943 249 928 q 326 958 296 958 q 369 950 349 958 q 406 927 390 942 q 432 893 422 913 q 442 853 442 874 m 538 1101 q 524 1045 533 1072 q 498 997 514 1018 q 460 965 482 976 q 411 953 439 953 q 372 960 396 953 q 325 978 349 968 q 283 995 301 988 q 261 1003 264 1003 q 235 991 244 1003 q 214 953 225 979 l 158 953 q 201 1062 169 1024 q 286 1100 232 1100 q 323 1092 300 1100 q 369 1075 346 1085 q 409 1058 392 1065 q 431 1050 426 1050 q 450 1056 442 1050 q 465 1069 458 1061 q 476 1087 471 1078 q 483 1101 481 1096 l 538 1101 z "},"¬":{"ha":849,"x_min":79,"x_max":792,"o":"m 413 -303 q 394 -339 415 -328 q 349 -350 372 -350 q 306 -339 326 -350 q 286 -303 286 -328 q 287 -285 286 -293 q 289 -269 288 -276 l 319 -86 l 378 -86 l 410 -271 l 413 -303 m 501 372 q 442 531 481 474 q 353 589 403 589 q 298 559 319 589 q 264 485 276 529 q 247 392 251 442 q 242 301 242 342 q 261 140 242 206 q 350 57 288 57 q 450 149 418 57 q 465 212 453 156 q 501 372 478 268 m 792 160 q 778 92 786 126 q 756 31 769 58 q 722 -12 742 4 q 676 -29 703 -29 q 638 -18 654 -29 q 608 11 621 -7 q 587 53 596 29 q 571 101 578 76 q 467 -6 521 21 q 347 -33 414 -33 q 157 60 229 -33 q 79 331 79 158 q 142 571 79 472 q 338 683 213 683 q 453 640 411 683 q 533 517 496 597 l 565 663 l 717 665 l 646 322 q 633 269 639 289 q 626 226 626 249 q 641 124 626 160 q 686 88 656 88 q 708 97 699 88 q 723 117 717 106 q 733 141 729 129 q 740 160 738 153 l 792 160 m 422 932 q 404 904 422 911 q 365 893 386 897 q 326 881 344 889 q 308 853 308 874 q 329 820 308 832 q 375 810 350 808 l 406 811 l 406 763 q 393 751 406 754 q 367 747 381 747 q 269 778 308 747 q 231 868 231 810 q 267 956 231 921 q 354 990 303 990 q 403 976 385 990 q 422 932 422 963 z "},"®":{"ha":849,"x_min":79,"x_max":792,"o":"m 413 -303 q 394 -339 415 -328 q 349 -350 372 -350 q 306 -339 326 -350 q 286 -303 286 -328 q 287 -285 286 -293 q 289 -269 288 -276 l 319 -86 l 378 -86 l 410 -271 l 413 -303 m 501 372 q 442 531 481 474 q 353 589 403 589 q 298 559 319 589 q 264 485 276 529 q 247 392 251 442 q 242 301 242 342 q 261 140 242 206 q 350 57 288 57 q 450 149 418 57 q 465 212 453 156 q 501 372 478 268 m 792 160 q 778 92 786 126 q 756 31 769 58 q 722 -12 742 4 q 676 -29 703 -29 q 638 -18 654 -29 q 608 11 621 -7 q 587 53 596 29 q 571 101 578 76 q 467 -6 521 21 q 347 -33 414 -33 q 157 60 229 -33 q 79 331 79 158 q 142 571 79 472 q 338 683 213 683 q 453 640 411 683 q 533 517 496 597 l 565 663 l 717 665 l 646 322 q 633 269 639 289 q 626 226 626 249 q 641 124 626 160 q 686 88 656 88 q 708 97 699 88 q 723 117 717 106 q 733 141 729 129 q 740 160 738 153 l 792 160 m 497 942 q 481 897 497 919 l 371 747 l 314 747 l 374 933 q 388 965 382 960 q 439 990 404 990 q 497 942 497 990 z "},"¯":{"ha":849,"x_min":79,"x_max":792,"o":"m 413 -303 q 394 -339 415 -328 q 349 -350 372 -350 q 306 -339 326 -350 q 286 -303 286 -328 q 287 -285 286 -293 q 289 -269 288 -276 l 319 -86 l 378 -86 l 410 -271 l 413 -303 m 501 372 q 442 531 481 474 q 353 589 403 589 q 298 559 319 589 q 264 485 276 529 q 247 392 251 442 q 242 301 242 342 q 261 140 242 206 q 350 57 288 57 q 450 149 418 57 q 465 212 453 156 q 501 372 478 268 m 792 160 q 778 92 786 126 q 756 31 769 58 q 722 -12 742 4 q 676 -29 703 -29 q 638 -18 654 -29 q 608 11 621 -7 q 587 53 596 29 q 571 101 578 76 q 467 -6 521 21 q 347 -33 414 -33 q 157 60 229 -33 q 79 331 79 158 q 142 571 79 472 q 338 683 213 683 q 453 640 411 683 q 533 517 496 597 l 565 663 l 717 665 l 646 322 q 633 269 639 289 q 626 226 626 249 q 641 124 626 160 q 686 88 656 88 q 708 97 699 88 q 723 117 717 106 q 733 141 729 129 q 740 160 738 153 l 792 160 m 406 933 q 388 894 406 901 q 348 885 369 886 q 308 880 326 883 q 290 853 290 876 q 298 829 290 838 q 319 817 306 821 q 351 812 333 813 q 389 811 369 811 l 389 750 l 356 747 q 305 753 329 744 q 261 775 281 763 q 215 863 215 806 q 225 911 215 888 q 251 953 235 935 q 290 981 268 971 q 338 992 313 992 q 385 976 364 992 q 406 933 406 961 m 576 942 q 558 897 576 919 l 451 747 l 393 747 l 453 932 q 476 975 461 960 q 518 990 490 990 q 560 979 543 990 q 576 942 576 968 z "},"ˉ":{"ha":849,"x_min":79,"x_max":792,"o":"m 413 -303 q 394 -339 415 -328 q 349 -350 372 -350 q 306 -339 326 -350 q 286 -303 286 -328 q 287 -285 286 -293 q 289 -269 288 -276 l 319 -86 l 378 -86 l 410 -271 l 413 -303 m 501 372 q 442 531 481 474 q 353 589 403 589 q 298 559 319 589 q 264 485 276 529 q 247 392 251 442 q 242 301 242 342 q 261 140 242 206 q 350 57 288 57 q 450 149 418 57 q 465 212 453 156 q 501 372 478 268 m 792 160 q 778 92 786 126 q 756 31 769 58 q 722 -12 742 4 q 676 -29 703 -29 q 638 -18 654 -29 q 608 11 621 -7 q 587 53 596 29 q 571 101 578 76 q 467 -6 521 21 q 347 -33 414 -33 q 157 60 229 -33 q 79 331 79 158 q 142 571 79 472 q 338 683 213 683 q 453 640 411 683 q 533 517 496 597 l 565 663 l 717 665 l 646 322 q 633 269 639 289 q 626 226 626 249 q 641 124 626 160 q 686 88 656 88 q 708 97 699 88 q 723 117 717 106 q 733 141 729 129 q 740 160 738 153 l 792 160 m 406 933 q 388 894 406 901 q 348 885 369 886 q 308 880 326 883 q 290 853 290 876 q 298 829 290 838 q 319 817 306 821 q 351 812 333 813 q 389 811 369 811 l 389 750 l 356 747 q 305 753 329 744 q 261 775 281 763 q 215 863 215 806 q 225 911 215 888 q 251 953 235 935 q 290 981 268 971 q 338 992 313 992 q 385 976 364 992 q 406 933 406 961 m 576 942 q 558 897 576 919 l 451 747 l 393 747 l 453 932 q 476 975 461 960 q 518 990 490 990 q 560 979 543 990 q 576 942 576 968 z "},"°":{"ha":849,"x_min":79,"x_max":792,"o":"m 413 -303 q 394 -339 415 -328 q 349 -350 372 -350 q 306 -339 326 -350 q 286 -303 286 -328 q 287 -285 286 -293 q 289 -269 288 -276 l 319 -86 l 378 -86 l 410 -271 l 413 -303 m 501 372 q 442 531 481 474 q 353 589 403 589 q 298 559 319 589 q 264 485 276 529 q 247 392 251 442 q 242 301 242 342 q 261 140 242 206 q 350 57 288 57 q 450 149 418 57 q 465 212 453 156 q 501 372 478 268 m 792 160 q 778 92 786 126 q 756 31 769 58 q 722 -12 742 4 q 676 -29 703 -29 q 638 -18 654 -29 q 608 11 621 -7 q 587 53 596 29 q 571 101 578 76 q 467 -6 521 21 q 347 -33 414 -33 q 157 60 229 -33 q 79 331 79 158 q 142 571 79 472 q 338 683 213 683 q 453 640 411 683 q 533 517 496 597 l 565 663 l 717 665 l 646 322 q 633 269 639 289 q 626 226 626 249 q 641 124 626 160 q 686 88 656 88 q 708 97 699 88 q 723 117 717 106 q 733 141 729 129 q 740 160 738 153 l 792 160 m 419 868 q 408 819 419 842 q 378 779 397 796 q 335 754 360 763 q 283 747 310 746 l 244 749 l 244 811 l 275 810 q 321 818 301 810 q 340 850 340 826 q 324 879 340 879 l 307 879 q 285 880 299 879 q 260 885 272 881 q 238 901 247 890 q 228 932 228 913 q 247 976 228 961 q 296 990 265 990 q 344 981 321 990 q 383 954 367 971 q 410 915 400 938 q 419 868 419 893 m 590 942 q 574 897 590 919 l 464 747 l 407 747 l 467 933 q 481 965 475 960 q 532 990 497 990 q 590 942 590 990 z "},"±":{"ha":849,"x_min":79,"x_max":792,"o":"m 413 -303 q 394 -339 415 -328 q 349 -350 372 -350 q 306 -339 326 -350 q 286 -303 286 -328 q 287 -285 286 -293 q 289 -269 288 -276 l 319 -86 l 378 -86 l 410 -271 l 413 -303 m 501 372 q 442 531 481 474 q 353 589 403 589 q 298 559 319 589 q 264 485 276 529 q 247 392 251 442 q 242 301 242 342 q 261 140 242 206 q 350 57 288 57 q 450 149 418 57 q 465 212 453 156 q 501 372 478 268 m 792 160 q 778 92 786 126 q 756 31 769 58 q 722 -12 742 4 q 676 -29 703 -29 q 638 -18 654 -29 q 608 11 621 -7 q 587 53 596 29 q 571 101 578 76 q 467 -6 521 21 q 347 -33 414 -33 q 157 60 229 -33 q 79 331 79 158 q 142 571 79 472 q 338 683 213 683 q 453 640 411 683 q 533 517 496 597 l 565 663 l 717 665 l 646 322 q 633 269 639 289 q 626 226 626 249 q 641 124 626 160 q 686 88 656 88 q 708 97 699 88 q 723 117 717 106 q 733 141 729 129 q 740 160 738 153 l 792 160 m 378 747 l 321 747 l 211 897 q 199 918 204 907 q 193 942 193 929 q 253 990 193 990 q 318 933 299 990 l 378 747 z "},"´":{"ha":849,"x_min":79,"x_max":792,"o":"m 413 -303 q 393 -338 415 -328 q 349 -349 371 -349 q 306 -338 325 -349 q 286 -303 286 -328 q 287 -285 286 -293 q 289 -269 288 -276 l 319 -86 l 378 -86 l 410 -271 l 413 -303 m 501 371 q 442 532 482 475 q 353 589 403 589 q 300 560 321 589 q 266 488 279 531 q 247 394 253 444 q 242 300 242 343 q 261 140 242 206 q 350 57 288 57 q 450 147 418 57 q 465 210 453 154 q 501 371 478 265 m 792 160 q 778 92 786 126 q 756 31 769 58 q 722 -12 742 4 q 676 -29 703 -29 q 638 -18 654 -29 q 608 11 621 -7 q 587 53 596 29 q 571 101 578 76 q 467 -6 521 21 q 347 -33 414 -33 q 157 60 229 -33 q 79 331 79 158 q 142 571 79 472 q 338 683 213 683 q 453 640 411 683 q 533 517 496 597 l 565 663 l 717 665 l 646 322 q 633 269 639 289 q 626 226 626 249 q 641 124 626 160 q 686 88 656 88 q 708 97 699 88 q 723 117 717 106 q 733 141 729 129 q 740 160 738 153 l 792 160 m 567 942 q 528 837 554 875 q 453 790 501 799 q 413 794 438 790 q 365 803 389 799 q 324 811 342 807 q 304 815 306 815 l 283 813 q 267 801 272 811 q 253 763 263 792 l 193 763 q 240 872 217 840 q 329 918 274 918 q 367 913 343 918 q 413 903 390 908 q 452 894 436 899 q 465 889 468 889 q 492 901 485 889 q 511 942 500 914 l 567 942 z "},"µ":{"ha":849,"x_min":79,"x_max":792,"o":"m 413 -303 q 393 -338 415 -328 q 349 -349 371 -349 q 307 -337 328 -349 q 286 -303 286 -326 q 287 -283 286 -292 q 289 -268 288 -275 l 319 -85 l 378 -85 l 410 -269 l 413 -303 m 501 374 q 442 535 481 478 q 353 592 403 592 q 300 563 321 592 q 266 490 279 533 q 247 397 253 447 q 242 303 242 346 q 261 142 242 207 q 350 58 288 58 q 450 150 418 58 q 465 213 453 157 q 501 374 478 269 m 792 161 q 778 94 786 128 q 756 33 769 60 q 722 -11 742 6 q 676 -28 703 -28 q 638 -17 654 -28 q 608 13 621 -6 q 587 54 596 31 q 571 103 578 78 q 467 -5 521 22 q 347 -32 414 -32 q 157 61 229 -32 q 79 333 79 160 q 142 574 79 475 q 338 686 213 686 q 453 643 411 686 q 533 519 496 600 l 565 665 l 717 668 l 646 325 q 632 263 638 285 q 626 228 626 240 q 641 125 626 161 q 686 89 656 89 q 708 98 699 89 q 723 119 717 107 q 733 142 729 131 q 740 161 738 154 l 792 161 m 429 897 q 409 855 429 868 q 360 842 389 842 l 338 843 l 324 842 l 317 835 q 322 823 310 828 q 345 816 333 818 q 360 814 357 814 l 414 815 l 414 753 l 378 750 q 328 754 351 747 q 286 771 304 761 q 238 850 238 799 q 270 926 238 899 q 351 953 303 953 q 408 939 386 953 q 429 897 429 925 m 538 1101 q 494 996 526 1035 q 410 957 463 957 q 372 964 394 957 q 326 980 349 971 q 286 996 304 989 q 264 1003 268 1003 q 239 994 250 1003 q 214 953 228 986 l 158 953 q 201 1062 169 1024 q 286 1100 232 1100 q 323 1092 300 1100 q 369 1075 346 1085 q 409 1058 392 1065 q 431 1050 426 1050 q 450 1056 442 1050 q 465 1069 458 1061 q 476 1087 471 1078 q 483 1101 481 1096 l 538 1101 z "},"μ":{"ha":849,"x_min":79,"x_max":792,"o":"m 413 -303 q 393 -338 415 -328 q 349 -349 371 -349 q 307 -337 328 -349 q 286 -303 286 -326 q 287 -283 286 -292 q 289 -268 288 -275 l 319 -85 l 378 -85 l 410 -269 l 413 -303 m 501 374 q 442 535 481 478 q 353 592 403 592 q 300 563 321 592 q 266 490 279 533 q 247 397 253 447 q 242 303 242 346 q 261 142 242 207 q 350 58 288 58 q 450 150 418 58 q 465 213 453 157 q 501 374 478 269 m 792 161 q 778 94 786 128 q 756 33 769 60 q 722 -11 742 6 q 676 -28 703 -28 q 638 -17 654 -28 q 608 13 621 -6 q 587 54 596 31 q 571 103 578 78 q 467 -5 521 22 q 347 -32 414 -32 q 157 61 229 -32 q 79 333 79 160 q 142 574 79 475 q 338 686 213 686 q 453 643 411 686 q 533 519 496 600 l 565 665 l 717 668 l 646 325 q 632 263 638 285 q 626 228 626 240 q 641 125 626 161 q 686 89 656 89 q 708 98 699 89 q 723 119 717 107 q 733 142 729 131 q 740 161 738 154 l 792 161 m 429 897 q 409 855 429 868 q 360 842 389 842 l 338 843 l 324 842 l 317 835 q 322 823 310 828 q 345 816 333 818 q 360 814 357 814 l 414 815 l 414 753 l 378 750 q 328 754 351 747 q 286 771 304 761 q 238 850 238 799 q 270 926 238 899 q 351 953 303 953 q 408 939 386 953 q 429 897 429 925 m 538 1101 q 494 996 526 1035 q 410 957 463 957 q 372 964 394 957 q 326 980 349 971 q 286 996 304 989 q 264 1003 268 1003 q 239 994 250 1003 q 214 953 228 986 l 158 953 q 201 1062 169 1024 q 286 1100 232 1100 q 323 1092 300 1100 q 369 1075 346 1085 q 409 1058 392 1065 q 431 1050 426 1050 q 450 1056 442 1050 q 465 1069 458 1061 q 476 1087 471 1078 q 483 1101 481 1096 l 538 1101 z "},"¶":{"ha":849,"x_min":79,"x_max":792,"o":"m 413 -303 q 393 -338 415 -328 q 349 -349 371 -349 q 307 -337 328 -349 q 286 -303 286 -326 q 287 -283 286 -292 q 289 -268 288 -275 l 319 -85 l 378 -85 l 410 -269 l 413 -303 m 501 374 q 442 535 481 478 q 353 592 403 592 q 300 563 321 592 q 266 490 279 533 q 247 397 253 447 q 242 303 242 346 q 261 142 242 207 q 350 58 288 58 q 450 150 418 58 q 465 213 453 157 q 501 374 478 269 m 792 161 q 778 94 786 128 q 756 33 769 60 q 722 -11 742 6 q 676 -28 703 -28 q 638 -17 654 -28 q 608 13 621 -6 q 587 54 596 31 q 571 103 578 78 q 467 -5 521 22 q 347 -32 414 -32 q 157 61 229 -32 q 79 333 79 160 q 142 574 79 475 q 338 686 213 686 q 453 643 411 686 q 533 519 496 600 l 565 665 l 717 668 l 646 325 q 632 263 638 285 q 626 228 626 240 q 641 125 626 161 q 686 89 656 89 q 708 98 699 89 q 723 119 717 107 q 733 142 729 131 q 740 161 738 154 l 792 161 m 442 851 q 429 807 442 826 q 397 774 417 788 q 353 753 378 760 q 306 750 329 747 l 265 753 l 265 815 l 297 814 q 314 813 304 813 l 326 813 q 363 833 363 813 q 338 843 363 843 l 324 842 q 272 855 294 839 q 249 899 249 871 q 272 943 249 928 q 326 958 294 958 q 369 950 349 958 q 406 927 390 942 q 432 893 422 913 q 442 851 442 874 m 538 1101 q 524 1045 533 1072 q 498 997 514 1018 q 460 965 482 976 q 411 953 439 953 q 372 960 396 953 q 325 978 349 968 q 283 995 301 988 q 261 1003 264 1003 q 235 991 244 1003 q 214 953 225 979 l 158 953 q 201 1062 169 1024 q 286 1100 232 1100 q 323 1092 300 1100 q 369 1075 346 1085 q 409 1058 392 1065 q 431 1050 426 1050 q 450 1056 442 1050 q 465 1069 458 1061 q 476 1087 471 1078 q 483 1101 481 1096 l 538 1101 z "},"·":{"ha":772,"x_min":107,"x_max":701,"o":"m 556 328 q 540 423 556 378 q 499 501 524 468 q 443 554 474 535 q 383 574 413 574 q 326 570 350 574 q 287 556 303 567 q 264 525 271 544 q 257 474 257 506 l 260 199 q 295 92 261 128 q 392 56 329 56 q 513 126 471 56 q 556 328 556 197 m 701 349 q 608 72 701 178 q 390 -26 521 -26 q 316 -17 344 -26 q 261 13 288 -7 l 263 -62 q 254 -251 263 -147 l 107 -251 q 112 -211 110 -229 q 115 -176 114 -193 q 117 -138 117 -158 q 118 -93 118 -118 l 118 -10 l 114 318 q 129 463 113 397 q 178 574 146 528 q 406 685 253 685 q 624 588 543 685 q 701 349 701 493 m 464 932 q 446 904 464 911 q 407 893 428 897 q 368 881 386 889 q 350 853 350 874 q 371 820 350 832 q 417 810 392 808 l 447 811 l 447 763 q 435 751 447 754 q 408 747 422 747 q 312 778 350 747 q 274 868 274 810 q 308 956 274 921 q 396 990 343 990 q 444 976 425 990 q 464 932 464 961 z "},"∙":{"ha":772,"x_min":107,"x_max":701,"o":"m 556 328 q 540 423 556 378 q 499 501 524 468 q 443 554 474 535 q 383 574 413 574 q 326 570 350 574 q 287 556 303 567 q 264 525 271 544 q 257 474 257 506 l 260 199 q 295 92 261 128 q 392 56 329 56 q 513 126 471 56 q 556 328 556 197 m 701 349 q 608 72 701 178 q 390 -26 521 -26 q 316 -17 344 -26 q 261 13 288 -7 l 263 -62 q 254 -251 263 -147 l 107 -251 q 112 -211 110 -229 q 115 -176 114 -193 q 117 -138 117 -158 q 118 -93 118 -118 l 118 -10 l 114 318 q 129 463 113 397 q 178 574 146 528 q 406 685 253 685 q 624 588 543 685 q 701 349 701 493 m 464 932 q 446 904 464 911 q 407 893 428 897 q 368 881 386 889 q 350 853 350 874 q 371 820 350 832 q 417 810 392 808 l 447 811 l 447 763 q 435 751 447 754 q 408 747 422 747 q 312 778 350 747 q 274 868 274 810 q 308 956 274 921 q 396 990 343 990 q 444 976 425 990 q 464 932 464 961 z "},"¸":{"ha":772,"x_min":107,"x_max":701,"o":"m 556 328 q 540 423 556 378 q 499 501 524 468 q 443 554 474 535 q 383 574 413 574 q 326 570 350 574 q 287 556 303 567 q 264 525 271 544 q 257 474 257 506 l 260 199 q 295 92 261 128 q 392 56 329 56 q 513 126 471 56 q 556 328 556 197 m 701 349 q 608 72 701 178 q 390 -26 521 -26 q 316 -17 344 -26 q 261 13 288 -7 l 263 -62 q 254 -251 263 -147 l 107 -251 q 112 -211 110 -229 q 115 -176 114 -193 q 117 -138 117 -158 q 118 -93 118 -118 l 118 -10 l 114 318 q 129 463 113 397 q 178 574 146 528 q 406 685 253 685 q 624 588 543 685 q 701 349 701 493 m 490 868 q 452 780 490 813 q 356 747 414 747 q 317 763 317 747 l 317 811 l 347 810 q 393 819 372 810 q 414 853 414 829 q 396 881 414 874 q 357 893 378 889 q 318 904 336 897 q 300 932 300 911 q 319 976 300 961 q 369 990 339 990 q 455 955 419 990 q 490 868 490 919 z "},"º":{"ha":772,"x_min":15,"x_max":683,"o":"m 539 -250 q 519 -153 526 -189 q 510 -87 513 -118 q 506 -17 507 -56 q 506 88 506 21 l 506 456 q 433 564 506 564 q 363 547 392 564 q 296 494 333 531 l 296 -6 l 150 -6 l 150 461 q 146 539 150 522 q 111 571 138 571 q 90 561 97 571 q 80 539 83 551 q 75 513 76 526 q 72 492 74 500 l 22 489 q 17 518 19 508 q 15 526 15 528 q 53 644 15 606 q 161 683 90 683 q 248 661 222 683 q 282 579 274 639 q 364 650 325 626 q 479 683 418 683 q 651 450 651 683 l 651 58 q 660 -133 651 -82 q 672 -194 667 -165 q 683 -250 678 -224 l 539 -250 m 460 868 q 420 780 460 813 q 325 747 381 747 q 286 763 286 747 l 286 811 l 317 810 q 363 819 342 810 q 383 853 383 829 q 365 881 383 874 q 326 893 347 889 q 288 904 306 897 q 269 932 269 911 q 289 976 269 961 q 338 990 308 990 q 424 956 388 990 q 460 868 460 921 z "},"»":{"ha":772,"x_min":15,"x_max":683,"o":"m 539 -250 q 519 -153 526 -189 q 510 -87 513 -118 q 506 -17 507 -56 q 506 88 506 21 l 506 456 q 433 564 506 564 q 363 547 392 564 q 296 494 333 531 l 296 -6 l 150 -6 l 150 461 q 146 539 150 522 q 111 571 138 571 q 90 561 97 571 q 80 539 83 551 q 75 513 76 526 q 72 492 74 500 l 22 489 q 17 518 19 508 q 15 526 15 528 q 53 644 15 606 q 161 683 90 683 q 248 661 222 683 q 282 579 274 639 q 364 650 325 626 q 479 683 418 683 q 651 450 651 683 l 651 58 q 660 -133 651 -82 q 672 -194 667 -165 q 683 -250 678 -224 l 539 -250 m 468 942 q 451 897 468 918 l 342 747 l 285 747 l 344 933 q 358 965 353 960 q 410 990 375 990 q 453 977 439 990 q 468 942 468 964 z "},"¿":{"ha":772,"x_min":15,"x_max":683,"o":"m 471 931 q 401 990 461 990 q 346 939 346 990 q 350 919 346 928 q 361 899 354 910 l 443 747 l 501 747 l 471 931 m 357 932 q 340 906 357 913 q 301 894 322 899 q 262 882 279 889 q 244 856 244 875 q 263 822 244 836 q 303 810 281 807 l 340 813 l 340 750 l 306 747 q 254 753 278 744 q 211 776 231 763 q 167 867 167 810 q 176 915 167 892 q 203 954 186 938 q 242 981 219 971 q 289 992 264 992 l 307 989 q 342 970 328 986 q 357 932 357 954 m 683 -250 q 672 -194 678 -224 q 660 -133 667 -165 q 651 58 651 -82 l 651 450 q 479 683 651 683 q 364 650 418 683 q 282 579 325 626 q 248 661 274 639 q 161 683 222 683 q 53 644 90 683 q 15 526 15 606 q 17 518 15 528 q 22 489 19 508 l 72 492 q 75 513 74 500 q 80 539 76 526 q 90 561 83 551 q 111 571 97 571 q 146 539 138 571 q 150 461 150 522 l 150 -6 l 296 -6 l 296 494 q 363 547 333 531 q 433 564 392 564 q 506 456 506 564 l 506 88 q 506 -17 506 21 q 510 -87 507 -56 q 519 -153 513 -118 q 539 -250 526 -189 l 683 -250 z "},"À":{"ha":772,"x_min":15,"x_max":683,"o":"m 539 -250 q 519 -153 526 -189 q 510 -87 513 -118 q 506 -17 507 -56 q 506 88 506 21 l 506 456 q 433 564 506 564 q 363 547 392 564 q 296 494 333 531 l 296 -6 l 150 -6 l 150 461 q 146 539 150 522 q 111 571 138 571 q 90 561 97 571 q 80 539 83 551 q 75 513 76 526 q 72 492 74 500 l 22 489 q 17 518 19 508 q 15 526 15 528 q 53 644 15 606 q 161 683 90 683 q 248 661 222 683 q 282 579 274 639 q 364 650 325 626 q 479 683 418 683 q 651 450 651 683 l 651 58 q 660 -133 651 -82 q 672 -194 667 -165 q 683 -250 678 -224 l 539 -250 m 369 868 q 330 778 369 813 q 232 747 290 744 l 193 749 l 193 811 l 226 810 q 272 819 253 808 q 292 853 292 829 q 274 882 292 875 q 236 893 257 889 q 198 903 215 897 q 181 931 181 910 q 199 974 181 958 q 246 990 218 990 q 294 981 271 990 q 333 954 317 971 q 360 915 350 938 q 369 868 369 893 m 515 747 l 456 747 l 374 899 q 363 918 367 910 q 360 939 360 926 q 415 990 360 990 q 485 931 475 990 l 515 747 z "},"Á":{"ha":772,"x_min":15,"x_max":683,"o":"m 539 -250 q 519 -153 526 -189 q 510 -87 513 -118 q 506 -17 507 -56 q 506 88 506 21 l 506 454 q 433 564 506 564 q 364 546 393 564 q 296 494 335 528 l 296 -6 l 150 -6 l 150 460 q 146 538 150 521 q 111 571 138 571 q 90 561 97 571 q 80 539 83 551 q 75 513 76 526 q 72 492 74 500 l 22 489 q 17 515 19 507 q 15 525 15 524 q 161 683 15 683 q 247 660 222 683 q 282 578 272 636 q 385 663 339 642 q 479 683 431 683 q 651 450 651 683 l 651 58 q 660 -133 651 -82 q 672 -194 667 -165 q 683 -250 678 -224 l 539 -250 m 550 940 q 513 836 539 874 q 436 790 486 799 q 398 794 422 790 q 350 803 374 799 q 308 811 326 807 q 289 815 290 815 l 268 813 q 252 801 257 811 q 238 763 247 792 l 179 763 q 225 872 201 840 q 314 918 258 918 q 351 913 328 918 q 398 903 375 908 q 437 894 421 899 q 450 889 453 889 q 477 901 469 889 q 494 940 485 914 l 550 940 z "},"Â":{"ha":772,"x_min":15,"x_max":683,"o":"m 539 -249 q 519 -152 526 -187 q 510 -85 513 -117 q 506 -16 507 -54 q 506 89 506 22 l 506 457 q 433 567 506 567 q 364 549 393 567 q 296 497 335 531 l 296 -4 l 150 -4 l 150 463 q 146 540 150 524 q 111 574 138 574 q 90 564 97 574 q 80 542 83 554 q 75 516 76 529 q 72 494 74 503 l 22 492 q 17 518 19 510 q 15 528 15 526 q 161 686 15 686 q 248 664 222 686 q 282 582 274 642 q 364 653 325 629 q 479 686 418 686 q 651 451 651 686 l 651 60 q 660 -132 651 -81 q 672 -193 667 -164 q 683 -249 678 -222 l 539 -249 m 454 897 q 433 856 454 868 q 385 843 411 843 l 363 844 l 347 843 l 340 835 q 342 826 336 829 q 356 819 347 822 q 374 815 365 817 q 385 814 383 814 l 438 815 l 438 753 l 401 750 q 351 754 375 747 q 311 771 328 761 q 263 851 263 799 q 295 926 263 899 q 375 953 328 953 q 431 938 408 953 q 454 897 454 924 m 561 1101 q 518 996 550 1035 q 433 957 486 957 q 396 964 418 957 q 351 980 374 971 q 310 996 328 989 q 289 1003 293 1003 q 264 994 275 1003 q 239 953 253 986 l 182 953 q 226 1060 194 1021 q 310 1100 257 1100 q 342 1092 322 1100 q 382 1075 361 1085 q 422 1058 403 1065 q 454 1050 442 1050 q 472 1052 465 1050 q 483 1060 478 1054 q 494 1075 489 1065 q 507 1101 499 1085 l 561 1101 z "},"Ã":{"ha":772,"x_min":15,"x_max":683,"o":"m 539 -249 q 519 -152 526 -187 q 510 -85 513 -117 q 506 -16 507 -54 q 506 89 506 22 l 506 457 q 433 567 506 567 q 364 549 393 567 q 296 497 335 531 l 296 -4 l 150 -4 l 150 463 q 146 540 150 524 q 111 574 138 574 q 90 564 97 574 q 80 542 83 554 q 75 516 76 529 q 72 494 74 503 l 22 492 q 17 518 19 510 q 15 528 15 526 q 161 686 15 686 q 248 664 222 686 q 282 582 274 642 q 364 653 325 629 q 479 686 418 686 q 651 451 651 686 l 651 60 q 660 -132 651 -81 q 672 -193 667 -164 q 683 -249 678 -222 l 539 -249 m 453 853 q 441 809 453 829 q 410 775 429 789 q 367 754 392 761 q 317 750 343 747 l 276 753 l 276 815 l 308 814 q 325 813 315 813 l 338 813 q 374 833 374 813 q 349 844 374 844 l 335 843 q 281 856 303 840 q 260 899 260 872 q 283 943 260 928 q 338 958 306 958 q 379 950 358 958 q 417 927 400 942 q 443 893 433 913 q 453 853 453 874 m 547 1101 q 507 997 538 1036 q 422 953 471 953 q 383 960 407 953 q 336 978 360 968 q 294 995 313 988 q 272 1003 275 1003 q 244 988 254 1003 q 225 953 233 972 l 169 953 q 212 1062 181 1024 q 297 1100 243 1100 q 334 1092 311 1100 q 380 1075 357 1085 q 420 1058 403 1065 q 442 1050 438 1050 q 463 1056 454 1050 q 476 1069 471 1061 q 486 1087 482 1078 q 493 1101 490 1096 l 547 1101 z "},"Ä":{"ha":278,"x_min":74,"x_max":203,"o":"m 200 -303 q 181 -339 203 -328 q 136 -350 160 -350 q 94 -339 114 -350 q 74 -303 74 -328 q 74 -285 74 -293 q 76 -269 75 -276 l 107 -86 l 165 -86 l 197 -271 l 200 -303 z "},"Å":{"ha":772,"x_min":15,"x_max":683,"o":"m 279 -303 q 260 -339 282 -328 q 215 -350 239 -350 q 174 -339 194 -350 q 153 -303 153 -328 q 153 -285 153 -293 q 156 -269 154 -276 l 186 -86 l 244 -86 l 276 -271 l 279 -303 m 539 -251 q 519 -155 526 -190 q 510 -88 513 -119 q 506 -19 507 -57 q 506 86 506 19 l 506 454 q 433 564 506 564 q 364 546 393 564 q 296 494 335 528 l 296 -7 l 150 -7 l 150 460 q 146 538 150 521 q 111 571 138 571 q 90 561 97 571 q 80 539 83 551 q 75 513 76 526 q 72 492 74 500 l 22 489 q 17 515 19 507 q 15 525 15 524 q 161 683 15 683 q 213 678 192 683 q 248 660 235 672 q 269 627 261 647 q 282 578 278 607 q 385 663 339 642 q 479 683 431 683 q 651 449 651 683 l 651 57 q 660 -135 651 -83 q 672 -196 667 -167 q 683 -251 678 -225 l 539 -251 m 447 932 q 429 904 447 911 q 390 893 411 897 q 351 881 369 889 q 333 853 333 874 q 353 820 333 832 q 399 810 374 808 l 429 811 l 429 763 q 392 747 429 747 q 294 778 333 747 q 256 868 256 810 q 290 956 256 921 q 378 990 325 990 q 428 976 408 990 q 447 932 447 963 z "},"Æ":{"ha":772,"x_min":15,"x_max":683,"o":"m 279 -303 q 260 -339 282 -328 q 215 -350 239 -350 q 174 -339 194 -350 q 153 -303 153 -328 q 153 -285 153 -293 q 156 -269 154 -276 l 186 -86 l 244 -86 l 276 -271 l 279 -303 m 539 -251 q 519 -155 526 -190 q 510 -88 513 -119 q 506 -19 507 -57 q 506 86 506 19 l 506 454 q 433 564 506 564 q 364 546 393 564 q 296 494 335 528 l 296 -7 l 150 -7 l 150 460 q 146 538 150 521 q 111 571 138 571 q 90 561 97 571 q 80 539 83 551 q 75 513 76 526 q 72 492 74 500 l 22 489 q 17 515 19 507 q 15 525 15 524 q 161 683 15 683 q 213 678 192 683 q 248 660 235 672 q 269 627 261 647 q 282 578 278 607 q 385 663 339 642 q 479 683 431 683 q 651 449 651 683 l 651 57 q 660 -135 651 -83 q 672 -196 667 -167 q 683 -251 678 -225 l 539 -251 m 460 868 q 420 780 460 813 q 325 747 381 747 q 286 763 286 747 l 286 811 l 317 810 q 363 819 342 810 q 383 853 383 829 q 365 881 383 874 q 326 893 347 889 q 288 904 306 897 q 269 932 269 911 q 289 976 269 961 q 338 990 308 990 q 424 956 388 990 q 460 868 460 921 z "},"Ç":{"ha":772,"x_min":15,"x_max":683,"o":"m 279 -303 q 260 -339 282 -328 q 215 -350 239 -350 q 174 -339 194 -350 q 153 -303 153 -328 q 153 -285 153 -293 q 156 -269 154 -276 l 186 -86 l 244 -86 l 276 -271 l 279 -303 m 539 -251 q 519 -155 526 -190 q 510 -88 513 -119 q 506 -19 507 -57 q 506 86 506 19 l 506 454 q 433 564 506 564 q 364 546 393 564 q 296 494 335 528 l 296 -7 l 150 -7 l 150 460 q 146 538 150 521 q 111 571 138 571 q 90 561 97 571 q 80 539 83 551 q 75 513 76 526 q 72 492 74 500 l 22 489 q 17 515 19 507 q 15 525 15 524 q 161 683 15 683 q 213 678 192 683 q 248 660 235 672 q 269 627 261 647 q 282 578 278 607 q 385 663 339 642 q 479 683 431 683 q 651 449 651 683 l 651 57 q 660 -135 651 -83 q 672 -196 667 -167 q 683 -251 678 -225 l 539 -251 m 468 942 q 451 897 468 919 l 342 747 l 285 747 l 344 933 q 358 965 353 960 q 410 990 375 990 q 468 942 468 990 z "},"È":{"ha":772,"x_min":15,"x_max":683,"o":"m 279 -303 q 260 -339 282 -328 q 215 -350 239 -350 q 174 -339 194 -350 q 153 -303 153 -328 q 153 -285 153 -293 q 156 -269 154 -276 l 186 -86 l 244 -86 l 276 -271 l 279 -303 m 539 -251 q 519 -155 526 -190 q 510 -88 513 -119 q 506 -19 507 -57 q 506 86 506 19 l 506 454 q 433 564 506 564 q 364 546 393 564 q 296 494 335 528 l 296 -7 l 150 -7 l 150 460 q 146 538 150 521 q 111 571 138 571 q 90 561 97 571 q 80 539 83 551 q 75 513 76 526 q 72 492 74 500 l 22 489 q 17 515 19 507 q 15 525 15 524 q 161 683 15 683 q 213 678 192 683 q 248 660 235 672 q 269 627 261 647 q 282 578 278 607 q 385 663 339 642 q 479 683 431 683 q 651 449 651 683 l 651 57 q 660 -135 651 -83 q 672 -196 667 -167 q 683 -251 678 -225 l 539 -251 m 390 933 q 372 894 390 901 q 333 885 354 886 q 293 880 311 883 q 275 853 275 876 q 283 829 275 838 q 304 817 290 821 q 336 812 318 813 q 374 811 354 811 l 374 750 l 339 747 q 288 753 311 744 q 244 775 264 763 q 200 863 200 807 q 210 911 200 888 q 236 953 219 935 q 275 981 253 971 q 322 992 297 992 q 369 976 349 992 q 390 933 390 961 m 560 942 q 543 897 560 919 l 435 747 l 378 747 l 438 932 q 460 976 447 961 q 503 990 474 990 q 544 979 528 990 q 560 942 560 968 z "},"É":{"ha":772,"x_min":15,"x_max":683,"o":"m 279 -303 q 260 -339 282 -328 q 215 -350 239 -350 q 174 -339 194 -350 q 153 -303 153 -328 q 153 -285 153 -293 q 156 -269 154 -276 l 186 -86 l 244 -86 l 276 -271 l 279 -303 m 539 -251 q 519 -155 526 -190 q 510 -88 513 -119 q 506 -19 507 -57 q 506 86 506 19 l 506 454 q 433 564 506 564 q 364 546 393 564 q 296 494 335 528 l 296 -7 l 150 -7 l 150 460 q 146 538 150 521 q 111 571 138 571 q 90 561 97 571 q 80 539 83 551 q 75 513 76 526 q 72 492 74 500 l 22 489 q 17 515 19 507 q 15 525 15 524 q 161 683 15 683 q 213 678 192 683 q 248 660 235 672 q 269 627 261 647 q 282 578 278 607 q 385 663 339 642 q 479 683 431 683 q 651 449 651 683 l 651 57 q 660 -135 651 -83 q 672 -196 667 -167 q 683 -251 678 -225 l 539 -251 m 417 868 q 406 819 417 842 q 376 779 394 796 q 332 754 357 763 q 281 747 307 746 l 242 749 l 242 811 l 272 810 q 322 821 307 808 q 338 850 338 833 q 321 879 338 879 l 304 879 q 283 880 296 879 q 257 885 269 881 q 235 901 244 890 q 226 932 226 913 q 245 976 226 961 q 294 990 264 990 q 342 981 319 990 q 381 954 364 971 q 407 915 397 938 q 417 868 417 893 m 588 942 q 571 897 588 919 l 461 747 l 404 747 l 464 933 q 478 965 472 960 q 529 990 494 990 q 588 942 588 990 z "},"Ê":{"ha":772,"x_min":15,"x_max":683,"o":"m 279 -303 q 260 -339 282 -328 q 215 -350 239 -350 q 174 -339 194 -350 q 153 -303 153 -328 q 153 -285 153 -293 q 156 -269 154 -276 l 186 -86 l 244 -86 l 276 -271 l 279 -303 m 539 -251 q 519 -155 526 -190 q 510 -88 513 -119 q 506 -19 507 -57 q 506 86 506 19 l 506 454 q 433 564 506 564 q 364 546 393 564 q 296 494 335 528 l 296 -7 l 150 -7 l 150 460 q 146 538 150 521 q 111 571 138 571 q 90 561 97 571 q 80 539 83 551 q 75 513 76 526 q 72 492 74 500 l 22 489 q 17 515 19 507 q 15 525 15 524 q 161 683 15 683 q 213 678 192 683 q 248 660 235 672 q 269 627 261 647 q 282 578 278 607 q 385 663 339 642 q 479 683 431 683 q 651 449 651 683 l 651 57 q 660 -135 651 -83 q 672 -196 667 -167 q 683 -251 678 -225 l 539 -251 m 428 747 l 371 747 l 263 897 q 250 918 256 907 q 244 942 244 929 q 303 990 244 990 q 344 976 331 990 q 368 933 358 963 l 428 747 z "},"Ë":{"ha":772,"x_min":15,"x_max":683,"o":"m 471 931 q 401 990 461 990 q 346 939 346 990 q 352 915 346 924 q 361 899 358 906 l 443 747 l 501 747 l 471 931 m 357 932 q 340 906 357 913 q 301 894 322 899 q 262 882 279 889 q 244 856 244 875 q 263 822 244 836 q 303 810 281 807 l 340 813 l 340 750 l 306 747 q 254 753 278 744 q 211 776 231 763 q 167 867 167 810 q 176 915 167 892 q 203 954 186 938 q 242 981 219 971 q 289 992 264 992 l 307 989 q 342 970 328 986 q 357 932 357 954 m 683 -251 q 672 -196 678 -225 q 660 -135 667 -167 q 651 57 651 -83 l 651 449 q 479 683 651 683 q 385 663 431 683 q 282 578 339 642 q 269 627 278 607 q 248 660 261 647 q 213 678 235 672 q 161 683 192 683 q 15 525 15 683 q 17 515 15 524 q 22 489 19 507 l 72 492 q 75 513 74 500 q 80 539 76 526 q 90 561 83 551 q 111 571 97 571 q 146 538 138 571 q 150 460 150 521 l 150 -7 l 296 -7 l 296 494 q 364 546 335 528 q 433 564 393 564 q 506 454 506 564 l 506 86 q 506 -19 506 19 q 510 -88 507 -57 q 519 -155 513 -119 q 539 -251 526 -190 l 683 -251 m 276 -271 l 244 -86 l 186 -86 l 156 -269 q 153 -285 154 -276 q 153 -303 153 -293 q 174 -339 153 -328 q 215 -350 194 -350 q 260 -339 239 -350 q 279 -303 282 -328 l 276 -271 z "},"Ì":{"ha":772,"x_min":15,"x_max":683,"o":"m 279 -303 q 260 -339 282 -328 q 215 -350 239 -350 q 174 -339 194 -350 q 153 -303 153 -328 q 153 -285 153 -293 q 156 -269 154 -276 l 186 -86 l 244 -86 l 276 -271 l 279 -303 m 539 -251 q 519 -155 526 -190 q 510 -88 513 -119 q 506 -19 507 -57 q 506 86 506 19 l 506 454 q 433 564 506 564 q 364 546 393 564 q 296 494 335 528 l 296 -7 l 150 -7 l 150 460 q 146 538 150 521 q 111 571 138 571 q 90 561 97 571 q 80 539 83 551 q 75 513 76 526 q 72 492 74 500 l 22 489 q 17 515 19 507 q 15 525 15 524 q 161 683 15 683 q 213 678 192 683 q 248 660 235 672 q 269 627 261 647 q 282 578 278 607 q 385 663 339 642 q 479 683 431 683 q 651 449 651 683 l 651 57 q 660 -135 651 -83 q 672 -196 667 -167 q 683 -251 678 -225 l 539 -251 m 369 868 q 330 778 369 813 q 232 747 290 744 l 193 749 l 193 811 l 226 810 q 272 819 253 808 q 292 853 292 829 q 274 882 292 875 q 236 893 257 889 q 198 903 215 897 q 181 931 181 910 q 199 976 181 961 q 246 990 217 990 q 294 981 271 990 q 333 954 317 971 q 360 915 350 938 q 369 868 369 893 m 515 747 l 456 747 l 374 899 q 363 919 367 910 q 360 939 360 928 q 415 990 360 990 q 485 931 475 990 l 515 747 z "},"Í":{"ha":772,"x_min":15,"x_max":683,"o":"m 279 -303 q 260 -338 282 -328 q 215 -349 238 -349 q 173 -338 193 -349 q 153 -303 153 -328 q 153 -285 153 -293 q 156 -269 154 -276 l 186 -86 l 244 -86 l 276 -271 l 279 -303 m 539 -251 q 519 -155 526 -190 q 510 -88 513 -119 q 506 -19 507 -57 q 506 86 506 19 l 506 454 q 433 563 506 563 q 363 546 392 563 q 296 493 333 529 l 296 -7 l 150 -7 l 150 460 q 146 538 150 521 q 111 569 138 569 q 91 560 99 569 q 80 538 83 551 q 75 512 76 525 q 72 490 74 499 l 22 489 q 17 515 19 507 q 15 525 15 524 q 161 683 15 683 q 247 660 222 683 q 282 578 272 636 q 385 662 340 640 q 479 683 431 683 q 651 449 651 683 l 651 57 q 660 -135 651 -83 q 672 -196 667 -167 q 683 -251 678 -225 l 539 -251 m 550 942 q 513 837 539 875 q 436 790 486 799 q 398 794 422 790 q 350 803 374 799 q 308 811 326 807 q 289 815 290 815 l 268 813 q 252 801 257 811 q 238 763 247 792 l 179 763 q 225 872 201 840 q 314 918 258 918 q 351 913 328 918 q 398 903 375 908 q 437 894 421 899 q 450 889 453 889 q 477 901 469 889 q 494 942 485 914 l 550 942 z "},"Î":{"ha":772,"x_min":15,"x_max":683,"o":"m 279 -303 q 260 -338 282 -328 q 215 -349 238 -349 q 174 -337 196 -349 q 153 -303 153 -326 q 153 -283 153 -292 q 156 -268 154 -275 l 186 -85 l 244 -85 l 276 -269 l 279 -303 m 539 -250 q 523 -174 529 -204 q 513 -118 517 -143 q 507 -70 508 -93 q 506 -17 506 -47 l 506 88 l 506 457 q 433 565 506 565 q 363 549 392 565 q 296 496 333 532 l 296 -6 l 150 -6 l 150 463 q 146 540 150 524 q 111 572 138 572 q 91 563 99 572 q 80 541 83 554 q 75 515 76 528 q 72 493 74 501 l 22 490 q 17 519 19 510 q 15 528 15 529 q 161 686 15 686 q 247 663 222 686 q 282 581 272 639 q 385 665 340 643 q 479 686 431 686 q 651 451 651 686 l 651 58 q 660 -133 651 -82 q 672 -194 667 -165 q 683 -250 678 -224 l 539 -250 m 454 897 q 438 857 454 872 q 385 842 421 842 l 363 843 l 347 842 l 340 835 q 345 823 333 828 q 369 816 357 818 q 385 814 382 814 l 438 815 l 438 753 l 401 750 q 353 754 376 747 q 311 771 329 761 q 263 850 263 799 q 295 926 263 899 q 375 953 328 953 q 431 938 408 953 q 454 897 454 924 m 561 1101 q 518 996 550 1035 q 433 957 486 957 q 396 964 418 957 q 351 980 374 971 q 310 996 328 989 q 289 1003 293 1003 q 264 994 275 1003 q 239 953 253 986 l 182 953 q 226 1060 194 1021 q 310 1100 257 1100 q 342 1092 322 1100 q 382 1075 361 1085 q 422 1058 403 1065 q 454 1050 442 1050 q 472 1052 465 1050 q 483 1060 478 1054 q 494 1075 489 1065 q 507 1101 499 1085 l 561 1101 z "},"Ï":{"ha":772,"x_min":15,"x_max":683,"o":"m 279 -303 q 260 -338 282 -328 q 215 -349 238 -349 q 174 -337 196 -349 q 153 -303 153 -326 q 153 -283 153 -292 q 156 -268 154 -275 l 186 -85 l 244 -85 l 276 -269 l 279 -303 m 539 -250 q 523 -174 529 -204 q 513 -118 517 -143 q 507 -70 508 -93 q 506 -17 506 -47 l 506 88 l 506 457 q 433 565 506 565 q 363 549 392 565 q 296 496 333 532 l 296 -6 l 150 -6 l 150 463 q 146 540 150 524 q 111 572 138 572 q 91 563 99 572 q 80 541 83 554 q 75 515 76 528 q 72 493 74 501 l 22 490 q 17 519 19 510 q 15 528 15 529 q 161 686 15 686 q 247 663 222 686 q 282 581 272 639 q 385 665 340 643 q 479 686 431 686 q 651 451 651 686 l 651 58 q 660 -133 651 -82 q 672 -194 667 -165 q 683 -250 678 -224 l 539 -250 m 453 851 q 440 807 453 826 q 408 774 428 788 q 365 753 389 760 q 317 750 340 747 l 276 753 l 276 815 l 308 814 q 325 813 315 813 l 338 813 q 374 833 374 813 q 349 843 374 843 l 335 842 q 283 857 306 839 q 260 899 260 875 q 283 943 260 928 q 338 958 306 958 q 379 950 358 958 q 417 927 400 942 q 443 893 433 913 q 453 851 453 874 m 547 1101 q 507 997 538 1036 q 422 953 471 953 q 383 960 407 953 q 336 978 360 968 q 294 995 313 988 q 272 1003 275 1003 q 244 988 254 1003 q 225 953 233 972 l 169 953 q 212 1062 181 1024 q 297 1100 243 1100 q 334 1092 311 1100 q 380 1075 357 1085 q 420 1058 403 1065 q 442 1050 438 1050 q 463 1056 454 1050 q 476 1069 471 1061 q 486 1087 482 1078 q 493 1101 490 1096 l 547 1101 z "},"Ñ":{"ha":772,"x_min":58,"x_max":714,"o":"m 556 265 q 517 481 556 393 q 378 597 468 597 q 250 528 296 597 q 211 379 211 468 q 254 176 211 261 q 408 65 308 65 q 471 84 443 65 q 517 132 499 103 q 546 197 536 161 q 556 265 556 232 m 714 343 q 632 101 714 208 q 378 -22 536 -22 q 250 3 308 -22 q 149 74 192 28 q 82 183 106 119 q 58 325 58 247 q 83 465 58 400 q 153 580 108 531 q 260 657 199 629 q 394 685 321 685 q 633 576 543 685 q 714 343 714 479 m 463 869 q 424 781 463 814 q 326 749 385 749 q 289 764 289 749 l 289 813 l 319 811 q 365 821 344 811 q 386 854 386 831 q 368 883 386 875 q 328 894 350 890 q 289 906 307 899 q 271 933 271 913 q 290 977 271 963 q 340 992 310 992 q 426 957 390 992 q 463 869 463 922 z "},"Ò":{"ha":772,"x_min":58,"x_max":714,"o":"m 556 265 q 517 481 556 393 q 378 597 468 597 q 250 528 296 597 q 211 379 211 468 q 254 176 211 261 q 408 65 308 65 q 471 84 443 65 q 517 132 499 103 q 546 197 536 161 q 556 265 556 232 m 714 343 q 632 101 714 208 q 378 -22 536 -22 q 250 3 308 -22 q 149 74 192 28 q 82 183 106 119 q 58 325 58 247 q 83 465 58 400 q 153 580 108 531 q 260 657 199 629 q 394 685 321 685 q 633 576 543 685 q 714 343 714 479 m 511 943 q 493 899 511 917 l 385 749 l 326 749 l 388 935 q 410 978 397 964 q 453 992 424 992 q 511 943 511 992 z "},"Ó":{"ha":772,"x_min":58,"x_max":714,"o":"m 556 265 q 517 481 556 393 q 378 597 468 597 q 250 528 296 597 q 211 379 211 468 q 254 176 211 261 q 408 65 308 65 q 471 84 443 65 q 517 132 499 103 q 546 197 536 161 q 556 265 556 232 m 714 343 q 632 101 714 208 q 378 -22 536 -22 q 250 3 308 -22 q 149 74 192 28 q 82 183 106 119 q 58 325 58 247 q 83 465 58 400 q 153 580 108 531 q 260 657 199 629 q 394 685 321 685 q 633 576 543 685 q 714 343 714 479 m 419 935 q 401 895 419 903 q 362 886 383 888 q 322 881 340 885 q 304 854 304 878 q 312 831 304 839 q 333 818 319 822 q 365 813 347 814 q 403 813 383 813 l 403 751 l 368 750 q 315 756 340 749 q 271 779 290 764 q 240 816 251 794 q 228 864 228 838 q 238 913 228 889 q 265 954 249 936 q 304 983 282 972 q 351 993 326 993 q 398 977 376 993 q 419 935 419 961 m 589 943 q 572 899 589 917 l 464 750 l 407 750 l 467 933 q 490 978 476 964 q 532 992 503 992 q 573 981 557 992 q 589 943 589 969 z "},"Ô":{"ha":772,"x_min":58,"x_max":714,"o":"m 556 265 q 517 481 556 393 q 378 597 468 597 q 250 528 296 597 q 211 379 211 468 q 254 176 211 261 q 408 65 308 65 q 471 84 443 65 q 517 132 499 103 q 546 197 536 161 q 556 265 556 232 m 714 343 q 632 101 714 208 q 378 -22 536 -22 q 250 3 308 -22 q 149 74 192 28 q 82 183 106 119 q 58 325 58 247 q 83 465 58 400 q 153 580 108 531 q 260 657 199 629 q 394 685 321 685 q 633 576 543 685 q 714 343 714 479 m 432 869 q 421 821 432 843 q 391 782 410 799 q 347 756 372 765 q 296 749 322 747 l 258 750 l 258 813 l 289 811 q 335 819 315 811 q 354 851 354 828 q 336 881 354 881 l 319 881 l 289 881 q 256 894 269 882 q 242 933 242 907 q 260 977 242 963 q 310 992 279 992 q 357 982 335 992 q 396 956 379 972 q 422 917 413 939 q 432 869 432 894 m 604 943 q 588 899 604 919 l 478 749 l 421 749 l 481 935 q 503 978 490 964 q 546 992 517 992 q 590 978 575 992 q 604 943 604 965 z "},"Õ":{"ha":772,"x_min":58,"x_max":714,"o":"m 556 265 q 517 481 556 393 q 378 597 468 597 q 250 528 296 597 q 211 379 211 468 q 254 176 211 261 q 408 65 308 65 q 471 84 443 65 q 517 132 499 103 q 546 197 536 161 q 556 265 556 232 m 714 343 q 632 101 714 208 q 378 -22 536 -22 q 250 3 308 -22 q 149 74 192 28 q 82 183 106 119 q 58 325 58 247 q 83 465 58 400 q 153 580 108 531 q 260 657 199 629 q 394 685 321 685 q 633 576 543 685 q 714 343 714 479 m 444 749 l 388 749 l 278 899 q 266 919 271 910 q 261 943 261 929 q 319 992 261 992 q 360 978 347 992 q 385 935 374 964 l 444 749 z "},"Ö":{"ha":772,"x_min":58,"x_max":714,"o":"m 488 932 q 463 977 482 963 q 418 992 444 992 q 378 978 394 992 q 361 940 361 964 q 365 920 361 929 q 376 900 369 911 l 458 750 l 518 750 l 488 932 m 372 933 q 355 906 372 913 q 317 894 338 899 q 278 883 296 890 q 261 857 261 876 q 278 824 261 838 q 318 811 296 810 l 357 814 l 357 751 l 322 750 q 269 757 294 749 q 225 781 244 765 q 194 818 206 796 q 182 868 182 840 q 192 916 182 893 q 218 956 201 939 q 257 983 235 972 q 304 993 279 993 l 324 990 q 358 971 344 988 q 372 933 372 954 m 714 343 q 633 576 714 479 q 394 685 543 685 q 260 657 321 685 q 153 580 199 629 q 83 465 108 531 q 58 325 58 400 q 82 183 58 247 q 149 74 106 119 q 250 3 192 28 q 378 -22 308 -22 q 632 101 536 -22 q 714 343 714 208 m 556 265 q 546 197 556 232 q 517 132 536 161 q 471 84 499 103 q 408 65 443 65 q 254 176 308 65 q 211 379 211 261 q 250 528 211 468 q 378 597 296 597 q 517 481 468 597 q 556 265 556 393 z "},"Ø":{"ha":694,"x_min":33,"x_max":642,"o":"m 642 349 q 618 197 642 265 q 554 81 594 129 q 458 6 514 32 q 338 -21 401 -21 q 158 51 221 -21 q 90 292 90 128 q 92 307 90 294 q 95 335 93 319 q 99 367 97 351 q 100 394 100 383 q 90 470 100 436 q 67 530 79 504 q 44 574 54 556 q 33 601 33 592 q 53 676 33 651 q 121 700 72 700 q 184 673 160 700 q 221 603 208 646 q 238 509 233 561 q 242 406 242 457 q 240 383 242 397 q 238 352 239 368 q 235 320 236 336 q 233 294 233 304 q 268 115 233 167 q 349 72 294 72 q 479 154 431 72 q 522 354 522 231 q 482 549 522 475 q 394 647 458 596 l 418 694 q 565 594 510 663 q 642 349 642 501 m 381 933 q 363 906 381 913 q 324 894 344 899 q 285 883 303 890 q 267 854 267 875 q 288 822 267 833 q 333 811 308 810 l 364 813 l 364 764 q 351 752 364 756 q 325 749 339 749 q 229 782 269 749 q 189 869 189 815 q 224 957 189 922 q 311 992 258 992 q 360 977 340 992 q 381 933 381 963 z "},"Ù":{"ha":694,"x_min":33,"x_max":642,"o":"m 642 349 q 618 197 642 265 q 554 81 594 129 q 458 6 514 32 q 338 -21 401 -21 q 158 51 221 -21 q 90 292 90 128 q 92 307 90 294 q 95 335 93 319 q 99 367 97 351 q 100 394 100 383 q 90 470 100 436 q 67 530 79 504 q 44 574 54 556 q 33 601 33 592 q 53 676 33 651 q 121 700 72 700 q 184 673 160 700 q 221 603 208 646 q 238 509 233 561 q 242 406 242 457 q 240 383 242 397 q 238 352 239 368 q 235 320 236 336 q 233 294 233 304 q 268 115 233 167 q 349 72 294 72 q 479 154 431 72 q 522 354 522 231 q 482 549 522 475 q 394 647 458 596 l 418 694 q 565 594 510 663 q 642 349 642 501 m 381 869 q 342 781 381 814 q 244 749 303 749 q 207 764 207 749 l 207 813 l 238 811 q 283 820 264 810 q 303 854 303 831 q 285 883 303 875 q 246 894 267 890 q 207 906 225 899 q 189 933 189 913 q 208 977 189 963 q 258 992 228 992 q 344 957 308 992 q 381 869 381 922 z "},"Ú":{"ha":694,"x_min":33,"x_max":642,"o":"m 642 349 q 618 197 642 265 q 554 81 594 129 q 458 6 514 32 q 338 -21 401 -21 q 158 51 221 -21 q 90 292 90 128 q 92 307 90 294 q 95 335 93 319 q 99 367 97 351 q 100 394 100 383 q 90 470 100 436 q 67 530 79 504 q 44 574 54 556 q 33 601 33 592 q 53 676 33 651 q 121 700 72 700 q 184 673 160 700 q 221 603 208 646 q 238 509 233 561 q 242 406 242 457 q 240 383 242 397 q 238 352 239 368 q 235 320 236 336 q 233 294 233 304 q 268 115 233 167 q 349 72 294 72 q 479 154 431 72 q 522 354 522 231 q 482 549 522 475 q 394 647 458 596 l 418 694 q 565 594 510 663 q 642 349 642 501 m 428 943 q 411 899 428 917 l 303 749 l 244 749 l 304 935 q 328 977 314 963 q 369 992 343 992 q 413 978 399 992 q 428 943 428 965 z "},"Û":{"ha":694,"x_min":33,"x_max":642,"o":"m 642 349 q 618 197 642 265 q 554 81 594 129 q 458 6 514 32 q 338 -21 401 -21 q 158 51 221 -21 q 90 292 90 128 q 92 307 90 294 q 95 335 93 319 q 99 367 97 351 q 100 394 100 383 q 90 470 100 436 q 67 530 79 504 q 44 574 54 556 q 33 601 33 592 q 53 676 33 651 q 121 700 72 700 q 184 673 160 700 q 221 603 208 646 q 238 509 233 561 q 242 406 242 457 q 240 383 242 397 q 238 352 239 368 q 235 320 236 336 q 233 294 233 304 q 268 115 233 167 q 349 72 294 72 q 479 154 431 72 q 522 354 522 231 q 482 550 522 476 q 394 647 456 596 l 418 694 q 565 594 510 663 q 642 349 642 501 m 324 935 q 306 895 324 903 q 267 886 288 888 q 228 881 246 885 q 210 854 210 876 q 238 818 210 824 q 307 813 267 813 l 307 751 l 272 749 q 221 755 244 746 q 178 776 197 764 q 133 864 133 808 q 143 913 133 889 q 169 954 153 936 q 208 983 186 972 q 256 993 231 993 q 302 977 281 993 q 324 935 324 961 m 493 943 q 476 899 493 919 l 368 749 l 311 749 l 371 933 q 394 978 381 964 q 436 992 407 992 q 477 981 461 992 q 493 943 493 969 z "},"Ü":{"ha":694,"x_min":33,"x_max":642,"o":"m 642 349 q 618 197 642 265 q 554 81 594 129 q 458 6 514 32 q 338 -21 401 -21 q 158 51 221 -21 q 90 292 90 128 q 92 307 90 294 q 95 335 93 319 q 99 367 97 351 q 100 394 100 383 q 90 470 100 436 q 67 530 79 504 q 44 574 54 556 q 33 601 33 592 q 53 676 33 651 q 121 700 72 700 q 184 673 160 700 q 221 603 208 646 q 238 509 233 561 q 242 406 242 457 q 240 383 242 397 q 238 352 239 368 q 235 320 236 336 q 233 294 233 304 q 268 115 233 167 q 349 72 294 72 q 479 154 431 72 q 522 354 522 231 q 482 549 522 475 q 394 647 458 596 l 418 694 q 565 594 510 663 q 642 349 642 501 m 310 869 q 299 820 310 843 q 269 781 288 797 q 226 756 251 764 q 175 749 201 747 l 136 750 l 136 813 l 167 811 q 213 819 193 811 q 232 851 232 828 q 214 881 232 881 l 197 881 q 176 881 189 881 q 151 887 163 882 q 130 903 139 892 q 121 933 121 914 q 140 977 121 963 q 188 992 158 992 q 235 982 213 992 q 274 956 257 972 q 300 917 290 939 q 310 869 310 894 m 482 943 q 464 899 482 917 l 356 749 l 299 749 l 358 935 q 381 978 368 964 q 424 992 394 992 q 482 943 482 992 z "},"ß":{"ha":694,"x_min":33,"x_max":642,"o":"m 642 349 q 618 197 642 265 q 554 81 594 129 q 458 6 514 32 q 338 -21 401 -21 q 158 51 221 -21 q 90 292 90 128 q 92 307 90 294 q 95 335 93 319 q 99 367 97 351 q 100 394 100 383 q 90 470 100 436 q 67 530 79 504 q 44 574 54 556 q 33 601 33 592 q 53 676 33 651 q 121 700 72 700 q 184 673 160 700 q 221 603 208 646 q 238 509 233 561 q 242 406 242 457 q 240 383 242 397 q 238 352 239 368 q 235 320 236 336 q 233 294 233 304 q 268 115 233 167 q 349 72 294 72 q 479 154 431 72 q 522 354 522 231 q 482 549 522 475 q 394 647 458 596 l 418 694 q 565 594 510 663 q 642 349 642 501 m 290 869 q 279 821 290 843 q 249 782 268 799 q 204 756 229 765 q 151 749 179 747 l 114 750 l 114 813 l 147 811 q 193 822 175 811 q 211 854 211 832 q 194 883 211 876 q 156 894 176 890 q 117 905 135 899 q 100 932 100 911 q 119 976 100 960 q 167 992 138 992 q 215 982 192 992 q 254 956 238 972 q 281 917 271 939 q 290 869 290 894 m 435 749 l 376 749 l 294 900 q 283 920 288 911 q 279 940 279 929 q 335 992 279 992 q 380 977 361 992 q 404 932 399 963 l 435 749 z "},"à":{"ha":694,"x_min":33,"x_max":642,"o":"m 642 349 q 618 197 642 265 q 554 81 594 129 q 458 6 514 32 q 338 -21 401 -21 q 158 51 221 -21 q 90 290 90 128 q 92 306 90 293 q 95 335 93 318 q 99 367 97 351 q 100 394 100 383 q 94 457 100 429 q 78 509 88 485 q 56 556 68 533 q 33 601 44 578 q 53 676 33 651 q 121 700 72 700 q 183 676 160 700 q 220 611 207 651 q 238 517 233 571 q 242 406 242 464 q 240 382 242 397 q 238 350 239 367 q 235 318 236 333 q 233 294 233 303 q 253 144 233 199 q 349 72 279 72 q 479 154 431 72 q 522 354 522 231 q 517 441 522 401 q 497 515 511 481 q 458 582 483 550 q 394 647 433 614 l 418 693 q 565 593 508 663 q 642 349 642 500 m 471 942 q 432 838 458 875 q 357 792 406 800 q 319 796 343 792 q 271 804 294 800 q 229 813 247 808 q 210 817 211 817 l 188 814 q 176 807 181 814 q 167 792 171 800 q 160 775 163 783 q 157 764 158 767 l 99 764 q 144 874 122 843 q 235 918 178 918 q 272 914 249 918 q 318 904 296 910 q 356 894 340 899 q 369 890 371 890 q 398 906 389 890 q 415 942 407 921 l 471 942 z "},"á":{"ha":694,"x_min":33,"x_max":642,"o":"m 642 350 q 618 199 642 267 q 554 81 594 131 q 458 6 514 32 q 338 -21 401 -21 q 158 51 221 -21 q 90 292 90 128 q 92 317 90 301 q 95 348 93 332 q 99 377 97 364 q 100 396 100 390 q 90 472 100 438 q 67 531 79 506 q 44 575 54 557 q 33 603 33 593 q 53 678 33 653 q 121 703 72 703 q 184 676 160 703 q 221 606 208 649 q 238 510 233 563 q 242 407 242 458 q 240 383 242 399 q 238 351 239 368 q 235 319 236 335 q 233 296 233 304 q 268 115 233 167 q 349 72 294 72 q 479 156 431 72 q 522 356 522 232 q 517 442 522 403 q 497 517 511 482 q 458 584 482 551 q 394 650 433 617 l 418 696 q 565 596 510 664 q 642 350 642 503 m 361 897 q 340 856 361 868 q 292 843 318 843 l 269 844 l 254 843 l 247 835 q 247 826 243 829 q 258 820 250 822 q 274 817 265 818 q 292 815 283 815 l 344 817 l 344 754 l 308 751 q 260 756 283 749 q 218 772 236 763 q 169 851 169 800 q 202 926 169 899 q 282 953 235 953 q 340 939 318 953 q 361 897 361 925 m 468 1101 q 425 997 458 1038 q 340 957 392 957 q 303 964 325 957 q 258 980 281 971 q 217 996 235 989 q 196 1003 200 1003 q 171 994 182 1003 q 146 953 160 986 l 90 953 q 133 1060 101 1021 q 217 1100 164 1100 q 249 1092 229 1100 q 289 1075 268 1085 q 330 1058 310 1065 q 363 1050 350 1050 l 375 1050 q 391 1060 383 1050 q 414 1101 399 1071 l 468 1101 z "},"â":{"ha":694,"x_min":33,"x_max":642,"o":"m 642 350 q 618 199 642 267 q 554 81 594 131 q 458 6 514 32 q 338 -21 401 -21 q 158 51 221 -21 q 90 292 90 128 q 92 317 90 301 q 95 348 93 332 q 99 377 97 364 q 100 396 100 390 q 90 472 100 438 q 67 531 79 506 q 44 575 54 557 q 33 603 33 593 q 53 678 33 653 q 121 703 72 703 q 184 676 160 703 q 221 606 208 649 q 238 510 233 563 q 242 407 242 458 q 240 383 242 399 q 238 351 239 368 q 235 319 236 335 q 233 296 233 304 q 268 115 233 167 q 349 72 294 72 q 479 156 431 72 q 522 356 522 232 q 517 442 522 403 q 497 517 511 482 q 458 584 482 551 q 394 650 433 617 l 418 696 q 565 596 510 664 q 642 350 642 503 m 385 853 q 372 808 385 828 q 340 775 360 789 q 297 755 321 761 q 249 751 272 749 l 210 754 l 210 817 l 242 815 q 257 814 249 814 l 269 814 q 306 833 306 814 q 281 844 306 844 l 268 843 q 215 856 239 840 q 192 899 192 872 q 215 943 192 928 q 271 958 238 958 q 313 950 292 958 q 349 927 333 942 q 375 893 365 913 q 385 853 385 874 m 481 1101 q 437 995 469 1038 q 354 953 404 953 q 316 960 340 953 q 268 978 292 968 q 226 995 244 988 q 206 1003 207 1003 q 179 991 189 1003 q 157 953 169 979 l 101 953 q 142 1060 113 1019 q 229 1100 171 1100 q 266 1092 243 1100 q 312 1075 289 1085 q 352 1058 335 1065 q 374 1050 369 1050 q 394 1056 386 1050 q 408 1069 403 1061 q 418 1087 414 1078 q 425 1101 422 1096 l 481 1101 z "},"ã":{"ha":694,"x_min":33,"x_max":642,"o":"m 642 349 q 618 197 642 265 q 554 81 594 129 q 458 6 514 32 q 338 -21 401 -21 q 158 51 221 -21 q 90 290 90 128 q 92 315 90 300 q 95 347 93 331 q 99 376 97 363 q 100 394 100 389 q 94 457 100 429 q 78 508 88 485 q 56 554 68 532 q 33 600 44 576 q 53 674 33 650 q 121 699 72 699 q 184 672 160 699 q 221 602 208 644 q 238 508 233 560 q 242 406 242 456 q 238 350 242 385 q 233 294 233 315 q 253 144 233 199 q 349 72 279 72 q 479 154 431 72 q 522 354 522 231 q 482 549 522 475 q 394 646 457 596 l 418 692 q 565 593 508 661 q 642 349 642 500 m 242 829 q 218 774 242 797 q 163 750 194 750 q 108 772 131 750 q 86 829 86 794 q 108 886 86 863 q 163 910 131 910 q 218 886 194 910 q 242 829 242 863 m 483 832 q 460 776 483 800 q 404 751 438 751 q 349 776 372 751 q 326 832 326 800 q 349 888 326 865 q 404 911 372 911 q 460 888 438 911 q 483 832 483 865 z "},"ä":{"ha":694,"x_min":17,"x_max":643,"o":"m 643 349 q 619 197 643 265 q 555 81 596 129 q 458 6 514 32 q 339 -21 403 -21 q 158 51 221 -21 q 92 292 92 128 q 93 314 92 300 q 96 343 94 328 q 99 372 97 358 q 100 394 100 386 q 90 470 100 436 q 67 530 79 504 q 44 574 54 556 q 33 601 33 592 q 53 676 33 651 q 121 700 72 700 q 184 673 160 700 q 221 603 208 646 q 238 509 233 561 q 242 406 242 457 q 240 383 242 397 q 238 352 239 368 q 235 320 236 336 q 233 294 233 304 q 268 115 233 167 q 349 72 294 72 q 481 154 432 72 q 524 354 524 231 q 482 549 524 474 q 396 647 456 596 l 418 694 q 565 594 510 663 q 643 349 643 500 m 174 832 q 150 775 174 799 q 93 751 126 751 q 39 774 61 751 q 17 831 17 796 q 39 888 17 864 q 93 911 61 911 q 149 888 125 911 q 174 832 174 865 m 386 943 q 369 899 386 919 l 260 749 l 203 749 l 263 935 q 286 978 272 965 q 328 992 300 992 q 372 978 357 992 q 386 943 386 965 m 547 835 q 524 778 547 803 q 468 753 500 753 q 414 778 438 753 q 390 835 390 803 q 413 890 390 868 q 468 913 435 913 q 524 890 500 913 q 547 835 547 868 z "},"å":{"ha":694,"x_min":6,"x_max":642,"o":"m 642 349 q 618 197 642 265 q 554 81 594 129 q 458 6 514 32 q 338 -21 401 -21 q 158 51 221 -21 q 90 292 90 128 q 92 314 90 300 q 94 343 93 328 q 97 372 96 358 q 99 394 99 386 q 88 470 99 436 q 65 530 78 504 q 42 574 53 556 q 32 601 32 592 q 51 676 32 651 q 119 700 71 700 q 183 673 158 700 q 219 603 207 646 q 236 509 232 561 q 240 406 240 457 q 239 383 240 397 q 236 352 238 368 q 233 320 235 336 q 232 294 232 304 q 253 144 232 196 q 347 72 279 72 q 479 154 431 72 q 522 354 522 231 q 481 549 522 474 q 394 647 454 596 l 417 694 q 564 594 508 663 q 642 349 642 500 m 163 835 q 140 777 163 801 q 85 753 117 753 q 29 778 53 753 q 6 835 6 803 q 28 890 6 868 q 85 913 50 913 q 140 890 118 913 q 163 835 163 868 m 350 749 l 293 749 l 185 899 q 172 920 176 910 q 167 943 167 931 q 225 992 167 992 q 266 976 253 992 q 290 935 279 961 l 350 749 m 538 831 q 515 775 538 799 q 460 751 493 751 q 403 775 426 751 q 379 832 379 799 q 403 888 379 864 q 460 911 426 911 q 515 888 493 911 q 538 831 538 864 z "},"æ":{"ha":1003,"x_min":36,"x_max":942,"o":"m 942 325 q 868 65 942 157 q 664 -28 794 -28 q 566 7 606 -28 q 489 100 526 42 q 408 -1 453 29 q 290 -31 363 -31 q 185 -3 232 -31 q 106 74 139 25 q 54 190 72 124 q 36 332 36 256 q 154 619 36 531 q 410 692 247 692 l 410 625 q 269 560 311 601 q 201 361 201 496 q 232 139 201 214 q 329 64 263 64 q 405 105 379 64 q 444 204 431 146 q 430 260 436 236 q 421 297 424 283 q 408 392 408 353 q 430 510 408 468 q 485 551 451 551 q 568 394 568 551 q 566 348 568 365 q 560 313 564 331 q 549 272 556 296 q 531 206 542 249 q 575 102 549 142 q 658 63 601 63 q 707 82 685 63 q 745 136 729 101 q 769 219 761 171 q 778 325 778 267 q 722 540 778 472 q 567 625 675 600 l 567 692 q 817 622 722 692 q 942 325 942 528 m 575 933 q 557 906 575 913 q 517 896 539 900 q 476 885 494 892 q 458 856 458 878 q 479 821 458 832 q 526 811 500 810 l 557 813 l 557 764 q 544 753 557 756 q 518 750 531 750 q 420 782 460 750 q 381 869 381 814 q 417 957 381 922 q 504 992 453 992 q 554 976 533 992 q 575 933 575 961 z "},"ç":{"ha":1003,"x_min":36,"x_max":942,"o":"m 942 325 q 868 65 942 157 q 664 -28 794 -28 q 566 7 606 -28 q 489 100 526 42 q 408 -1 453 29 q 290 -31 363 -31 q 185 -3 232 -31 q 106 74 139 25 q 54 190 72 124 q 36 332 36 256 q 154 619 36 531 q 410 692 247 692 l 410 625 q 269 560 311 601 q 201 361 201 496 q 232 139 201 214 q 329 64 263 64 q 405 105 379 64 q 444 204 431 146 q 430 260 436 236 q 421 297 424 283 q 408 392 408 353 q 430 510 408 468 q 485 551 451 551 q 568 394 568 551 q 566 348 568 365 q 560 313 564 331 q 549 272 556 296 q 531 206 542 249 q 575 102 549 142 q 658 63 601 63 q 707 82 685 63 q 745 136 729 101 q 769 219 761 171 q 778 325 778 267 q 722 540 778 472 q 567 625 675 600 l 567 692 q 817 622 722 692 q 942 325 942 528 m 599 869 q 560 781 599 811 q 461 750 521 750 q 432 752 442 750 q 422 764 422 754 l 422 813 l 453 811 q 499 822 478 810 q 521 856 521 835 q 503 883 521 876 q 463 894 485 890 q 422 906 440 899 q 404 933 404 913 q 424 977 404 963 q 475 992 444 992 q 563 957 526 992 q 599 869 599 922 z "},"è":{"ha":1003,"x_min":36,"x_max":942,"o":"m 942 325 q 868 65 942 157 q 664 -28 794 -28 q 566 7 606 -28 q 489 100 526 42 q 408 -1 453 29 q 290 -31 363 -31 q 185 -3 232 -31 q 106 74 139 25 q 54 190 72 124 q 36 332 36 256 q 154 619 36 531 q 410 692 247 692 l 410 625 q 269 560 311 601 q 201 361 201 496 q 232 139 201 214 q 329 64 263 64 q 405 105 379 64 q 444 204 431 146 q 430 260 436 236 q 421 297 424 283 q 408 392 408 353 q 430 510 408 468 q 485 551 451 551 q 568 394 568 551 q 566 348 568 365 q 560 313 564 331 q 549 272 556 296 q 531 206 542 249 q 575 102 549 142 q 658 63 601 63 q 707 82 685 63 q 745 136 729 101 q 769 219 761 171 q 778 325 778 267 q 722 540 778 472 q 567 625 675 600 l 567 692 q 817 622 722 692 q 942 325 942 528 m 596 943 q 579 899 596 919 l 468 750 l 410 750 l 471 935 q 480 956 476 949 q 485 967 483 964 q 536 992 501 992 q 581 978 567 992 q 596 943 596 965 z "},"é":{"ha":1003,"x_min":36,"x_max":942,"o":"m 942 325 q 868 65 942 157 q 664 -28 794 -28 q 566 7 606 -28 q 489 100 526 42 q 408 -1 453 29 q 290 -31 363 -31 q 185 -3 232 -31 q 106 74 139 25 q 54 190 72 124 q 36 332 36 256 q 154 619 36 531 q 410 692 247 692 l 410 625 q 269 560 315 603 q 201 361 201 496 q 232 139 201 214 q 329 64 263 64 q 405 105 379 64 q 444 204 431 146 q 430 260 436 236 q 421 297 424 283 q 408 392 408 353 q 430 510 408 468 q 485 551 451 551 q 568 394 568 551 q 566 348 568 365 q 560 313 564 331 q 549 272 556 296 q 531 206 542 249 q 575 102 549 142 q 658 63 601 63 q 707 82 685 63 q 745 136 729 101 q 769 219 761 171 q 778 325 778 267 q 722 540 778 472 q 567 625 675 600 l 567 692 q 817 622 722 692 q 942 325 942 528 m 503 935 q 485 895 503 903 q 445 886 467 888 q 406 881 424 885 q 388 856 388 878 q 407 822 388 832 q 451 813 426 813 l 488 813 l 488 753 l 451 750 q 399 756 424 747 q 356 778 375 765 q 310 864 310 808 q 320 913 310 889 q 347 954 331 936 q 387 983 364 972 q 435 993 410 993 q 481 977 460 993 q 503 935 503 961 m 675 943 q 658 899 675 917 l 549 750 l 490 750 l 551 933 q 576 977 561 963 q 618 992 590 992 q 659 981 643 992 q 675 943 675 969 z "},"ê":{"ha":1003,"x_min":36,"x_max":942,"o":"m 942 325 q 868 65 942 157 q 664 -28 794 -28 q 566 7 606 -28 q 489 100 526 42 q 408 -1 453 29 q 290 -31 363 -31 q 185 -3 232 -31 q 106 74 139 25 q 54 190 72 124 q 36 332 36 256 q 154 619 36 531 q 410 692 247 692 l 410 625 q 269 560 311 601 q 201 361 201 496 q 232 139 201 214 q 329 64 263 64 q 405 105 379 64 q 444 204 431 146 q 430 260 436 236 q 421 297 424 283 q 408 392 408 353 q 430 510 408 468 q 485 551 451 551 q 568 394 568 551 q 566 348 568 365 q 560 313 564 331 q 549 272 556 296 q 531 206 542 249 q 575 102 549 142 q 658 63 601 63 q 707 82 685 63 q 745 136 729 101 q 769 219 761 171 q 778 325 778 267 q 722 540 778 472 q 567 625 675 600 l 567 692 q 817 622 722 692 q 942 325 942 528 m 531 869 q 491 782 531 817 q 393 750 451 747 l 353 751 l 353 813 l 385 811 q 429 821 408 811 q 450 853 450 831 q 433 881 450 881 l 417 881 q 396 881 407 881 q 364 886 385 882 q 345 905 353 890 q 338 933 338 919 q 356 977 338 963 q 406 992 375 992 q 494 956 457 992 q 531 869 531 921 m 704 943 q 686 899 704 917 l 576 750 l 518 750 l 579 935 q 602 978 589 964 q 644 992 615 992 q 688 978 672 992 q 704 943 704 965 z "},"ë":{"ha":1003,"x_min":36,"x_max":942,"o":"m 942 325 q 868 65 942 157 q 664 -28 794 -28 q 566 7 606 -28 q 489 100 526 42 q 408 -1 453 29 q 290 -31 363 -31 q 185 -3 232 -31 q 106 74 139 25 q 54 190 72 124 q 36 332 36 256 q 154 619 36 531 q 410 692 247 692 l 410 625 q 269 560 311 601 q 201 361 201 496 q 232 139 201 214 q 329 64 263 64 q 405 105 379 64 q 444 204 431 146 q 430 260 436 236 q 421 297 424 283 q 408 392 408 353 q 430 510 408 468 q 485 551 451 551 q 568 394 568 551 q 566 348 568 365 q 560 313 564 331 q 549 272 556 296 q 531 206 542 249 q 575 102 549 142 q 658 63 601 63 q 707 82 685 63 q 745 136 729 101 q 769 219 761 171 q 778 325 778 267 q 722 540 778 472 q 567 625 675 600 l 567 692 q 817 622 722 692 q 942 325 942 528 m 569 750 l 511 750 l 400 899 q 383 943 383 919 q 443 992 383 992 q 484 978 471 992 q 508 935 497 964 l 569 750 z "},"ì":{"ha":1003,"x_min":36,"x_max":942,"o":"m 613 932 q 588 977 607 963 q 542 992 568 992 q 486 940 486 992 q 490 919 486 928 q 500 900 493 911 l 583 750 l 643 750 l 613 932 m 496 933 q 478 906 496 914 q 440 894 461 899 q 401 883 418 890 q 383 858 383 876 q 401 823 383 838 q 442 811 418 808 l 481 814 l 481 753 l 444 750 q 392 756 417 747 q 347 780 367 764 q 316 819 328 796 q 304 868 304 842 q 315 916 304 893 q 342 956 325 939 q 381 983 358 972 q 428 993 403 993 l 446 990 q 482 972 468 988 q 496 933 496 956 m 942 325 q 817 622 942 528 q 567 692 722 692 l 567 625 q 722 540 675 600 q 778 325 778 472 q 769 219 778 267 q 745 136 761 171 q 707 82 729 101 q 658 63 685 63 q 575 102 601 63 q 531 206 549 142 q 549 272 542 249 q 560 313 556 296 q 566 348 564 331 q 568 394 568 365 q 485 551 568 551 q 430 510 451 551 q 408 392 408 468 q 421 297 408 353 q 430 260 424 283 q 444 204 436 236 q 405 105 431 146 q 329 64 379 64 q 232 139 263 64 q 201 361 201 214 q 269 560 201 496 q 410 625 315 603 l 410 692 q 154 619 247 692 q 36 332 36 531 q 54 190 36 256 q 106 74 72 124 q 185 -3 139 25 q 290 -31 232 -31 q 408 -1 363 -31 q 489 100 453 29 q 566 7 526 42 q 664 -28 606 -28 q 868 65 794 -28 q 942 325 942 157 z "},"í":{"ha":1003,"x_min":36,"x_max":942,"o":"m 942 325 q 868 65 942 157 q 664 -28 794 -28 q 566 7 606 -28 q 489 100 526 42 q 408 -1 453 29 q 290 -31 363 -31 q 185 -3 232 -31 q 106 74 139 25 q 54 190 72 124 q 36 332 36 256 q 154 619 36 531 q 410 692 247 692 l 410 625 q 269 560 311 601 q 201 361 201 496 q 232 139 201 214 q 329 64 263 64 q 405 105 379 64 q 444 204 431 146 q 430 260 436 236 q 421 297 424 283 q 408 392 408 353 q 430 510 408 468 q 485 551 451 551 q 568 394 568 551 q 566 348 568 365 q 560 313 564 331 q 549 272 556 296 q 531 206 542 249 q 575 102 549 142 q 658 63 601 63 q 707 82 685 63 q 745 136 729 101 q 769 219 761 171 q 778 325 778 267 q 722 540 778 472 q 567 625 675 600 l 567 692 q 817 622 722 692 q 942 325 942 528 m 510 869 q 499 821 510 843 q 468 782 488 799 q 424 757 449 765 q 369 750 399 749 l 331 751 l 331 813 l 364 811 q 410 821 390 810 q 431 856 431 832 q 413 883 431 876 q 374 894 394 890 q 335 905 353 899 q 317 932 317 911 q 336 976 317 961 q 385 992 356 992 q 433 982 410 992 q 472 956 456 972 q 499 917 489 939 q 510 869 510 894 m 657 750 l 597 750 l 514 900 q 503 920 507 911 q 499 940 499 929 q 515 978 499 964 q 556 992 532 992 q 625 932 615 992 l 657 750 z "},"î":{"ha":1003,"x_min":36,"x_max":942,"o":"m 942 325 q 868 65 942 157 q 664 -28 794 -28 q 566 7 606 -28 q 489 100 526 42 q 408 -1 453 29 q 290 -31 363 -31 q 185 -3 232 -31 q 106 74 139 25 q 54 190 72 124 q 36 331 36 256 q 154 619 36 531 q 410 690 247 690 l 410 624 q 269 560 315 601 q 201 361 201 496 q 232 139 201 214 q 329 64 263 64 q 405 105 379 64 q 444 204 431 146 q 430 260 436 236 q 421 297 424 283 q 408 390 408 353 q 431 509 408 467 q 485 551 453 551 q 545 510 522 551 q 568 393 568 468 q 566 360 568 378 q 561 322 564 342 q 553 290 560 319 q 531 206 546 261 q 575 102 549 142 q 658 63 601 63 q 707 82 685 63 q 745 136 729 101 q 769 219 761 171 q 778 325 778 267 q 722 540 778 472 q 567 624 675 599 l 567 690 q 817 621 722 690 q 942 325 942 529 m 679 942 q 640 838 668 875 q 564 792 613 800 q 541 796 560 792 q 498 804 522 800 q 450 813 474 808 q 414 817 426 817 l 393 815 q 372 796 379 814 q 361 765 365 778 l 303 765 q 349 874 325 842 q 440 918 382 918 q 478 914 454 918 q 524 904 501 910 q 563 894 547 899 q 578 890 579 890 q 605 905 597 890 q 624 942 613 919 l 679 942 z "},"ï":{"ha":1003,"x_min":36,"x_max":942,"o":"m 942 325 q 868 65 942 157 q 664 -28 794 -28 q 566 7 606 -28 q 489 100 526 42 q 408 1 454 33 q 290 -31 361 -31 q 185 -3 232 -31 q 106 74 139 25 q 54 190 72 124 q 36 332 36 256 q 154 621 36 532 q 410 693 247 693 l 410 626 q 269 561 315 604 q 201 363 201 497 q 232 140 201 215 q 329 64 263 64 q 406 106 381 64 q 444 206 431 147 q 428 266 435 240 q 417 313 421 292 q 410 352 413 333 q 408 392 408 371 q 431 510 408 468 q 485 553 453 553 q 545 511 522 553 q 568 394 568 469 q 567 365 568 378 q 563 334 567 353 q 552 286 560 315 q 531 207 544 257 q 576 102 550 142 q 658 63 601 63 q 707 82 685 63 q 745 136 729 101 q 769 219 761 171 q 778 325 778 267 q 722 542 778 474 q 567 626 675 601 l 567 693 q 817 624 722 693 q 942 325 942 529 m 581 897 q 559 856 581 868 q 511 843 538 843 l 489 844 l 474 843 l 467 835 q 466 826 463 829 q 477 820 469 822 q 494 817 485 818 q 511 815 503 815 l 565 817 l 565 754 l 529 751 q 478 756 501 749 q 436 772 454 763 q 388 851 388 800 q 421 926 388 899 q 501 953 454 953 q 559 939 538 953 q 581 897 581 925 m 690 1101 q 649 998 681 1039 q 561 957 617 957 q 535 965 554 957 q 494 981 517 972 q 450 997 472 989 q 414 1004 428 1004 q 385 992 396 1004 q 363 953 375 981 l 307 953 q 349 1062 318 1024 q 436 1100 381 1100 q 474 1092 450 1100 q 520 1075 497 1085 q 560 1058 543 1065 q 582 1050 578 1050 q 613 1065 603 1050 q 635 1101 624 1079 l 690 1101 z "},"ñ":{"ha":1003,"x_min":36,"x_max":942,"o":"m 556 -303 q 538 -340 558 -329 q 490 -350 517 -350 q 447 -338 467 -350 q 428 -303 428 -326 q 428 -285 428 -293 q 431 -269 429 -276 l 461 -86 l 521 -86 l 553 -271 l 556 -303 m 942 319 q 868 56 942 147 q 664 -35 794 -35 q 566 0 604 -35 q 489 94 528 35 q 401 -10 449 18 q 290 -37 353 -37 q 185 -10 232 -37 q 106 67 139 18 q 54 183 72 117 q 36 326 36 249 q 154 617 36 528 q 410 689 247 689 l 410 622 q 269 557 311 599 q 201 357 201 493 q 232 131 201 206 q 329 57 263 57 q 406 99 381 57 q 444 199 431 140 q 430 254 436 231 q 421 292 424 278 q 408 386 408 347 q 430 507 408 465 q 485 549 451 549 q 545 507 522 549 q 568 389 568 465 q 566 342 568 360 q 560 308 564 325 q 549 267 556 290 q 531 200 542 243 q 576 95 550 135 q 658 56 601 56 q 707 75 685 56 q 745 130 729 94 q 769 213 761 165 q 778 319 778 261 q 722 536 778 468 q 567 622 674 596 l 567 689 q 817 619 722 689 q 942 319 942 525 m 575 932 q 557 904 575 911 q 517 893 539 897 q 476 881 494 889 q 458 853 458 874 q 479 820 458 832 q 526 810 500 808 l 557 811 l 557 763 q 544 751 557 754 q 518 747 532 747 q 420 778 460 747 q 381 868 381 810 q 417 956 381 921 q 504 990 453 990 q 555 976 535 990 q 575 932 575 963 z "},"ò":{"ha":1003,"x_min":36,"x_max":942,"o":"m 556 -303 q 538 -340 558 -329 q 490 -350 517 -350 q 447 -338 467 -350 q 428 -303 428 -326 q 428 -285 428 -293 q 431 -269 429 -276 l 461 -86 l 521 -86 l 553 -271 l 556 -303 m 942 319 q 868 56 942 147 q 664 -35 794 -35 q 566 0 604 -35 q 489 94 528 35 q 401 -10 449 18 q 290 -37 353 -37 q 185 -10 232 -37 q 106 67 139 18 q 54 183 72 117 q 36 326 36 249 q 154 617 36 528 q 410 689 247 689 l 410 622 q 269 557 311 599 q 201 357 201 493 q 232 131 201 206 q 329 57 263 57 q 406 99 381 57 q 444 199 431 140 q 430 254 436 231 q 421 292 424 278 q 408 386 408 347 q 430 507 408 465 q 485 549 451 549 q 545 507 522 549 q 568 389 568 465 q 566 342 568 360 q 560 308 564 325 q 549 267 556 290 q 531 200 542 243 q 576 95 550 135 q 658 56 601 56 q 707 75 685 56 q 745 130 729 94 q 769 213 761 165 q 778 319 778 261 q 722 536 778 468 q 567 622 674 596 l 567 689 q 817 619 722 689 q 942 319 942 525 m 599 868 q 559 780 599 813 q 461 747 519 747 q 422 763 422 747 l 422 811 l 453 810 q 499 819 476 810 q 521 853 521 828 q 503 881 521 874 q 463 893 485 889 q 422 904 440 897 q 404 932 404 911 q 424 976 404 961 q 475 990 444 990 q 563 956 526 990 q 599 868 599 921 z "},"ó":{"ha":1003,"x_min":36,"x_max":942,"o":"m 556 -303 q 538 -340 558 -329 q 490 -350 517 -350 q 447 -338 467 -350 q 428 -303 428 -326 q 428 -285 428 -293 q 431 -269 429 -276 l 461 -86 l 521 -86 l 553 -271 l 556 -303 m 942 319 q 868 56 942 147 q 664 -35 794 -35 q 566 0 604 -35 q 489 94 528 35 q 401 -10 449 18 q 290 -37 353 -37 q 185 -10 232 -37 q 106 67 139 18 q 54 183 72 117 q 36 326 36 249 q 154 617 36 528 q 410 689 247 689 l 410 622 q 269 557 311 599 q 201 357 201 493 q 232 131 201 206 q 329 57 263 57 q 406 99 381 57 q 444 199 431 140 q 430 254 436 231 q 421 292 424 278 q 408 386 408 347 q 430 507 408 465 q 485 549 451 549 q 545 507 522 549 q 568 389 568 465 q 566 342 568 360 q 560 308 564 325 q 549 267 556 290 q 531 200 542 243 q 576 95 550 135 q 658 56 601 56 q 707 75 685 56 q 745 130 729 94 q 769 213 761 165 q 778 319 778 261 q 722 536 778 468 q 567 622 674 596 l 567 689 q 817 619 722 689 q 942 319 942 525 m 596 942 q 579 897 596 919 l 468 747 l 410 747 l 471 933 q 485 965 479 960 q 536 990 501 990 q 596 942 596 990 z "},"ô":{"ha":1003,"x_min":36,"x_max":942,"o":"m 556 -303 q 538 -340 558 -329 q 490 -350 517 -350 q 447 -338 467 -350 q 428 -303 428 -326 q 428 -285 428 -293 q 431 -269 429 -276 l 461 -86 l 521 -86 l 553 -271 l 556 -303 m 942 319 q 868 56 942 147 q 664 -35 794 -35 q 566 0 604 -35 q 489 94 528 35 q 401 -10 449 18 q 290 -37 353 -37 q 185 -10 232 -37 q 106 67 139 18 q 54 183 72 117 q 36 326 36 249 q 154 617 36 528 q 410 689 247 689 l 410 622 q 269 557 311 599 q 201 357 201 493 q 232 131 201 206 q 329 57 263 57 q 406 99 381 57 q 444 199 431 140 q 430 254 436 231 q 421 292 424 278 q 408 386 408 347 q 430 507 408 465 q 485 549 451 549 q 545 507 522 549 q 568 389 568 465 q 566 342 568 360 q 560 308 564 325 q 549 267 556 290 q 531 200 542 243 q 576 95 550 135 q 658 56 601 56 q 707 75 685 56 q 745 130 729 94 q 769 213 761 165 q 778 319 778 261 q 722 536 778 468 q 567 622 674 596 l 567 689 q 817 619 722 689 q 942 319 942 525 m 503 933 q 485 894 503 901 q 445 885 467 886 q 406 880 424 883 q 388 853 388 876 q 406 820 388 829 q 450 811 424 811 l 488 811 l 488 750 l 451 747 q 399 753 424 744 q 356 775 375 763 q 310 863 310 806 q 320 911 310 888 q 347 953 331 935 q 387 981 364 971 q 435 992 410 992 q 482 976 461 992 q 503 933 503 961 m 675 942 q 658 897 675 918 l 549 747 l 490 747 l 551 932 q 575 975 561 960 q 618 990 589 990 q 659 979 643 990 q 675 942 675 968 z "},"õ":{"ha":1003,"x_min":36,"x_max":942,"o":"m 556 -303 q 538 -340 558 -329 q 490 -350 517 -350 q 447 -338 467 -350 q 428 -303 428 -326 q 428 -285 428 -293 q 431 -269 429 -276 l 461 -86 l 521 -86 l 553 -271 l 556 -303 m 942 319 q 868 56 942 147 q 664 -35 794 -35 q 566 0 604 -35 q 489 94 528 35 q 401 -10 449 18 q 290 -37 353 -37 q 185 -10 232 -37 q 106 67 139 18 q 54 183 72 117 q 36 326 36 249 q 154 617 36 528 q 410 689 247 689 l 410 622 q 269 557 311 599 q 201 357 201 493 q 232 131 201 206 q 329 57 263 57 q 406 99 381 57 q 444 199 431 140 q 430 254 436 231 q 421 292 424 278 q 408 386 408 347 q 430 507 408 465 q 485 549 451 549 q 545 507 522 549 q 568 389 568 465 q 566 342 568 360 q 560 308 564 325 q 549 267 556 290 q 531 200 542 243 q 576 95 550 135 q 658 56 601 56 q 707 75 685 56 q 745 130 729 94 q 769 213 761 165 q 778 319 778 261 q 722 536 778 468 q 567 622 674 596 l 567 689 q 817 619 722 689 q 942 319 942 525 m 531 868 q 519 819 531 842 q 490 779 508 796 q 446 754 471 763 q 393 747 421 746 l 353 749 l 353 811 l 385 810 q 431 818 411 810 q 450 850 450 826 q 433 879 450 879 l 417 879 q 396 880 407 879 q 364 885 385 881 q 345 903 353 889 q 338 932 338 918 q 356 976 338 961 q 406 990 375 990 q 494 955 457 990 q 531 868 531 919 m 704 942 q 686 897 704 919 l 576 747 l 518 747 l 579 933 q 602 976 589 961 q 644 990 615 990 q 704 942 704 990 z "},"ö":{"ha":1003,"x_min":36,"x_max":942,"o":"m 556 -303 q 538 -340 558 -329 q 490 -350 517 -350 q 447 -338 467 -350 q 428 -303 428 -326 q 428 -285 428 -293 q 431 -269 429 -276 l 461 -86 l 521 -86 l 553 -271 l 556 -303 m 942 319 q 868 56 942 147 q 664 -35 794 -35 q 566 0 604 -35 q 489 94 528 35 q 401 -10 449 18 q 290 -37 353 -37 q 185 -10 232 -37 q 106 67 139 18 q 54 183 72 117 q 36 326 36 249 q 154 617 36 528 q 410 689 247 689 l 410 622 q 269 557 311 599 q 201 357 201 493 q 232 131 201 206 q 329 57 263 57 q 406 99 381 57 q 444 199 431 140 q 430 254 436 231 q 421 292 424 278 q 408 386 408 347 q 430 507 408 465 q 485 549 451 549 q 545 507 522 549 q 568 389 568 465 q 566 342 568 360 q 560 308 564 325 q 549 267 556 290 q 531 200 542 243 q 576 95 550 135 q 658 56 601 56 q 707 75 685 56 q 745 130 729 94 q 769 213 761 165 q 778 319 778 261 q 722 536 778 468 q 567 622 674 596 l 567 689 q 817 619 722 689 q 942 319 942 525 m 569 747 l 511 747 l 400 897 q 383 942 383 919 q 443 990 383 990 q 484 977 471 990 q 508 933 497 964 l 569 747 z "},"÷":{"ha":1003,"x_min":36,"x_max":942,"o":"m 613 931 q 588 976 607 961 q 542 990 569 990 q 486 939 486 990 q 490 919 486 928 q 500 899 493 910 l 583 747 l 643 747 l 613 931 m 496 932 q 478 906 496 913 q 440 894 461 899 q 401 882 418 889 q 383 856 383 875 q 401 822 383 836 q 442 810 419 808 l 481 813 l 481 750 l 444 747 q 392 753 417 744 q 349 776 368 763 q 304 867 304 810 q 315 915 304 892 q 342 954 325 938 q 381 981 358 971 q 428 992 403 992 l 446 989 q 496 932 496 982 m 942 319 q 817 619 942 525 q 567 689 722 689 l 567 622 q 722 536 674 596 q 778 319 778 468 q 769 213 778 261 q 745 130 761 165 q 707 75 729 94 q 658 56 685 56 q 576 95 601 56 q 531 200 550 135 q 549 267 542 243 q 560 308 556 290 q 566 342 564 325 q 568 389 568 360 q 545 507 568 465 q 485 549 522 549 q 430 507 451 549 q 408 386 408 465 q 421 292 408 347 q 430 254 424 278 q 444 199 436 231 q 406 99 431 140 q 329 57 381 57 q 232 131 263 57 q 201 357 201 206 q 269 557 201 493 q 410 622 311 599 l 410 689 q 154 617 247 689 q 36 326 36 528 q 54 183 36 249 q 106 67 72 117 q 185 -10 139 18 q 290 -37 232 -37 q 401 -10 353 -37 q 489 94 449 18 q 566 0 528 35 q 664 -35 604 -35 q 868 56 794 -35 q 942 319 942 147 m 553 -271 l 521 -86 l 461 -86 l 431 -269 q 428 -285 429 -276 q 428 -303 428 -293 q 447 -338 428 -326 q 490 -350 467 -350 q 538 -340 517 -350 q 556 -303 558 -329 l 553 -271 z "},"ø":{"ha":1003,"x_min":36,"x_max":942,"o":"m 556 -303 q 538 -340 558 -329 q 490 -350 517 -350 q 447 -338 467 -350 q 428 -303 428 -326 q 428 -285 428 -293 q 431 -269 429 -276 l 461 -86 l 521 -86 l 553 -271 l 556 -303 m 942 319 q 868 56 942 147 q 664 -35 794 -35 q 566 0 604 -35 q 489 94 528 35 q 401 -10 449 18 q 290 -37 353 -37 q 185 -10 232 -37 q 106 67 139 18 q 54 183 72 117 q 36 326 36 249 q 154 617 36 528 q 410 689 247 689 l 410 622 q 269 557 311 599 q 201 357 201 493 q 232 131 201 206 q 329 57 263 57 q 406 99 381 57 q 444 199 431 140 q 430 254 436 231 q 421 292 424 278 q 408 386 408 347 q 430 507 408 465 q 485 549 451 549 q 545 507 522 549 q 568 389 568 465 q 566 342 568 360 q 560 308 564 325 q 549 267 556 290 q 531 200 542 243 q 576 95 550 135 q 658 56 601 56 q 707 75 685 56 q 745 130 729 94 q 769 213 761 165 q 778 319 778 261 q 722 536 778 468 q 567 622 674 596 l 567 689 q 817 619 722 689 q 942 319 942 525 m 510 868 q 469 778 510 813 q 369 747 428 744 l 331 749 l 331 811 l 364 810 q 411 819 392 808 q 431 853 431 829 q 413 882 431 875 q 374 893 394 889 q 335 903 353 897 q 317 931 317 910 q 335 976 317 961 q 385 990 354 990 q 433 981 410 990 q 472 954 456 971 q 499 915 489 938 q 510 868 510 893 m 657 747 l 597 747 l 514 899 q 505 915 511 906 q 499 939 499 924 q 515 976 499 963 q 556 990 532 990 q 625 931 615 990 l 657 747 z "},"ù":{"ha":1003,"x_min":36,"x_max":942,"o":"m 556 -303 q 536 -338 558 -328 q 490 -349 514 -349 q 447 -337 467 -349 q 428 -303 428 -326 q 428 -285 428 -293 q 431 -269 429 -276 l 461 -86 l 521 -86 l 553 -271 l 556 -303 m 942 319 q 868 56 942 147 q 664 -35 794 -35 q 566 0 604 -35 q 489 94 528 35 q 401 -10 449 18 q 290 -37 353 -37 q 185 -10 232 -37 q 106 67 139 18 q 54 183 72 117 q 36 326 36 249 q 154 617 36 528 q 410 688 247 688 l 410 621 q 269 556 315 599 q 201 357 201 492 q 232 131 201 206 q 329 57 263 57 q 406 99 381 57 q 444 199 431 140 q 430 254 436 231 q 421 292 424 278 q 408 386 408 347 q 430 507 408 465 q 485 549 451 549 q 545 507 522 549 q 568 389 568 465 q 566 342 568 360 q 560 308 564 325 q 549 267 556 290 q 531 200 542 243 q 576 95 550 135 q 658 56 601 56 q 707 75 685 56 q 745 129 729 94 q 769 213 761 164 q 778 319 778 261 q 722 536 778 468 q 567 621 675 596 l 567 688 q 817 618 722 688 q 942 319 942 524 m 679 942 q 640 837 668 875 q 564 790 613 799 q 541 794 560 790 q 498 803 522 799 q 450 811 474 807 q 414 815 426 815 l 393 813 q 381 806 386 813 q 372 792 376 800 q 365 775 368 783 q 361 763 363 767 l 303 763 q 331 843 317 813 q 363 890 346 874 q 398 913 379 907 q 440 918 417 918 q 479 913 454 918 q 527 903 504 908 q 566 894 550 899 q 578 889 582 889 q 605 901 597 889 q 624 942 613 914 l 679 942 z "},"ú":{"ha":1003,"x_min":36,"x_max":942,"o":"m 556 -303 q 536 -338 558 -328 q 490 -349 514 -349 q 448 -337 468 -349 q 428 -303 428 -326 q 428 -283 428 -292 q 431 -268 429 -275 l 461 -85 l 521 -85 l 553 -269 l 556 -303 m 942 322 q 868 58 942 150 q 664 -33 794 -33 q 566 1 604 -33 q 489 96 528 36 q 401 -8 449 19 q 290 -36 353 -36 q 185 -8 232 -36 q 106 69 139 19 q 54 185 72 118 q 36 329 36 251 q 154 619 36 531 q 410 692 247 692 l 410 625 q 269 558 314 603 q 201 358 201 494 q 232 133 201 207 q 329 58 263 58 q 406 100 381 58 q 444 200 431 142 q 425 275 432 246 q 414 324 418 304 q 409 358 410 343 q 408 389 408 372 q 430 510 408 468 q 485 551 451 551 q 545 510 522 551 q 568 392 568 468 q 566 344 568 361 q 560 309 564 326 q 549 268 556 292 q 531 201 542 244 q 576 97 550 136 q 658 57 601 57 q 708 76 686 57 q 746 131 731 96 q 769 215 761 167 q 778 322 778 264 q 722 539 778 471 q 567 625 674 599 l 567 692 q 817 621 722 692 q 942 322 942 526 m 581 897 q 564 857 581 872 q 511 842 547 842 l 489 843 l 474 842 l 467 835 q 472 823 460 828 q 496 816 483 818 q 511 814 508 814 l 565 815 l 565 753 l 529 750 q 479 754 503 747 q 436 771 456 761 q 388 850 388 799 q 421 925 388 897 q 501 953 454 953 q 558 938 535 953 q 581 897 581 924 m 690 1101 q 649 998 681 1039 q 561 957 617 957 q 535 964 554 957 q 494 980 517 971 q 450 996 472 989 q 414 1003 428 1003 q 389 994 400 1003 q 363 953 378 986 l 307 953 q 349 1062 318 1024 q 436 1100 381 1100 q 474 1092 450 1100 q 520 1075 497 1085 q 560 1058 543 1065 q 582 1050 578 1050 q 613 1065 603 1050 q 635 1101 624 1079 l 690 1101 z "},"û":{"ha":1003,"x_min":36,"x_max":942,"o":"m 556 -303 q 536 -338 558 -328 q 490 -349 514 -349 q 448 -337 468 -349 q 428 -303 428 -326 q 428 -283 428 -292 q 431 -268 429 -275 l 461 -85 l 521 -85 l 553 -269 l 556 -303 m 942 322 q 868 58 942 150 q 664 -33 794 -33 q 566 1 604 -33 q 489 96 528 36 q 401 -8 449 19 q 290 -36 353 -36 q 185 -8 232 -36 q 106 69 139 19 q 54 185 72 118 q 36 329 36 251 q 154 619 36 531 q 410 692 247 692 l 410 625 q 269 558 314 603 q 201 358 201 494 q 232 133 201 207 q 329 58 263 58 q 406 100 381 58 q 444 200 431 142 q 425 275 432 246 q 414 324 418 304 q 409 358 410 343 q 408 389 408 372 q 430 510 408 468 q 485 551 451 551 q 545 510 522 551 q 568 392 568 468 q 566 344 568 361 q 560 309 564 326 q 549 268 556 292 q 531 201 542 244 q 576 97 550 136 q 658 57 601 57 q 708 76 686 57 q 746 131 731 96 q 769 215 761 167 q 778 322 778 264 q 722 539 778 471 q 567 625 674 599 l 567 692 q 817 621 722 692 q 942 322 942 526 m 593 851 q 582 808 593 828 q 551 775 571 789 q 507 754 532 761 q 456 750 482 747 l 415 753 l 415 815 l 447 814 q 464 813 454 813 l 476 813 q 514 833 514 813 q 489 843 514 843 l 475 842 q 422 855 446 839 q 399 899 399 871 q 422 943 399 928 q 478 958 444 958 q 521 950 500 958 q 558 927 542 942 q 583 893 574 913 q 593 851 593 874 m 690 1101 q 649 997 679 1036 q 563 953 613 953 q 523 960 547 953 q 475 978 499 968 q 433 995 451 988 q 411 1003 414 1003 q 385 991 394 1003 q 363 953 375 979 l 307 953 q 349 1062 318 1024 q 436 1100 381 1100 q 474 1092 450 1100 q 520 1075 497 1085 q 560 1058 543 1065 q 582 1050 578 1050 q 613 1065 603 1050 q 635 1101 624 1079 l 690 1101 z "},"ü":{"ha":617,"x_min":38,"x_max":586,"o":"m 586 154 q 501 19 586 67 q 310 -22 426 -22 q 119 28 192 -22 q 38 189 38 85 q 72 288 38 249 q 160 350 106 326 q 78 425 101 386 q 56 503 56 464 q 74 583 56 549 q 127 640 93 617 q 208 676 161 664 q 313 688 256 688 q 406 678 363 688 q 479 655 449 669 q 527 619 510 640 q 544 576 544 599 q 528 508 544 529 q 465 488 511 488 q 429 506 449 488 q 389 544 410 524 q 346 583 368 565 q 303 601 324 601 q 265 592 282 601 q 235 569 247 583 q 215 536 222 554 q 208 500 208 518 q 226 414 208 440 q 258 390 239 396 q 296 386 276 385 q 332 391 315 388 q 356 394 349 394 q 417 385 393 394 q 442 346 442 376 q 365 294 442 294 q 318 298 346 294 q 265 306 290 301 q 208 260 226 288 q 190 188 190 233 q 225 97 190 135 q 313 60 260 60 q 376 85 353 60 q 419 142 400 111 q 456 198 438 172 q 507 224 475 224 q 561 201 536 224 q 586 154 586 179 m 525 942 q 486 837 513 875 q 411 790 460 799 q 372 794 396 790 q 324 803 347 799 q 282 811 300 807 q 263 815 264 815 l 242 813 q 226 801 231 811 q 211 763 221 792 l 151 763 q 199 872 175 840 q 288 918 232 918 q 325 913 301 918 q 372 903 349 908 q 410 894 394 899 q 424 889 426 889 q 451 901 443 889 q 469 942 458 914 l 525 942 z "},"ÿ":{"ha":250,"x_min":51,"x_max":200,"o":"m 54 -275 q 71 -225 58 -258 q 99 -151 83 -192 q 129 -71 114 -111 q 156 0 144 -31 l 200 0 q 198 -56 199 -22 q 195 -128 197 -90 q 188 -204 193 -167 q 171 -272 182 -242 q 142 -322 160 -303 q 97 -340 124 -340 q 65 -328 79 -340 q 51 -294 51 -315 q 52 -287 51 -292 q 54 -275 53 -282 z "},"\"":{"ha":1104,"x_min":50,"x_max":1024,"o":"m 940 -287 q 903 8 940 -132 q 793 283 865 149 l 525 63 l 468 135 l 746 364 q 697 433 725 397 q 639 503 669 469 l 356 271 l 297 342 l 574 568 q 343 724 472 661 q 50 813 214 786 l 50 896 q 747 543 483 853 q 1024 -287 1024 221 l 940 -287 z "},"!":{"ha":938,"x_min":78,"x_max":853,"o":"m 114 1 q 84 8 90 1 q 78 35 78 15 l 78 243 q 81 258 78 254 q 83 263 83 263 l 90 267 q 99 263 93 267 q 106 260 106 260 l 168 197 q 175 194 176 194 q 183 197 175 194 l 746 757 q 771 771 760 771 q 785 767 778 771 q 799 758 792 764 l 840 718 q 853 692 853 710 q 840 665 853 674 l 275 104 q 271 97 271 100 q 272 92 271 93 l 335 33 q 343 26 342 33 q 344 10 344 19 q 335 2 340 3 q 321 1 331 1 l 114 1 z "},"":{"ha":694,"x_min":88,"x_max":585,"o":"m 353 726 q 363 800 353 768 q 394 859 374 832 q 447 911 415 886 q 518 964 478 936 q 554 979 522 968 l 585 915 q 533 878 554 893 q 497 849 511 863 q 475 821 482 836 q 468 783 468 806 q 485 760 468 769 q 524 741 503 751 q 563 715 546 731 q 581 672 581 700 q 553 601 581 629 q 482 574 525 574 q 433 585 457 574 q 392 617 410 596 q 363 665 374 638 q 353 726 353 693 m 88 721 q 161 890 88 817 q 296 982 210 939 l 328 915 q 279 881 296 893 q 260 867 263 869 q 204 782 204 824 q 222 767 204 772 q 259 754 239 763 q 297 728 279 746 q 314 675 314 710 q 285 603 314 632 q 215 574 256 574 q 167 585 190 574 q 126 615 144 596 q 98 662 108 635 q 88 721 88 689 z "},"€":{"ha":694,"x_min":88,"x_max":585,"o":"m 353 726 q 363 800 353 768 q 394 859 374 832 q 447 911 415 886 q 518 964 478 936 q 554 979 522 968 l 585 915 q 533 878 554 893 q 497 849 511 863 q 475 821 482 836 q 468 783 468 806 q 485 760 468 769 q 524 741 503 751 q 563 715 546 731 q 581 672 581 700 q 553 601 581 629 q 482 574 525 574 q 433 585 457 574 q 392 617 410 596 q 363 665 374 638 q 353 726 353 693 m 88 721 q 161 890 88 817 q 296 982 210 939 l 328 915 q 279 881 296 893 q 260 867 263 869 q 204 782 204 824 q 222 767 204 772 q 259 754 239 763 q 297 728 279 746 q 314 675 314 710 q 285 603 314 632 q 215 574 256 574 q 167 585 190 574 q 126 615 144 596 q 98 662 108 635 q 88 721 88 689 z "},"":{"ha":694,"x_min":119,"x_max":617,"o":"m 351 815 q 341 742 351 774 q 310 683 331 710 q 258 631 289 656 q 186 578 226 606 q 150 563 181 572 l 119 626 q 172 664 150 649 q 208 692 193 679 q 229 721 222 706 q 236 758 236 736 q 219 781 236 772 q 180 801 201 790 q 141 826 158 811 q 124 869 124 842 q 151 940 124 913 q 222 968 179 968 q 271 957 247 968 q 313 925 294 946 q 341 876 331 904 q 351 815 351 849 m 617 821 q 543 651 617 725 q 408 560 494 603 l 376 626 q 425 660 408 649 q 444 675 442 672 q 500 760 500 718 q 483 774 500 769 q 445 788 465 779 q 408 813 425 796 q 390 867 390 831 q 419 939 390 910 q 489 968 449 968 q 537 957 514 968 q 578 926 560 946 q 606 880 596 907 q 617 821 617 853 z "},"Š":{"ha":386,"x_min":-36,"x_max":365,"o":"m 365 171 q 360 96 365 131 q 340 35 354 61 q 302 -7 326 8 q 242 -22 278 -22 q 137 23 169 -22 q 104 160 104 68 l 103 493 q 99 528 103 515 q 85 547 94 540 q 57 558 75 554 q 13 567 39 561 l 13 621 q 90 640 35 626 q 213 674 146 654 l 243 674 l 243 125 q 246 92 243 106 q 269 79 249 79 q 290 90 282 79 q 301 117 297 101 q 307 147 306 132 q 310 171 308 163 l 365 171 m 150 869 q 139 820 150 843 q 110 781 128 797 q 67 756 92 764 q 15 749 42 747 l -22 750 l -22 813 l 10 811 q 56 822 38 811 q 74 854 74 832 q 56 883 74 876 q 19 894 39 890 q -19 905 -1 899 q -36 932 -36 911 q -17 976 -36 960 q 29 992 1 992 q 76 982 54 992 q 114 956 97 972 q 140 917 131 939 q 150 869 150 894 m 292 749 l 235 749 l 154 900 q 144 919 147 911 q 140 940 140 928 q 156 978 140 964 q 194 992 171 992 q 261 932 251 992 l 292 749 z "},"":{"ha":386,"x_min":-31,"x_max":365,"o":"m 365 171 q 360 95 365 131 q 340 33 354 60 q 303 -8 326 7 q 243 -22 279 -22 q 140 23 172 -22 q 107 160 107 68 l 106 493 q 102 529 106 517 q 88 549 99 542 q 60 559 78 556 q 15 568 43 563 l 15 622 q 49 629 28 624 q 96 642 69 635 q 153 658 122 649 q 214 675 183 667 l 244 675 l 244 126 q 249 92 244 104 q 271 79 254 79 q 292 90 285 79 q 302 117 299 101 q 307 147 306 132 q 310 171 308 163 l 365 171 m 244 853 q 201 775 244 801 q 160 756 183 764 q 113 751 138 749 l 75 754 l 75 817 l 106 815 q 121 814 111 814 l 133 814 q 157 817 146 814 q 168 833 168 819 q 144 844 168 844 l 131 843 q 80 856 103 840 q 57 899 57 872 q 79 944 57 929 q 133 958 101 958 q 174 950 154 958 q 210 927 194 942 q 235 893 226 913 q 244 853 244 874 m 338 1101 q 299 997 328 1039 q 215 953 265 953 q 178 960 201 953 q 133 978 156 968 q 92 995 110 988 q 71 1003 74 1003 q 42 988 53 1003 q 24 953 32 972 l -31 953 q 12 1060 -18 1021 q 93 1100 42 1100 q 130 1092 107 1100 q 174 1075 153 1085 q 213 1058 196 1065 q 235 1050 231 1050 q 268 1069 258 1050 q 285 1101 278 1089 l 338 1101 z "},"":{"ha":386,"x_min":-37,"x_max":365,"o":"m 365 171 q 360 96 365 131 q 340 35 354 61 q 302 -7 326 8 q 242 -22 278 -22 q 137 23 169 -22 q 104 160 104 68 l 103 492 q 98 526 103 514 q 83 547 93 539 q 55 558 72 554 q 13 565 38 561 l 13 619 q 90 639 35 625 q 213 672 146 653 l 243 672 l 243 125 q 246 92 243 106 q 269 79 249 79 q 290 90 282 79 q 301 117 297 101 q 307 147 306 132 q 310 171 308 163 l 365 171 m 117 844 q 94 789 117 813 q 39 765 72 765 q -15 788 7 765 q -37 843 -37 810 q -15 901 -37 878 q 39 925 7 925 q 93 901 69 925 q 117 844 117 878 m 351 847 q 329 790 351 814 q 275 767 307 767 q 221 790 243 767 q 199 847 199 814 q 221 903 199 879 q 275 926 243 926 q 329 904 307 926 q 351 847 351 882 z "},"Ž":{"ha":386,"x_min":-37,"x_max":365,"o":"m 365 171 q 360 96 365 131 q 340 35 354 61 q 302 -7 326 8 q 242 -22 278 -22 q 137 23 169 -22 q 104 160 104 68 l 103 492 q 98 526 103 514 q 83 547 93 539 q 55 558 72 554 q 13 565 38 561 l 13 619 q 90 639 35 625 q 213 672 146 653 l 243 672 l 243 125 q 246 92 243 106 q 269 79 249 79 q 290 90 282 79 q 301 117 297 101 q 307 147 306 132 q 310 171 308 163 l 365 171 m 117 844 q 94 789 117 813 q 39 765 72 765 q -15 788 7 765 q -37 843 -37 810 q -15 901 -37 878 q 39 925 7 925 q 93 901 69 925 q 117 844 117 878 m 351 847 q 329 790 351 814 q 275 767 307 767 q 221 790 243 767 q 199 847 199 814 q 221 903 199 879 q 275 926 243 926 q 329 904 307 926 q 351 847 351 882 z "},"":{"ha":386,"x_min":-107,"x_max":419,"o":"m 368 171 q 363 96 368 131 q 342 35 357 61 q 304 -7 328 8 q 243 -22 281 -22 q 135 22 168 -22 q 103 160 103 67 l 101 493 q 97 528 101 515 q 83 547 93 540 q 54 558 72 554 q 10 567 36 561 l 10 621 q 31 626 10 621 q 83 640 51 632 q 149 656 114 647 q 213 674 185 665 l 244 674 l 244 125 q 249 91 244 103 q 271 79 254 79 q 293 90 286 79 q 303 117 300 101 q 308 147 307 132 q 311 171 308 163 l 368 171 m 49 832 q 26 776 49 800 q -31 751 3 751 q -85 774 -62 751 q -107 831 -107 796 q -85 888 -107 864 q -31 911 -62 911 q 25 888 1 911 q 49 832 49 864 m 260 943 q 243 899 260 917 l 135 749 l 78 749 l 138 935 q 161 978 147 965 q 203 992 175 992 q 245 978 231 992 q 260 943 260 965 m 419 835 q 397 777 419 801 q 342 753 374 753 q 288 778 311 753 q 264 835 264 803 q 286 890 264 868 q 342 913 308 913 q 397 890 375 913 q 419 835 419 868 z "},"":{"ha":386,"x_min":-106,"x_max":421,"o":"m 368 171 q 363 96 368 131 q 342 35 357 61 q 304 -7 328 8 q 243 -22 281 -22 q 135 22 168 -22 q 103 160 103 67 l 101 493 q 97 528 101 515 q 83 547 93 540 q 54 558 72 554 q 10 567 36 561 l 10 621 q 31 626 10 621 q 83 640 51 632 q 149 656 114 647 q 213 674 185 665 l 244 674 l 244 125 q 249 91 244 103 q 271 79 254 79 q 293 90 286 79 q 303 117 300 101 q 308 147 307 132 q 311 171 308 163 l 368 171 m 50 835 q 27 777 50 801 q -28 753 4 753 q -82 778 -58 753 q -106 835 -106 803 q -83 890 -106 868 q -28 913 -61 913 q 28 890 6 913 q 50 835 50 868 m 236 749 l 179 749 l 72 899 q 59 921 64 911 q 54 943 54 931 q 113 992 54 992 q 153 976 136 992 q 178 935 169 961 l 236 749 m 421 831 q 399 774 421 797 q 344 751 378 751 q 289 775 313 751 q 265 832 265 799 q 289 888 265 864 q 344 911 313 911 q 399 888 376 911 q 421 831 421 864 z "},"š":{"ha":617,"x_min":38,"x_max":586,"o":"m 586 154 q 501 19 586 67 q 310 -22 426 -22 q 119 28 192 -22 q 38 189 38 85 q 72 288 38 249 q 160 350 106 326 q 78 425 101 386 q 56 503 56 464 q 74 583 56 549 q 127 640 93 617 q 208 676 161 664 q 313 688 256 688 q 406 678 363 688 q 479 655 449 669 q 527 619 510 640 q 544 576 544 599 q 528 508 544 529 q 465 488 511 488 q 429 506 449 488 q 389 544 410 524 q 346 583 368 565 q 303 601 324 601 q 265 592 282 601 q 235 569 247 583 q 215 536 222 554 q 208 500 208 518 q 226 414 208 440 q 258 390 239 396 q 296 386 276 385 q 332 391 315 388 q 356 394 349 394 q 417 385 393 394 q 442 346 442 376 q 365 294 442 294 q 318 298 346 294 q 265 306 290 301 q 208 260 226 288 q 190 188 190 233 q 225 97 190 135 q 313 60 260 60 q 376 85 353 60 q 419 142 400 111 q 456 198 438 172 q 507 224 475 224 q 561 201 536 224 q 586 154 586 179 m 453 943 q 436 899 453 919 l 328 749 l 271 749 l 329 935 q 353 977 339 963 q 394 992 368 992 q 438 978 424 992 q 453 943 453 965 z "},"":{"ha":617,"x_min":38,"x_max":586,"o":"m 586 154 q 501 19 586 67 q 310 -22 426 -22 q 119 28 192 -22 q 38 189 38 85 q 72 288 38 249 q 160 350 106 326 q 78 425 101 386 q 56 503 56 464 q 74 583 56 549 q 127 640 93 617 q 208 676 161 664 q 313 688 256 688 q 406 678 363 688 q 479 655 449 669 q 527 619 510 640 q 544 576 544 599 q 528 508 544 529 q 465 488 511 488 q 429 506 449 488 q 389 544 410 524 q 346 583 368 565 q 303 601 324 601 q 265 592 282 601 q 235 569 247 583 q 215 536 222 554 q 208 500 208 518 q 226 414 208 440 q 258 390 239 396 q 296 386 276 385 q 332 391 315 388 q 356 394 349 394 q 417 385 393 394 q 442 346 442 376 q 365 294 442 294 q 318 298 346 294 q 265 306 290 301 q 208 260 226 288 q 190 188 190 233 q 225 97 190 135 q 313 60 260 60 q 376 85 353 60 q 419 142 400 111 q 456 198 438 172 q 507 224 475 224 q 561 201 536 224 q 586 154 586 179 m 347 749 l 290 749 l 182 899 q 170 919 175 910 q 165 943 165 929 q 222 992 165 992 q 263 978 250 992 q 288 935 276 964 l 347 749 z "},"":{"ha":617,"x_min":38,"x_max":586,"o":"m 442 932 q 374 992 432 992 q 318 940 318 992 q 322 919 318 926 q 332 900 325 913 l 414 750 l 472 750 l 442 932 m 329 933 q 312 906 329 913 q 274 894 294 899 q 235 883 253 890 q 218 857 218 876 q 235 823 218 838 q 275 811 253 808 l 313 814 l 313 751 l 278 750 q 225 757 250 749 q 181 781 200 765 q 151 818 163 796 q 139 868 139 840 q 149 916 139 893 q 175 956 158 939 q 214 983 192 972 q 261 993 236 993 l 279 990 q 315 971 300 988 q 329 933 329 954 m 586 154 q 561 201 586 179 q 507 224 536 224 q 456 198 475 224 q 419 142 438 172 q 376 85 400 111 q 313 60 353 60 q 225 97 260 60 q 190 188 190 135 q 208 260 190 233 q 265 306 226 288 q 318 298 290 301 q 365 294 346 294 q 442 346 442 294 q 417 385 442 376 q 356 394 393 394 q 332 391 349 394 q 296 386 315 388 q 258 390 276 385 q 226 414 239 396 q 208 500 208 440 q 215 536 208 518 q 235 569 222 554 q 265 592 247 583 q 303 601 282 601 q 346 583 324 601 q 389 544 368 565 q 429 506 410 524 q 465 488 449 488 q 528 508 511 488 q 544 576 544 529 q 527 619 544 599 q 479 655 510 640 q 406 678 449 669 q 313 688 363 688 q 208 676 256 688 q 127 640 161 664 q 74 583 93 617 q 56 503 56 549 q 78 425 56 464 q 160 350 101 386 q 72 288 106 326 q 38 189 38 249 q 119 28 38 85 q 310 -22 192 -22 q 501 19 426 -22 q 586 154 586 67 z "},"ž":{"ha":617,"x_min":38,"x_max":586,"o":"m 442 932 q 374 992 432 992 q 318 940 318 992 q 322 919 318 926 q 332 900 325 913 l 414 750 l 472 750 l 442 932 m 329 933 q 312 906 329 913 q 274 894 294 899 q 235 883 253 890 q 218 857 218 876 q 235 823 218 838 q 275 811 253 808 l 313 814 l 313 751 l 278 750 q 225 757 250 749 q 181 781 200 765 q 151 818 163 796 q 139 868 139 840 q 149 916 139 893 q 175 956 158 939 q 214 983 192 972 q 261 993 236 993 l 279 990 q 315 971 300 988 q 329 933 329 954 m 586 154 q 561 201 586 179 q 507 224 536 224 q 456 198 475 224 q 419 142 438 172 q 376 85 400 111 q 313 60 353 60 q 225 97 260 60 q 190 188 190 135 q 208 260 190 233 q 265 306 226 288 q 318 298 290 301 q 365 294 346 294 q 442 346 442 294 q 417 385 442 376 q 356 394 393 394 q 332 391 349 394 q 296 386 315 388 q 258 390 276 385 q 226 414 239 396 q 208 500 208 440 q 215 536 208 518 q 235 569 222 554 q 265 592 247 583 q 303 601 282 601 q 346 583 324 601 q 389 544 368 565 q 429 506 410 524 q 465 488 449 488 q 528 508 511 488 q 544 576 544 529 q 527 619 544 599 q 479 655 510 640 q 406 678 449 669 q 313 688 363 688 q 208 676 256 688 q 127 640 161 664 q 74 583 93 617 q 56 503 56 549 q 78 425 56 464 q 160 350 101 386 q 72 288 106 326 q 38 189 38 249 q 119 28 38 85 q 310 -22 192 -22 q 501 19 426 -22 q 586 154 586 67 z "},"¦":{"ha":849,"x_min":79,"x_max":792,"o":"m 501 376 q 442 535 481 478 q 353 593 403 593 q 298 563 319 593 q 264 490 276 533 q 247 396 251 446 q 242 306 242 346 q 274 113 242 174 q 350 64 301 64 q 417 98 388 64 q 463 200 447 132 q 485 300 476 256 q 501 376 494 344 m 792 165 q 777 97 786 131 q 755 38 768 64 q 722 -6 742 11 q 676 -22 703 -22 q 608 17 632 -22 q 571 107 585 56 q 521 41 546 67 q 469 0 496 15 q 412 -21 442 -15 q 347 -26 382 -26 q 157 65 229 -26 q 79 336 79 164 q 142 575 79 476 q 338 686 213 686 q 451 645 408 686 q 533 521 493 604 l 565 665 l 717 668 l 646 328 q 632 265 638 288 q 626 232 626 243 q 641 129 626 165 q 686 93 656 93 q 703 96 697 93 q 715 107 710 99 q 725 129 719 115 q 740 165 731 143 l 792 165 m 378 750 l 321 750 l 211 899 q 198 920 203 910 q 193 943 193 931 q 253 992 193 992 q 293 976 276 992 q 318 935 310 961 l 378 750 z "},"­":{"ha":849,"x_min":79,"x_max":792,"o":"m 413 -303 q 394 -339 415 -328 q 349 -350 372 -350 q 306 -339 326 -350 q 286 -303 286 -328 q 287 -285 286 -293 q 289 -269 288 -276 l 319 -86 l 378 -86 l 410 -271 l 413 -303 m 501 372 q 442 531 481 474 q 353 589 403 589 q 298 559 319 589 q 264 485 276 529 q 247 392 251 442 q 242 301 242 342 q 261 140 242 206 q 350 57 288 57 q 450 149 418 57 q 465 212 453 156 q 501 372 478 268 m 792 160 q 778 92 786 126 q 756 31 769 58 q 722 -12 742 4 q 676 -29 703 -29 q 638 -18 654 -29 q 608 11 621 -7 q 587 53 596 29 q 571 101 578 76 q 467 -6 521 21 q 347 -33 414 -33 q 157 60 229 -33 q 79 331 79 158 q 142 571 79 472 q 338 683 213 683 q 453 640 411 683 q 533 517 496 597 l 565 663 l 717 665 l 646 322 q 633 269 639 289 q 626 226 626 249 q 641 124 626 160 q 686 88 656 88 q 708 97 699 88 q 723 117 717 106 q 733 141 729 129 q 740 160 738 153 l 792 160 m 463 868 q 424 780 463 813 q 326 747 385 747 q 289 763 289 747 l 289 811 l 319 810 q 365 819 344 810 q 386 853 386 829 q 368 881 386 874 q 328 893 350 889 q 289 904 307 897 q 271 932 271 911 q 290 976 271 961 q 340 990 310 990 q 426 956 390 990 q 463 868 463 921 z "},"²":{"ha":849,"x_min":79,"x_max":792,"o":"m 500 931 q 431 990 490 990 q 375 939 375 990 q 378 920 375 926 q 389 899 381 914 l 472 747 l 531 747 l 500 931 m 386 932 q 369 904 386 911 q 330 893 351 897 q 291 882 308 889 q 274 856 274 875 q 291 822 274 836 q 331 810 308 808 l 369 813 l 369 750 l 335 747 q 283 753 307 744 q 239 776 258 763 q 194 867 194 810 q 205 915 194 892 q 232 954 215 938 q 271 981 249 971 q 318 992 293 992 l 336 989 q 372 970 357 986 q 386 932 386 954 m 740 160 q 733 141 738 153 q 723 117 729 129 q 708 97 717 106 q 686 88 699 88 q 641 124 656 88 q 626 226 626 160 q 633 269 626 249 q 646 322 639 289 l 717 665 l 565 663 l 533 517 q 453 640 496 597 q 338 683 411 683 q 142 571 213 683 q 79 331 79 472 q 157 60 79 158 q 347 -33 229 -33 q 467 -6 414 -33 q 571 101 521 21 q 587 53 578 76 q 608 11 596 29 q 638 -18 621 -7 q 676 -29 654 -29 q 722 -12 703 -29 q 756 31 742 4 q 778 92 769 58 q 792 160 786 126 l 740 160 m 501 372 q 465 212 478 268 q 450 149 453 156 q 350 57 418 57 q 261 140 288 57 q 242 301 242 206 q 247 392 242 342 q 264 485 251 442 q 298 559 276 529 q 353 589 319 589 q 442 531 403 589 q 501 372 481 474 m 410 -271 l 378 -86 l 319 -86 l 289 -269 q 287 -285 288 -276 q 286 -303 286 -293 q 306 -339 286 -328 q 349 -350 326 -350 q 394 -339 372 -350 q 413 -303 415 -328 l 410 -271 z "},"³":{"ha":849,"x_min":79,"x_max":792,"o":"m 413 -303 q 394 -339 415 -328 q 349 -350 372 -350 q 306 -339 326 -350 q 286 -303 286 -328 q 287 -285 286 -293 q 289 -269 288 -276 l 319 -86 l 378 -86 l 410 -271 l 413 -303 m 501 372 q 442 531 481 474 q 353 589 403 589 q 298 559 319 589 q 264 485 276 529 q 247 392 251 442 q 242 301 242 342 q 261 140 242 206 q 350 57 288 57 q 450 149 418 57 q 465 212 453 156 q 501 372 478 268 m 792 160 q 778 92 786 126 q 756 31 769 58 q 722 -12 742 4 q 676 -29 703 -29 q 638 -18 654 -29 q 608 11 621 -7 q 587 53 596 29 q 571 101 578 76 q 467 -6 521 21 q 347 -33 414 -33 q 157 60 229 -33 q 79 331 79 158 q 142 571 79 472 q 338 683 213 683 q 453 640 411 683 q 533 517 496 597 l 565 663 l 717 665 l 646 322 q 633 269 639 289 q 626 226 626 249 q 641 124 626 160 q 686 88 656 88 q 708 97 699 88 q 723 117 717 106 q 733 141 729 129 q 740 160 738 153 l 792 160 m 399 868 q 358 778 399 813 q 260 747 318 744 l 222 749 l 222 811 l 256 810 q 301 819 282 808 q 321 853 321 829 q 303 882 321 875 q 265 893 286 889 q 226 903 243 897 q 208 931 208 910 q 226 976 208 961 q 275 990 244 990 q 323 981 300 990 q 363 954 346 971 q 389 915 379 938 q 399 868 399 893 m 544 747 l 485 747 l 403 899 q 394 915 400 906 q 388 939 388 924 q 404 976 388 963 q 444 990 421 990 q 514 931 504 990 l 544 747 z "},"¹":{"ha":772,"x_min":15,"x_max":683,"o":"m 539 -250 q 519 -153 526 -189 q 510 -87 513 -118 q 506 -17 507 -56 q 506 88 506 21 l 506 456 q 433 564 506 564 q 363 547 392 564 q 296 494 333 531 l 296 -6 l 150 -6 l 150 461 q 146 539 150 522 q 111 571 138 571 q 90 561 97 571 q 80 539 83 551 q 75 513 76 526 q 72 492 74 500 l 22 489 q 17 518 19 508 q 15 526 15 528 q 53 644 15 606 q 161 683 90 683 q 248 661 222 683 q 282 579 274 639 q 364 650 325 626 q 479 683 418 683 q 651 450 651 683 l 651 58 q 660 -133 651 -82 q 672 -194 667 -165 q 683 -250 678 -224 l 539 -250 m 447 932 q 429 904 447 911 q 390 893 411 897 q 351 881 369 889 q 333 853 333 874 q 353 820 333 832 q 399 810 374 808 l 429 811 l 429 763 q 392 747 429 747 q 294 778 333 747 q 256 868 256 810 q 290 956 256 921 q 378 990 325 990 q 427 976 407 990 q 447 932 447 961 z "},"¼":{"ha":772,"x_min":15,"x_max":683,"o":"m 539 -250 q 519 -153 526 -189 q 510 -87 513 -118 q 506 -17 507 -56 q 506 88 506 21 l 506 456 q 433 564 506 564 q 363 547 392 564 q 296 494 333 531 l 296 -6 l 150 -6 l 150 461 q 146 539 150 522 q 111 571 138 571 q 90 561 97 571 q 80 539 83 551 q 75 513 76 526 q 72 492 74 500 l 22 489 q 17 518 19 508 q 15 526 15 528 q 53 644 15 606 q 161 683 90 683 q 248 661 222 683 q 282 579 274 639 q 364 650 325 626 q 479 683 418 683 q 651 450 651 683 l 651 58 q 660 -133 651 -82 q 672 -194 667 -165 q 683 -250 678 -224 l 539 -250 m 363 933 q 344 894 363 901 q 306 885 326 886 q 267 879 285 883 q 249 853 249 875 q 256 829 249 838 q 278 817 264 821 q 310 812 292 813 q 347 811 328 811 l 347 750 l 313 747 q 261 753 285 744 q 218 775 238 763 q 174 863 174 807 q 183 911 174 888 q 210 953 193 935 q 249 981 226 971 q 296 992 271 992 q 342 976 322 992 q 363 933 363 960 m 533 942 q 515 897 533 915 l 408 747 l 351 747 l 411 932 q 434 976 421 961 q 476 990 447 990 q 517 979 501 990 q 533 942 533 968 z "},"½":{"ha":772,"x_min":15,"x_max":683,"o":"m 539 -250 q 519 -153 526 -189 q 510 -87 513 -118 q 506 -17 507 -56 q 506 88 506 21 l 506 456 q 433 564 506 564 q 363 547 392 564 q 296 494 333 531 l 296 -6 l 150 -6 l 150 461 q 146 539 150 522 q 111 571 138 571 q 90 561 97 571 q 80 539 83 551 q 75 513 76 526 q 72 492 74 500 l 22 489 q 17 518 19 508 q 15 526 15 528 q 53 644 15 606 q 161 683 90 683 q 248 661 222 683 q 282 579 274 639 q 364 650 325 626 q 479 683 418 683 q 651 450 651 683 l 651 58 q 660 -133 651 -82 q 672 -194 667 -165 q 683 -250 678 -224 l 539 -250 m 417 868 q 406 819 417 842 q 376 779 394 796 q 332 754 357 763 q 281 747 307 746 l 242 749 l 242 811 l 272 810 q 322 821 307 808 q 338 850 338 833 q 321 879 338 879 l 304 879 q 283 880 296 879 q 257 885 269 881 q 235 901 244 890 q 226 932 226 913 q 245 976 226 961 q 294 990 264 990 q 342 981 319 990 q 381 954 364 971 q 407 915 397 938 q 417 868 417 893 m 588 942 q 571 897 588 918 l 461 747 l 404 747 l 464 933 q 478 965 472 960 q 529 990 494 990 q 573 977 558 990 q 588 942 588 964 z "},"¾":{"ha":772,"x_min":15,"x_max":683,"o":"m 539 -250 q 519 -153 526 -189 q 510 -87 513 -118 q 506 -17 507 -56 q 506 88 506 21 l 506 456 q 433 564 506 564 q 363 547 392 564 q 296 494 333 531 l 296 -6 l 150 -6 l 150 461 q 146 539 150 522 q 111 571 138 571 q 90 561 97 571 q 80 539 83 551 q 75 513 76 526 q 72 492 74 500 l 22 489 q 17 518 19 508 q 15 526 15 528 q 53 644 15 606 q 161 683 90 683 q 248 661 222 683 q 282 579 274 639 q 364 650 325 626 q 479 683 418 683 q 651 450 651 683 l 651 58 q 660 -133 651 -82 q 672 -194 667 -165 q 683 -250 678 -224 l 539 -250 m 428 747 l 371 747 l 263 897 q 249 919 254 908 q 244 942 244 929 q 303 990 244 990 q 344 976 331 990 q 368 933 358 963 l 428 747 z "},"Ð":{"ha":772,"x_min":58,"x_max":714,"o":"m 556 265 q 517 481 556 393 q 378 597 468 597 q 250 528 296 597 q 211 379 211 468 q 254 176 211 261 q 408 65 308 65 q 471 84 443 65 q 517 132 499 103 q 546 197 536 161 q 556 265 556 232 m 714 343 q 632 101 714 208 q 378 -22 536 -22 q 250 3 308 -22 q 149 74 192 28 q 82 183 106 119 q 58 325 58 247 q 83 465 58 400 q 153 580 108 531 q 260 657 199 629 q 394 685 321 685 q 633 576 543 685 q 714 343 714 479 m 450 933 q 432 906 450 913 q 392 894 414 899 q 353 883 371 890 q 335 854 335 875 q 356 822 335 833 q 401 811 376 810 l 432 813 l 432 764 q 419 752 432 756 q 393 749 407 749 q 298 781 338 749 q 258 869 258 814 q 293 957 258 922 q 381 992 328 992 q 430 977 410 992 q 450 933 450 963 z "},"×":{"ha":772,"x_min":58,"x_max":714,"o":"m 556 265 q 517 481 556 393 q 378 597 468 597 q 250 528 296 597 q 211 379 211 468 q 254 176 211 261 q 408 65 308 65 q 471 84 443 65 q 517 132 499 103 q 546 197 536 161 q 556 265 556 232 m 714 343 q 632 101 714 208 q 378 -22 536 -22 q 250 3 308 -22 q 149 74 192 28 q 82 183 106 119 q 58 325 58 247 q 83 465 58 400 q 153 580 108 531 q 260 657 199 629 q 394 685 321 685 q 633 576 543 685 q 714 343 714 479 m 399 869 q 388 820 399 843 q 357 781 376 797 q 313 756 338 764 q 261 749 288 747 l 222 750 l 222 813 l 256 811 q 301 820 282 810 q 321 854 321 831 q 303 883 321 876 q 265 894 286 890 q 226 905 243 899 q 208 932 208 911 q 227 976 208 960 q 275 992 246 992 q 323 982 300 992 q 363 956 346 972 q 389 917 379 939 q 399 869 399 894 m 544 749 l 486 749 l 403 900 q 392 919 396 911 q 389 940 389 928 q 444 992 389 992 q 490 977 471 992 q 514 932 508 963 l 544 749 z "},"Ý":{"ha":694,"x_min":33,"x_max":642,"o":"m 642 349 q 618 197 642 265 q 554 81 594 129 q 458 6 514 32 q 338 -21 401 -21 q 158 51 221 -21 q 90 292 90 128 q 92 307 90 294 q 95 335 93 319 q 99 367 97 351 q 100 394 100 383 q 90 470 100 436 q 67 530 79 504 q 44 574 54 556 q 33 601 33 592 q 53 676 33 651 q 121 700 72 700 q 184 673 160 700 q 221 603 208 646 q 238 509 233 561 q 242 406 242 457 q 240 383 242 397 q 238 352 239 368 q 235 320 236 336 q 233 294 233 304 q 268 115 233 167 q 349 72 294 72 q 479 154 431 72 q 522 354 522 231 q 482 549 522 475 q 394 647 458 596 l 418 694 q 565 594 510 663 q 642 349 642 501 m 335 749 l 278 749 l 169 899 q 156 920 161 910 q 151 943 151 931 q 211 992 151 992 q 251 976 236 992 q 275 935 267 961 l 335 749 z "},"Þ":{"ha":694,"x_min":33,"x_max":642,"o":"m 404 932 q 380 977 399 963 q 335 992 361 992 q 279 940 279 992 q 283 920 279 929 q 294 900 288 911 l 376 749 l 435 749 l 404 932 m 290 933 q 273 906 290 913 q 235 894 256 899 q 197 883 214 890 q 179 857 179 876 q 197 823 179 838 q 236 811 214 808 l 274 814 l 274 751 l 240 749 q 188 755 213 746 q 144 778 164 764 q 100 868 100 811 q 110 916 100 893 q 136 956 119 939 q 175 983 153 972 q 222 993 197 993 l 242 990 q 276 971 263 988 q 290 933 290 954 m 642 349 q 565 594 642 501 q 418 694 510 663 l 394 647 q 482 550 456 596 q 522 354 522 476 q 479 154 522 231 q 349 72 431 72 q 268 115 294 72 q 233 294 233 167 q 235 320 233 304 q 238 352 236 336 q 240 383 239 368 q 242 406 242 397 q 238 509 242 457 q 221 603 233 561 q 184 673 208 646 q 121 700 160 700 q 53 676 72 700 q 33 601 33 651 q 44 574 33 592 q 67 530 54 556 q 90 470 79 504 q 100 394 100 436 q 99 367 100 383 q 95 335 97 351 q 92 307 93 319 q 90 292 90 294 q 158 51 90 128 q 338 -21 221 -21 q 458 6 401 -21 q 554 81 514 32 q 618 197 594 129 q 642 349 642 265 z "},"ð":{"ha":1003,"x_min":36,"x_max":942,"o":"m 942 325 q 868 65 942 157 q 664 -28 794 -28 q 566 7 606 -28 q 489 100 526 42 q 408 1 454 33 q 290 -31 361 -31 q 185 -3 232 -31 q 106 74 139 25 q 54 190 72 124 q 36 332 36 256 q 154 621 36 532 q 410 693 247 693 l 410 626 q 269 561 315 604 q 201 363 201 497 q 232 140 201 215 q 329 64 263 64 q 406 106 381 64 q 444 206 431 147 q 428 266 435 240 q 417 313 421 292 q 410 352 413 333 q 408 392 408 371 q 431 510 408 468 q 485 553 453 553 q 545 511 522 553 q 568 394 568 469 q 567 365 568 378 q 563 334 567 353 q 552 286 560 315 q 531 207 544 257 q 576 102 550 142 q 658 63 601 63 q 707 82 685 63 q 745 136 729 101 q 769 219 761 171 q 778 325 778 267 q 722 542 778 474 q 567 626 675 601 l 567 693 q 817 624 722 693 q 942 325 942 529 m 593 853 q 582 810 593 829 q 551 776 571 790 q 507 756 532 763 q 456 751 482 749 l 415 754 l 415 817 l 447 815 q 464 814 454 814 l 476 814 q 514 835 514 814 q 489 844 514 844 l 475 843 q 422 856 446 840 q 399 899 399 872 q 422 944 399 929 q 478 958 446 958 q 521 950 500 958 q 558 927 542 942 q 583 893 574 913 q 593 853 593 874 m 690 1101 q 649 997 679 1036 q 563 953 613 953 q 539 961 558 953 q 496 978 519 969 q 449 996 472 988 q 411 1004 425 1004 q 385 992 394 1004 q 363 953 376 981 l 307 953 q 349 1062 318 1024 q 436 1100 381 1100 q 474 1092 450 1100 q 520 1075 497 1085 q 560 1058 543 1065 q 582 1050 578 1050 q 613 1065 603 1050 q 635 1101 624 1079 l 690 1101 z "},"ý":{"ha":772,"x_min":58,"x_max":714,"o":"m 556 265 q 517 481 556 393 q 378 597 468 597 q 250 528 296 597 q 211 379 211 468 q 254 176 211 261 q 408 65 308 65 q 471 84 443 65 q 517 132 499 103 q 546 197 536 161 q 556 265 556 232 m 714 343 q 632 101 714 208 q 378 -22 536 -22 q 250 3 308 -22 q 149 74 192 28 q 82 183 106 119 q 58 325 58 247 q 83 465 58 400 q 153 580 108 531 q 260 657 199 629 q 394 685 321 685 q 633 576 543 685 q 714 343 714 479 m 589 942 q 550 837 576 875 q 475 790 524 799 q 435 794 460 790 q 388 803 411 799 q 346 811 364 807 q 326 815 328 815 l 306 813 q 290 801 294 811 q 275 763 285 792 l 215 763 q 263 872 239 840 q 351 918 296 918 q 389 913 365 918 q 435 903 413 908 q 474 894 458 899 q 488 889 490 889 q 515 901 507 889 q 533 942 522 914 l 589 942 z "},"þ":{"ha":528,"x_min":0,"x_max":526,"o":"m 526 831 q 505 774 526 797 q 450 751 483 751 q 394 775 418 751 q 371 832 371 799 q 394 888 371 864 q 450 911 418 911 q 504 888 482 911 q 526 831 526 864 m 342 749 l 285 749 l 178 899 q 165 921 169 911 q 160 943 160 931 q 218 992 160 992 q 258 976 242 992 q 283 935 275 961 l 342 749 m 156 835 q 133 777 156 801 q 78 753 110 753 q 24 778 47 753 q 0 835 0 803 q 22 890 0 868 q 78 913 44 913 q 133 890 111 913 q 156 835 156 868 z "}}}
